<svg width="132" height="136" version="1" xmlns="http://www.w3.org/2000/svg" xmlns:xlink="http://www.w3.org/1999/xlink"><use xlink:href="#path0_fill" transform="matrix(.80923 -.5875 .55094 .83454 0 13.006)" fill="#CCC"/><use xlink:href="#path1_fill" transform="translate(3 13)" fill="#FFF"/><defs><path id="path0_fill" d="M.003 15.295C-.227 2.287 15.08-4.825 24.874 3.74l68.71 60.085c10.158 8.883 4.337 25.614-9.141 26.274l-67.594 3.306c-8.458.414-15.581-6.251-15.73-14.718L.003 15.295z"/><path id="path1_fill" d="M26.718 14.752c.968-1.379 1.892-2.361 2.772-2.948a5.335 5.335 0 0 1 2.948-.88c2.464 0 4.239.645 5.324 1.936 1.085 1.29 1.628 3.33 1.628 6.116v9.416h.44c1.173 0 2.185.425 3.036 1.276.85.85 1.276 1.877 1.276 3.08s-.425 2.23-1.276 3.08c-.85.85-1.892 1.276-3.124 1.276h-.44v1.1c0 1.408-.499 2.61-1.496 3.608-.997.997-2.2 1.496-3.608 1.496-1.379 0-2.567-.484-3.564-1.452-.997-.968-1.496-2.17-1.496-3.608v-1.232H20.25l-1.188-.088c-1.203-.176-2.17-.66-2.904-1.452a4.262 4.262 0 0 1-1.056-2.86c0-.44.03-.792.088-1.056.03-.117.117-.337.264-.66l.616-1.1 10.648-15.048zm2.464 6.644l-4.488 6.952h4.488v-6.952zm17.766 2.728c.382-2.61 1.159-4.855 2.332-6.732a13.394 13.394 0 0 1 4.576-4.488c2.259-1.35 4.562-2.024 6.908-2.024 2.318 0 4.606.675 6.864 2.024 1.848 1.115 3.359 2.61 4.532 4.488 1.174 1.877 1.95 4.121 2.332 6.732.088.47.147 1.07.176 1.804.03.733.044 1.144.044 1.232 0 .499-.014 1.012-.044 1.54-.03.499-.088.997-.176 1.496-.381 2.552-1.173 4.767-2.376 6.644-1.173 1.877-2.67 3.373-4.488 4.488-2.23 1.379-4.517 2.068-6.864 2.068-1.202 0-2.361-.161-3.476-.484-1.085-.323-2.23-.85-3.432-1.584-1.848-1.085-3.358-2.567-4.532-4.444-1.173-1.877-1.965-4.107-2.376-6.688a48.246 48.246 0 0 1-.22-2.068v-.968c0-.91.074-1.921.22-3.036zm13.332 10.78c.118.03.308.044.572.044 1.555 0 2.772-1.027 3.652-3.08l.484-1.496c.235-1.056.352-2.17.352-3.344 0-2.112-.41-3.857-1.232-5.236-.821-1.379-1.73-2.141-2.728-2.288a3.648 3.648 0 0 0-.66-.044c-.792 0-1.466.235-2.024.704-.557.44-1.1 1.217-1.628 2.332-.616 1.232-.924 2.787-.924 4.664l.088 1.584c.264 1.995.763 3.52 1.496 4.576.646.91 1.496 1.437 2.552 1.584zm28.59-20.152c.968-1.379 1.892-2.361 2.772-2.948a5.336 5.336 0 0 1 2.948-.88c2.464 0 4.238.645 5.324 1.936 1.085 1.29 1.628 3.33 1.628 6.116v9.416h.44c1.173 0 2.185.425 3.036 1.276.85.85 1.276 1.877 1.276 3.08s-.426 2.23-1.276 3.08c-.851.85-1.892 1.276-3.124 1.276h-.44v1.1c0 1.408-.499 2.61-1.496 3.608-.998.997-2.2 1.496-3.608 1.496-1.379 0-2.567-.484-3.564-1.452-.998-.968-1.496-2.17-1.496-3.608v-1.232h-8.888l-1.188-.088c-1.203-.176-2.171-.66-2.904-1.452a4.262 4.262 0 0 1-1.056-2.86c0-.44.029-.792.088-1.056.029-.117.117-.337.264-.66l.616-1.1L88.87 14.752zm2.464 6.644l-4.488 6.952h4.488v-6.952z"/></defs></svg>