<svg width="1993" height="1695" version="1" xmlns="http://www.w3.org/2000/svg" xmlns:xlink="http://www.w3.org/1999/xlink"><use xlink:href="#path0_fill" transform="translate(144.3 1406.2)" fill="#F0962E"/><use xlink:href="#path0_fill" transform="matrix(-1 0 0 1 941 1406.2)" fill="#F0962E"/><use xlink:href="#path1_fill" transform="translate(615.5 1007.5)" fill="#FACFA7"/><use xlink:href="#path2_fill" transform="translate(554.5 892.5)" fill="#FACFA7"/><use xlink:href="#path3_stroke" transform="translate(487 847)" fill="#9C6F48"/><use xlink:href="#path4_fill" transform="rotate(-52.876 1235.347 -41.553)" fill="#FACFA7"/><use xlink:href="#path5_fill" transform="rotate(-52.876 1195.8 -56.327)" fill="#FACFA7"/><use xlink:href="#path6_fill" transform="rotate(-52.876 1172.643 -80.382)" fill="#FACFA7"/><use xlink:href="#path7_fill" transform="rotate(-52.876 1155.026 -107.202)" fill="#FACFA7"/><use xlink:href="#path8_fill" transform="translate(593.1 871.5)" fill="#FACFA7"/><g transform="translate(877 792.5)" fill="#82BD79"><use xlink:href="#path9_fill"/><use xlink:href="#path10_fill"/></g><g transform="matrix(-1 0 0 1 1663.5 792)" fill="#82BD79"><use xlink:href="#path11_fill"/><use xlink:href="#path12_fill"/></g><use xlink:href="#path13_fill" transform="translate(413 1130)" fill="#9C6F48"/><use xlink:href="#path14_fill" transform="translate(944 872)" fill="#E9731D"/><use xlink:href="#path15_fill" transform="translate(837 908)" fill="#FFF"/><use xlink:href="#path16_fill" transform="translate(1146 1060)" fill="#FACFA7"/><use xlink:href="#path17_fill" transform="rotate(-12.622 5126.097 -4600.66)" fill="#FACFA7"/><use xlink:href="#path18_fill" transform="rotate(-12.622 4945.921 -4714.4)" fill="#FACFA7"/><use xlink:href="#path19_fill" transform="rotate(-12.622 4905.46 -4844.267)" fill="#FACFA7"/><use xlink:href="#path20_fill" transform="rotate(-12.622 5002.07 -4988.72)" fill="#FACFA7"/><g><use xlink:href="#path21_fill" transform="translate(1204 641)" fill="#FACFA7"/><use xlink:href="#path22_fill" transform="translate(1018.5 96)" fill="#FACFA7"/><use xlink:href="#path23_fill" transform="translate(1015 66)" fill="#333"/><use xlink:href="#path24_fill" transform="translate(1035.5 222.85)" fill="#1F1F1F"/><use xlink:href="#path23_fill" transform="matrix(-1 0 0 1 1535.3 66)" fill="#333"/><use xlink:href="#path25_fill" transform="translate(1124.5)" fill="#333"/><g transform="translate(19009 -3520)"><mask id="a"><use xlink:href="#path25_fill" transform="translate(-17884.5 3520)" fill="#333"/></mask><g mask="url(#a)"><use xlink:href="#path26_fill" transform="translate(-17880.5 3628)" fill="#1F1F1F"/></g></g><use xlink:href="#path27_stroke" transform="translate(1103 376.8)" fill="#333"/><use xlink:href="#path28_fill" transform="translate(1141 379)" fill="#333"/><use xlink:href="#path27_stroke" transform="matrix(-1 0 0 1 1461 377)" fill="#333"/><use xlink:href="#path29_fill" transform="matrix(-1 0 0 1 1423 379.2)" fill="#333"/><use xlink:href="#path30_fill" transform="translate(1155 513)" fill="#333"/><use xlink:href="#path31_fill" transform="translate(1187 585)" fill="#FFF"/></g><g transform="translate(19009 -3520)"><use xlink:href="#path32_fill" transform="translate(-19009 5102)" fill="#DECC98"/></g><g transform="translate(19009 -3520)"><use xlink:href="#path33_fill" transform="translate(-18878 5152)" fill="#DECC98"/></g><g><use xlink:href="#path34_fill" transform="matrix(-.28028 .75698 .7957 .29817 912.9 1344.51)" fill="#E3001B"/><use xlink:href="#path35_fill" transform="matrix(-.28028 .75698 .7957 .29817 943.1 1401.25)" fill="#D00018"/><use xlink:href="#path36_fill" transform="matrix(-.28028 .75698 .7957 .29817 909.4 1468.14)" fill="#D00018"/><use xlink:href="#path37_fill" transform="matrix(-.28028 .75698 .7957 .29817 877.4 1385.16)" fill="#4E9A06"/><use xlink:href="#path38_stroke" transform="matrix(-.28028 .75698 .7957 .29817 888.6 1398.33)" fill="#2D8F20"/></g><g><use xlink:href="#path39_fill" transform="translate(738 1345.88)" fill="#642F2B"/><use xlink:href="#path40_fill" transform="translate(763.7 1368.47)" fill="#FFF" fill-opacity=".14"/><use xlink:href="#path41_fill" transform="translate(766.9 1303.27)" fill="red"/><use xlink:href="#path42_fill" transform="translate(766.7 1303)" fill="#C00"/><g transform="translate(19009 -3520)"><use xlink:href="#path43_fill" transform="translate(-18223.3 4849.13)" fill="#FFF" fill-opacity=".23"/></g></g><g transform="translate(19009 -3520)"><use xlink:href="#path44_fill" transform="translate(-17764 4664.5)" fill="#FACFA7"/></g><defs><path id="path0_fill" d="M140.137 178.559S-25.41 91.609 3.357 0H650.14v178.559H140.137z"/><path id="path1_fill" d="M308 118.5L230 263 63 0 0 52.5l175.643 303.202c21.525 37.158 73.977 40.334 99.828 6.043L415.5 176 308 118.5z"/><path id="path2_fill" d="M0 96l59.5 72 40.5-31 8.5-106L65 0 0 96z"/><path id="path3_stroke" d="M184.9 4.56c2.518-4.915.575-10.941-4.34-13.46-4.915-2.518-10.941-.575-13.46 4.34l17.8 9.12zM-8.9 338.94c-2.518 4.915-.575 10.941 4.34 13.46 4.915 2.518 10.941.575 13.46-4.34l-17.8-9.12zm176-343.5l-176 343.5 17.8 9.12 176-343.5-17.8-9.12z"/><path id="path4_fill" d="M0 14.5C0 6.492 6.492 0 14.5 0S29 6.492 29 14.5v44.023c0 8.008-6.492 14.5-14.5 14.5S0 66.531 0 58.523V14.5z"/><path id="path5_fill" d="M0 14.5C0 6.492 6.492 0 14.5 0S29 6.492 29 14.5v69.436c0 8.008-6.492 14.5-14.5 14.5S0 91.944 0 83.936V14.5z"/><path id="path6_fill" d="M0 14.5C0 6.492 6.492 0 14.5 0S29 6.492 29 14.5v80.717c0 8.008-6.492 14.5-14.5 14.5S0 103.225 0 95.217V14.5z"/><path id="path7_fill" d="M0 14.5C0 6.492 6.492 0 14.5 0S29 6.492 29 14.5v68.816c0 8.008-6.492 14.5-14.5 14.5S0 91.324 0 83.316V14.5z"/><path id="path8_fill" d="M87.122 54.625v80.906l-26.807 21.968-30.157-37.758c-18.764-27.46 6.479-58.81 22.116-75.515L38.199 25.4l-9.263 1.382C16.404 28.653 4.294 21.42 0 9.5l34.515-6.273a30 30 0 0 1 28.928 10.949l17.242 21.881a30 30 0 0 1 6.437 18.568z"/><path id="path9_fill" fill-rule="evenodd" d="M334 13.01L402 0v792.5H143.5l14.5-369L334 13.01z"/><path id="path10_fill" d="M177.333 42.987a100 100 0 0 0-73.211 59.034L0 346.5l158 77L334 13.01 177.333 42.988z"/><path id="path11_fill" fill-rule="evenodd" d="M317.5 13.01L385.5 0v792.5H127V365L317.5 13.01z"/><path id="path12_fill" d="M137.939 74.441a100 100 0 0 0-62.55 63.149L0 365h127L317.5 13.01 137.939 74.442z"/><path id="path13_fill" d="M61 0h47l25 40.5-55 105L0 103 61 0z"/><path id="path14_fill" d="M0 0h472v189H0V0z"/><path id="path15_fill" d="M242.219 48.262h-8.403V67H223.27V15.812h19.019c6.047 0 10.711 1.348 13.992 4.043 3.282 2.696 4.922 6.504 4.922 11.426 0 3.492-.762 6.41-2.285 8.754-1.5 2.32-3.785 4.172-6.856 5.555l11.075 20.918V67h-11.321l-9.597-18.738zm-8.403-8.543h8.508c2.649 0 4.699-.668 6.153-2.004 1.453-1.36 2.179-3.223 2.179-5.59 0-2.414-.691-4.313-2.074-5.695-1.359-1.383-3.457-2.075-6.293-2.075h-8.473V39.72zm66.235 5.097h-20.25v13.711h23.765V67h-34.312V15.812h34.242v8.543h-23.695v12.2h20.25v8.261zm49.887 5.133c-.399 5.508-2.438 9.844-6.118 13.008-3.656 3.164-8.484 4.746-14.484 4.746-6.563 0-11.731-2.203-15.504-6.61-3.75-4.429-5.625-10.5-5.625-18.21v-3.13c0-4.921.867-9.257 2.602-13.007 1.734-3.75 4.207-6.621 7.418-8.613 3.234-2.016 6.984-3.024 11.25-3.024 5.906 0 10.664 1.582 14.273 4.746 3.609 3.165 5.695 7.606 6.258 13.325h-10.547c-.258-3.305-1.184-5.696-2.777-7.172-1.571-1.5-3.973-2.25-7.207-2.25-3.516 0-6.153 1.265-7.911 3.797-1.734 2.508-2.625 6.41-2.671 11.707v3.867c0 5.531.832 9.574 2.496 12.129 1.687 2.554 4.336 3.832 7.945 3.832 3.258 0 5.684-.738 7.277-2.215 1.617-1.5 2.543-3.809 2.778-6.926h10.547zm37.722-5.133h-20.25v13.711h23.766V67h-34.313V15.812h34.242v8.543H367.41v12.2h20.25v8.261zm48.938-20.46h-15.68V67h-10.547V24.355h-15.469v-8.543h41.696v8.543zm30.726 32.097h-18.492L445.316 67h-11.214l19.054-51.188h9.774L482.09 67h-11.215l-3.551-10.547zM451.68 47.91h12.797l-6.434-19.16-6.363 19.16z"/><path id="path16_fill" d="M100.5 129.5L31 81 0 23l136.5-11.5 5-11.5h25l-2 42L151 86l-35.5 40.5-15 3z"/><path id="path17_fill" d="M1.66 14.188C1.865 6.293 8.323 0 16.22 0c8.138 0 14.698 6.669 14.563 14.806l-1.188 71.803L0 78.3l1.66-64.113z"/><path id="path18_fill" d="M1.78 14.293C1.919 6.359 8.389 0 16.324 0c8.095 0 14.632 6.61 14.543 14.704l-1.271 115.074L0 117.329 1.78 14.293z"/><path id="path19_fill" d="M1.802 14.31C1.927 6.37 8.399 0 16.34 0c8.088 0 14.621 6.6 14.54 14.687L29.595 142.05 0 128.423 1.802 14.311z"/><path id="path20_fill" d="M1.77 14.283C1.912 6.353 8.381 0 16.312 0c8.1 0 14.638 6.615 14.545 14.714l-1.263 109.278L0 112.098l1.77-97.815z"/><path id="path21_fill" d="M0 0h142v136c0 39.212-31.788 71-71 71S0 175.212 0 136V0z"/><path id="path22_fill" fill-rule="evenodd" d="M164.194 0A150 150 0 0 0 39.231 67.028L25.038 88.404A150.01 150.01 0 0 0 1.87 194.993l37.823 237.224a150.007 150.007 0 0 0 34.082 73.817l63.561 74.4a150.013 150.013 0 0 0 92.177 50.964V633h52.935v-1.602a150.014 150.014 0 0 0 92.176-50.964l63.562-74.4a150.014 150.014 0 0 0 34.082-73.817l37.821-237.224a150 150 0 0 0-23.166-106.589L472.73 67.028A150 150 0 0 0 347.767 0H164.194z"/><path id="path23_fill" d="M189.262 132l-8-132C40.76 0-40.736 201.5 20.763 316.5c0 0 123.996-172.5 168.499-184.5z"/><path id="path24_fill" d="M93.5.151c-74-4.8-90.167 105.834-93.5 158 49.146-36.418 103.969-102.56 106-134 .655-10.142 5.549-22.829-12.5-24z"/><path id="path25_fill" d="M355.672 301.096C191.706 347.188 16.5 246.5 16.5 246.5L0 85.5S118-33 282.965 62.123C406.049 133.096 371.216 0 371.216 0s140.958 257.102-15.544 301.096z"/><path id="path26_fill" d="M394.647 300.929c-184.008 46.066-380.63-54.566-380.63-54.566L5.55 109.329C2.485 59.718 38.728 6.052 88.425 5.116c55.048-1.038 132.801 9.816 224.627 56.972C451.182 133.022 412.091 0 412.091 0s158.188 256.96-17.444 300.929z"/><path id="path27_stroke" d="M-4.346 15.09a7.5 7.5 0 1 0 8.692 12.225L-4.346 15.09zM123.7 27.938a7.5 7.5 0 1 0 6.598-13.47l-6.598 13.47zM4.346 27.315C15.75 19.203 26.37 10.49 43.623 8.224c17.062-2.497 41.595.865 80.078 19.714l6.598-13.47C90.382-5.085 62.665-9.723 41.452-6.619 20.432-3.285 6.75 7.202-4.346 15.09l8.692 12.225z"/><path id="path28_fill" fill-rule="evenodd" d="M25.5 49C39.583 49 51 38.03 51 24.5S39.583 0 25.5 0 0 10.97 0 24.5c0 4.569 1.302 8.845 3.568 12.506A11.047 11.047 0 0 1 3 33.5C3 27.149 8.373 22 15 22s12 5.149 12 11.5S21.627 45 15 45a12.4 12.4 0 0 1-4.996-1.041C14.299 47.121 19.67 49 25.5 49z"/><path id="path29_fill" fill-rule="evenodd" d="M47.972 36.09A23.64 23.64 0 0 0 51 24.5C51 10.97 39.583 0 25.5 0S0 10.97 0 24.5 11.417 49 25.5 49c3.775 0 7.36-.789 10.583-2.203H36c-6.627 0-12-5.149-12-11.5 0-6.35 5.373-11.5 12-11.5s12 5.15 12 11.5c0 .267-.01.531-.028.793z"/><path id="path30_fill" d="M244 127.5c0 70.416-54.621 127.5-122 127.5C54.621 255 0 197.916 0 127.5S54.621 0 122 0c67.379 0 122 57.084 122 127.5z"/><path id="path31_fill" d="M0 0c43.38 83.658 140.609 92.238 180 0H0z"/><path id="path32_fill" d="M0 25C0 11.193 11.193 0 25 0h1943c13.81 0 25 11.193 25 25s-11.19 25-25 25H25C11.193 50 0 38.807 0 25z"/><path id="path33_fill" d="M0 25C0 11.193 11.193 0 25 0h1604c13.81 0 25 11.193 25 25s-11.19 25-25 25H25C11.193 50 0 38.807 0 25z"/><path id="path34_fill" fill-rule="evenodd" d="M104.821 0c-1.286 7.096 9.403 19.936 9.166 24.21 7.136 7.289-10.394 4.574-3.878 9.818 6.515 5.244-7.483 4.386-11.07 9.927-1.483-1.495-7.625 5.51-16.853 8.043-10.205 2.801-28.383-5.734-40.023-3.016C30.523 51.7 14.973 60.603 8.46 69.087 1.946 77.571.779 81.653.033 100.251c-.747 18.599 11.365 66.354 16.852 90.478 5.488 24.123 8.705 57.589 18.958 70.369 10.254 12.779 20.227 13.511 31.598 17.089 11.371 3.578 33.241 2.754 43.183 5.027 9.942 2.272 16.062 10.093 23.172 8.042 7.109-2.051 13.156-10.64 15.798-15.079 4.608-3.34 12.963 6.79 20.012 8.042 7.049 1.252 11.312-.906 25.278-8.042s35.204-38.115 44.237-55.29c9.034-17.174 14.685-35.054 16.852-56.295 2.168-21.242-.04-65.176-7.372-83.44-7.333-18.263-18.825-32.133-29.491-37.194-10.666-5.06-22.991-1.701-30.544 0-7.554 1.702-13.844-1.916-18.959-3.015-4.188-.9-19.294-4.532-31.598-5.027-7.307-6.76-3.543.31-9.664-8.178-6.121-8.488-.606-12.409-10.854-16.247-10.247-3.839-9.112-12.94-10.443-5.61L104.821 0z"/><path id="path35_fill" d="M36.12 0C13.077 16.578 0 55.3 0 110.552c0 61.317 40.084 102.999 70.613 111.044-51.414-64.139-56.09-90.957-53.706-125.593C19.292 61.366 25.232 26.527 36.123 0h-.002z"/><path id="path36_fill" d="M.001 0c25.777 12.382 45.891 48.251 56.231 102.613C67.71 162.945 36.072 210.792 7.54 223.91c21.73-74.891 24.47-100.063 18.803-133.734C20.7 56.646 15.68 24.244 0 0h.001z"/><path id="path37_fill" fill-rule="evenodd" d="M2.083 5.204c-5.38 4.891 1.45-1.9.696 22.857 21.832-12.08 22.68 1.626 36.507 13.304 8.153 5.037-11.547 30.571-3.431 25.33 8.63-5.572 30.042-5.043 39.532-4.28 9.49.762-6.369-28.505-20.385-46.417C45.606 8.76 38.655 2.61 31.825 1.595 9.977-1.653 7.465.312 2.083 5.204z"/><path id="path38_stroke" d="M21.83 6.557l-.975 1.232.066.052.071.045.837-1.329zM0 .053l.137 1.564H.136h.002a2.96 2.96 0 0 1 .105-.008c.086-.005.203-.012.367-.019.34-.014.813-.025 1.433-.017 1.265.017 2.983.111 5.033.44 4.16.659 9.24 2.147 13.779 5.776l1.95-2.463C17.764 1.374 11.931-.391 7.57-1.089a39.24 39.24 0 0 0-5.485-.478 30.246 30.246 0 0 0-1.605.02 19.3 19.3 0 0 0-.6.034h-.011l-.004.001h-.001L0 .053zm20.992 7.833c8.825 5.499 13.27 13.846 15.678 21.077a52.857 52.857 0 0 1 2.17 9.127c.171 1.165.264 2.085.317 2.74a25.988 25.988 0 0 1 .06.95l.001.008s0 .001 0 0l1.57-.046 1.57-.047v-.002-.006l-.001-.017-.003-.061a30.676 30.676 0 0 0-.067-1.034 47.64 47.64 0 0 0-.338-2.939 57.445 57.445 0 0 0-2.3-9.667c-2.504-7.484-7.537-16.728-16.983-22.74l-1.674 2.657z"/><path id="path39_fill" fill-rule="evenodd" d="M54.8 0l-3.837 68.483c-18.419 34.48-33 71.813-41.443 107.718 0 0-21.42 37.437 0 57.783 21.42 20.347 118.443 24.262 141.975 2.854 23.534-21.408 0-72.052 0-72.052-11.768-34-23.536-65.865-39.906-97.728L108.519 0h-53.72.001z"/><path id="path40_fill" d="M41.12 0v40.16L12.36 121.582 0 173.57v36.585l4.54-18.705 7.821-37.135 9.082-37.685 19.676-51.438 9.839-25.031V0h-9.839z"/><path id="path41_fill" fill-rule="evenodd" d="M.57 14.784C19.74-4.57 89.176-5.997 104.94 16.924c2.545 3.7-11.511 9.987-11.511 9.987l-9.21 24.968c-18.674 7.059-43.489 10.122-65.231 0l-8.442-24.255S-2.893 18.279.57 14.784z"/><path id="path42_fill" d="M105.001 18.43c-23.208 4.676-31.029 8.802-53.48 8.802-20.434 0-34.056-4.126-50.958-9.902C-3.22 16.488 11.915 0 50.512 0 85.829 0 102.479 10.178 105 18.43z"/><path id="path43_fill" d="M9.586 2.2L0 0l11.857 25.582L9.587 2.2z"/><path id="path44_fill" d="M284.5 11l-55 155.5L51 0 0 44l198.112 216.498c30.195 32.997 84.579 22.545 100.39-19.295L385.5 11h-101z"/></defs></svg>