<svg width="32" height="32" viewBox="0 0 32 32" fill="none" xmlns="http://www.w3.org/2000/svg">
<path fill-rule="evenodd" clip-rule="evenodd" d="M17 3.66637V22.9958C17 23.5494 16.5561 23.9982 16 23.9982C15.4477 23.9982 15 23.5588 15 22.9958V3.66637L12.2433 6.72739C11.8738 7.13763 11.2415 7.17089 10.831 6.80167C10.4205 6.43245 10.3872 5.80057 10.7567 5.39033L15.3359 0.305592C15.7031 -0.102079 16.2973 -0.101649 16.6641 0.305592L21.2433 5.39033C21.6128 5.80057 21.5795 6.43245 21.169 6.80167C20.7585 7.17089 20.1262 7.13763 19.7567 6.72739L17 3.66637ZM0 30.9973V16.9991C0 16.4428 0.447715 15.9982 1 15.9982C1.55613 15.9982 2 16.449 2 17.0051V29.9982H30V17.0051C30 16.4482 30.4477 15.9982 31 15.9982C31.5561 15.9982 32 16.4463 32 16.9991V30.9973C32 31.5536 31.5555 31.9982 31.0072 31.9982H0.992783C0.452359 31.9982 0 31.5501 0 30.9973Z" transform="translate(0.00183105 32) rotate(-90)" fill="#FF7404"/>
</svg>
