<svg width="90" height="83" viewBox="0 0 90 83" fill="none" xmlns="http://www.w3.org/2000/svg">
<path d="M89.5736 41.5825L77.0426 29.7475C76.8936 29.4705 76.6696 29.2425 76.3766 29.1215L45.9347 0.3735C45.4077 -0.1245 44.5867 -0.1245 44.0597 0.3735L13.6226 29.1195C13.3236 29.2435 13.0926 29.4755 12.9426 29.7615L0.425648 41.5835C-0.120352 42.1005 -0.144352 42.9625 0.372648 43.5105C0.886648 44.0565 1.75165 44.0835 2.30065 43.5655L12.7786 33.6695V81.0955C12.7786 81.8495 13.3886 82.4595 14.1426 82.4595H34.1096C34.1126 82.4595 34.1156 82.4605 34.1176 82.4605H55.8857C55.8887 82.4605 55.8916 82.4595 55.8916 82.4595H75.8536C76.6076 82.4595 77.2167 81.8495 77.2167 81.0955V33.6655L87.6996 43.5645C87.9636 43.8135 88.3016 43.9375 88.6376 43.9375C88.9996 43.9375 89.3626 43.7935 89.6276 43.5095C90.1436 42.9625 90.1196 42.1005 89.5736 41.5825ZM54.5206 79.7315H35.4806V52.9085H54.5206V79.7315ZM74.4876 79.7315H57.2486V51.5445C57.2486 50.7905 56.6386 50.1805 55.8846 50.1805H34.1166C33.3636 50.1805 32.7537 50.7905 32.7537 51.5445V79.7325H15.5056V31.0925L44.9967 3.2395L74.4876 31.0905V79.7315Z" transform="translate(0.000366211)" fill="black"/>
</svg>
