<svg viewBox="0 0 120 85" xmlns="http://www.w3.org/2000/svg">
    <g transform="translate(61 23)">
        <path fill="#FF7405" transform="matrix(0.809227 -0.587496 0.550943 0.834543 -65.6846 -10.4797)"
              d="M 0.00254125 15.2952C -0.226513 2.28701 15.0807 -4.82489 24.8744 3.73951L 93.5842 63.8247C 103.742 72.7076 97.9207 89.4387 84.4428 90.0987L 16.8493 93.4047C 8.39137 93.8187 1.26786 87.1537 1.11877 78.6867L 0.00254125 15.2952Z"></path>
        <path fill="#FFFFFF" fill-rule="evenodd" transform="translate(-58.3743 -9.35696)"
              d="M 43.7649 0.77C 43.2809 1.28333 43.0388 1.892 43.0388 2.596L 43.0388 8.932C 43.0388 10.912 43.5815 12.5253 44.6669 13.772C 45.7668 15.004 47.3655 15.7813 49.4629 16.104C 49.6975 16.148 49.9322 16.1773 50.1669 16.192C 50.4015 16.2067 50.6288 16.214 50.8488 16.214C 51.1422 16.214 51.4135 16.1993 51.6629 16.17C 51.9268 16.1553 52.1175 16.1333 52.2349 16.104C 54.3322 15.7813 55.9308 14.9967 57.0309 13.75C 58.1309 12.5033 58.6808 10.8973 58.6808 8.932L 58.6808 2.596C 58.6808 1.87733 58.4315 1.26867 57.9329 0.77C 57.4489 0.256667 56.8475 0 56.1288 0C 55.4395 0 54.8455 0.249333 54.3469 0.748C 53.8482 1.24667 53.5988 1.848 53.5988 2.552L 53.5988 9.086C 53.5988 9.84867 53.4082 10.472 53.0269 10.956C 52.6455 11.4253 52.1029 11.7187 51.3989 11.836C 51.2815 11.8653 51.1055 11.88 50.8708 11.88C 50.6215 11.88 50.4382 11.8653 50.3209 11.836C 49.6169 11.7187 49.0742 11.418 48.6929 10.934C 48.3115 10.45 48.1208 9.834 48.1208 9.086L 48.1208 2.552C 48.1208 1.848 47.8715 1.24667 47.3729 0.748C 46.8742 0.249333 46.2802 0 45.5909 0C 44.8722 0 44.2635 0.256667 43.7649 0.77ZM 61.0251 1.144C 60.7464 1.56933 60.6071 2.05333 60.6071 2.596L 60.6071 13.42C 60.6071 14.168 60.8564 14.8207 61.3551 15.378C 61.8537 15.9353 62.4697 16.214 63.2031 16.214C 63.8777 16.214 64.4571 15.972 64.9411 15.488C 65.4397 14.9893 65.6891 14.3807 65.6891 13.662L 65.6891 8.294L 71.4531 15.29C 71.6144 15.4807 71.8271 15.664 72.0911 15.84C 72.2964 15.972 72.5091 16.0673 72.7291 16.126C 72.9637 16.1847 73.1911 16.214 73.4111 16.214C 74.0271 16.214 74.5697 16.0307 75.0391 15.664C 75.5084 15.2827 75.8017 14.7913 75.9191 14.19L 75.9631 13.684L 75.9631 2.596C 75.9631 1.892 75.7137 1.29067 75.2151 0.792C 74.7164 0.293333 74.1224 0.0439997 73.4331 0.0439997C 72.7731 0.0439997 72.1791 0.293333 71.6511 0.792C 71.4017 1.04133 71.2111 1.32 71.0791 1.628C 70.9471 1.936 70.8811 2.25867 70.8811 2.596L 70.8811 7.766L 65.2931 1.21C 64.6184 0.403334 63.8997 0 63.1371 0C 62.8144 0 62.4991 0.066 62.1911 0.198C 61.6924 0.403334 61.3037 0.718667 61.0251 1.144ZM 82.494 0.792C 81.834 1.276 81.328 1.958 80.976 2.838L 77.192 12.518C 77.0013 13.046 76.906 13.4933 76.906 13.86C 76.906 14.8867 77.4193 15.62 78.446 16.06C 78.7833 16.2067 79.128 16.28 79.4799 16.28C 80.008 16.28 80.4846 16.1187 80.91 15.796C 81.35 15.4733 81.6726 15.0333 81.878 14.476L 82.142 13.75L 87.488 13.75L 87.7299 14.476C 87.9353 15.048 88.2506 15.4953 88.676 15.818C 89.1013 16.126 89.578 16.28 90.106 16.28C 90.4726 16.28 90.8246 16.2067 91.162 16.06C 91.6606 15.8547 92.042 15.5613 92.306 15.18C 92.57 14.7987 92.702 14.3587 92.702 13.86C 92.702 13.4933 92.6066 13.046 92.416 12.518L 88.632 2.838C 88.28 1.94333 87.7666 1.26133 87.092 0.792C 86.432 0.308001 85.6693 0.066 84.804 0.066C 83.9386 0.066 83.1686 0.308001 82.494 0.792ZM 83.616 9.372L 84.804 5.148L 85.992 9.372L 83.616 9.372ZM 16.5997 17.968C 16.101 18.4667 15.8517 19.0827 15.8517 19.816L 15.8517 30.244C 15.8517 31.0947 16.0864 31.7767 16.5557 32.29C 17.0397 32.7887 17.6556 33.038 18.4037 33.038L 23.8817 33.038C 24.6443 33.038 25.297 32.9427 25.8397 32.752C 26.397 32.5613 26.9177 32.268 27.4017 31.872C 27.6657 31.6373 27.937 31.3367 28.2157 30.97C 28.509 30.5887 28.729 30.1633 28.8757 29.694C 29.037 29.21 29.1177 28.726 29.1177 28.242C 29.1177 26.9513 28.6483 25.9247 27.7097 25.162L 27.5777 25.052L 27.2697 24.854L 26.9617 24.656L 26.9177 24.612C 27.3723 24.0107 27.6437 23.2847 27.7317 22.434C 27.7317 22.39 27.739 22.324 27.7537 22.236L 27.7537 21.928C 27.7537 20.74 27.3283 19.7133 26.4777 18.848C 25.6417 17.9827 24.505 17.4547 23.0677 17.264L 22.0997 17.198L 18.4477 17.198C 17.729 17.198 17.113 17.4547 16.5997 17.968ZM 22.9357 22.258C 22.9357 22.4633 22.8624 22.6173 22.7157 22.72C 22.525 22.8813 22.327 22.962 22.1216 22.962L 20.9557 22.962L 20.9557 21.554L 22.0777 21.554C 22.3123 21.554 22.5103 21.6273 22.6717 21.774C 22.8477 21.906 22.9357 22.0673 22.9357 22.258ZM 23.8376 27.406C 23.9697 27.5527 24.0356 27.736 24.0356 27.956C 24.0356 28.1613 23.9623 28.33 23.8157 28.462C 23.669 28.594 23.5077 28.66 23.3317 28.66L 20.9337 28.66L 20.9337 27.186L 23.3317 27.186C 23.537 27.186 23.7057 27.2593 23.8376 27.406ZM 31.4174 17.77C 30.9333 18.2833 30.6913 18.892 30.6913 19.596L 30.6913 25.932C 30.6913 27.912 31.234 29.5253 32.3194 30.772C 33.4193 32.004 35.018 32.7813 37.1154 33.104C 37.35 33.148 37.5847 33.1773 37.8194 33.192C 37.969 33.2013 38.1156 33.2077 38.2592 33.2111C 37.7622 34.3198 37.1671 35.375 36.4851 36.3657C 35.7589 36.8246 35.1083 37.4033 34.5333 38.102C 34.0789 38.6562 33.704 39.248 33.4088 39.8775C 29.8615 43.0848 25.1588 45.038 20 45.038C 8.95428 45.038 0 36.0837 0 25.038C 0 13.9923 8.95428 5.038 20 5.038C 31.0457 5.038 40 13.9923 40 25.038C 40 26.279 39.887 27.4935 39.6707 28.672C 39.4803 28.7442 39.2739 28.7989 39.0514 28.836C 38.934 28.8653 38.758 28.88 38.5233 28.88C 38.274 28.88 38.0907 28.8653 37.9734 28.836C 37.2693 28.7187 36.7267 28.418 36.3454 27.934C 35.964 27.45 35.7733 26.834 35.7733 26.086L 35.7733 19.552C 35.7733 18.848 35.524 18.2467 35.0254 17.748C 34.5267 17.2493 33.9327 17 33.2433 17C 32.5247 17 31.916 17.2567 31.4174 17.77ZM 33.4088 39.8775C 33.3133 40.0811 33.2261 40.2886 33.1473 40.5C 32.8246 41.3653 32.6633 42.2087 32.6633 43.03C 32.6633 44.79 33.2646 46.4547 34.4673 48.024C 34.878 48.5227 35.296 48.948 35.7213 49.3C 36.8506 50.224 38.1779 50.8107 39.7033 51.06C 40.2753 51.148 40.818 51.192 41.3313 51.192C 42.3726 51.192 43.2673 51.0453 44.0153 50.752C 44.5726 50.5467 45.02 50.3267 45.3573 50.092C 45.6946 49.8427 45.9586 49.5787 46.1493 49.3C 46.4573 48.8307 46.6113 48.376 46.6113 47.936C 46.6113 47.4373 46.4279 46.9827 46.0613 46.572C 45.6506 46.1173 45.0933 45.89 44.3893 45.89C 44.0959 45.89 43.8246 45.9193 43.5753 45.978L 43.3553 46.044C 42.3726 46.3813 41.5293 46.55 40.8253 46.55C 39.0946 46.55 38.0533 45.6187 37.7013 43.756C 37.6573 43.5067 37.6353 43.272 37.6353 43.052C 37.6353 42.832 37.6573 42.5973 37.7013 42.348C 37.8919 41.4387 38.2953 40.742 38.9113 40.258C 39.5273 39.7593 40.2533 39.51 41.0893 39.51C 41.3826 39.51 41.6173 39.5247 41.7933 39.554C 41.9839 39.5687 42.1673 39.6127 42.3433 39.686C 42.5193 39.7447 42.7613 39.8327 43.0693 39.95C 43.2013 39.994 43.3993 40.038 43.6633 40.082C 43.942 40.126 44.2279 40.148 44.5213 40.148C 44.8733 40.148 45.174 40.082 45.4233 39.95C 45.6873 39.818 45.9293 39.6127 46.1493 39.334C 46.4426 38.9673 46.5893 38.5347 46.5893 38.036C 46.5893 37.244 46.1786 36.562 45.3573 35.99C 44.4333 35.3447 43.1939 35.022 41.6393 35.022C 41.0966 35.022 40.5173 35.066 39.9013 35.154C 38.6202 35.3322 37.4815 35.7361 36.4851 36.3657C 35.5985 37.6534 34.565 38.8321 33.4088 39.8775ZM 39.6707 28.672C 40.0823 28.5156 40.4186 28.277 40.6794 27.956C 41.0607 27.472 41.2513 26.8487 41.2513 26.086L 41.2513 19.552C 41.2513 18.848 41.5007 18.2467 41.9994 17.748C 42.498 17.2493 43.092 17 43.7813 17C 44.5 17 45.1013 17.2567 45.5854 17.77C 46.084 18.2687 46.3333 18.8773 46.3333 19.596L 46.3333 25.932C 46.3333 27.8973 45.7834 29.5033 44.6833 30.75C 43.5833 31.9967 41.9847 32.7813 39.8874 33.104C 39.77 33.1333 39.5793 33.1553 39.3154 33.17C 39.066 33.1993 38.7947 33.214 38.5013 33.214C 38.4216 33.214 38.3409 33.213 38.2592 33.2111C 38.9011 31.7794 39.3795 30.2584 39.6707 28.672ZM 48.9856 17.924C 48.5016 18.408 48.2596 19.0167 48.2596 19.75L 48.2596 30.442C 48.2596 30.7793 48.3256 31.102 48.4576 31.41C 48.6776 31.9087 49.0002 32.3047 49.4256 32.598C 49.8509 32.8913 50.3056 33.038 50.7896 33.038L 56.7076 33.038C 57.3382 33.038 57.8809 32.8253 58.3356 32.4C 58.8049 31.96 59.0396 31.4467 59.0396 30.86C 59.0396 30.244 58.8049 29.7233 58.3356 29.298C 57.8662 28.858 57.3015 28.638 56.6416 28.638L 53.3416 28.638L 53.3416 27.274L 56.2236 27.274C 56.8249 27.274 57.3749 27.0613 57.8736 26.636C 58.3282 26.2107 58.5556 25.7047 58.5556 25.118C 58.5556 24.5313 58.3356 24.04 57.8956 23.644C 57.4116 23.1893 56.8469 22.962 56.2016 22.962L 53.3416 22.962L 53.3416 21.62L 56.8176 21.62C 57.4189 21.62 57.9322 21.4 58.3575 20.96C 58.7829 20.52 58.9955 19.9993 58.9955 19.398C 58.9955 18.782 58.7829 18.2613 58.3575 17.836C 57.9322 17.4107 57.4336 17.198 56.8616 17.198L 50.8116 17.198C 50.0782 17.198 49.4696 17.44 48.9856 17.924ZM 61.0251 18.144C 60.7464 18.5693 60.6071 19.0533 60.6071 19.596L 60.6071 30.42C 60.6071 31.168 60.8564 31.8207 61.3551 32.378C 61.8537 32.9353 62.4697 33.214 63.2031 33.214C 63.8777 33.214 64.4571 32.972 64.9411 32.488C 65.4397 31.9893 65.6891 31.3807 65.6891 30.662L 65.6891 25.294L 71.4531 32.29C 71.6144 32.4807 71.8271 32.664 72.0911 32.84C 72.2964 32.972 72.5091 33.0673 72.7291 33.126C 72.9637 33.1847 73.1911 33.214 73.4111 33.214C 74.0271 33.214 74.5697 33.0307 75.0391 32.664C 75.5084 32.2827 75.8017 31.7913 75.9191 31.19L 75.9631 30.684L 75.9631 19.596C 75.9631 18.892 75.7137 18.2907 75.2151 17.792C 74.7164 17.2933 74.1224 17.044 73.433 17.044C 72.7731 17.044 72.179 17.2933 71.6511 17.792C 71.4017 18.0413 71.2111 18.32 71.0791 18.628C 70.9471 18.936 70.8811 19.2587 70.8811 19.596L 70.8811 24.766L 65.2931 18.21C 64.6184 17.4033 63.8997 17 63.1371 17C 62.8144 17 62.4991 17.066 62.1911 17.198C 61.6924 17.4033 61.3037 17.7187 61.0251 18.144ZM 82.494 17.792C 81.834 18.276 81.328 18.958 80.976 19.838L 77.192 29.518C 77.0013 30.046 76.906 30.4933 76.906 30.86C 76.906 31.8867 77.4193 32.62 78.446 33.06C 78.7833 33.2067 79.128 33.28 79.4799 33.28C 80.008 33.28 80.4846 33.1187 80.91 32.796C 81.35 32.4733 81.6726 32.0333 81.878 31.476L 82.142 30.75L 87.488 30.75L 87.7299 31.476C 87.9353 32.048 88.2506 32.4953 88.676 32.818C 89.1013 33.126 89.578 33.28 90.106 33.28C 90.4726 33.28 90.8246 33.2067 91.162 33.06C 91.6606 32.8547 92.042 32.5613 92.306 32.18C 92.57 31.7987 92.702 31.3587 92.702 30.86C 92.702 30.4933 92.6066 30.046 92.416 29.518L 88.632 19.838C 88.28 18.9433 87.7666 18.2613 87.092 17.792C 86.432 17.308 85.6693 17.066 84.804 17.066C 83.9386 17.066 83.1686 17.308 82.494 17.792ZM 83.616 26.372L 84.804 22.148L 85.992 26.372L 83.616 26.372ZM 48.9856 35.924C 48.5016 36.408 48.2596 37.0167 48.2596 37.75L 48.2596 48.442C 48.2596 48.7793 48.3256 49.102 48.4576 49.41C 48.6776 49.9087 49.0002 50.3047 49.4256 50.598C 49.8509 50.8913 50.3056 51.038 50.7896 51.038L 56.7076 51.038C 57.3382 51.038 57.8809 50.8253 58.3356 50.4C 58.8049 49.96 59.0396 49.4467 59.0396 48.86C 59.0396 48.244 58.8049 47.7233 58.3356 47.298C 57.8662 46.858 57.3016 46.638 56.6416 46.638L 53.3416 46.638L 53.3416 45.274L 56.2236 45.274C 56.8249 45.274 57.3749 45.0613 57.8736 44.636C 58.3282 44.2107 58.5556 43.7047 58.5556 43.118C 58.5556 42.5313 58.3356 42.04 57.8956 41.644C 57.4116 41.1893 56.8469 40.962 56.2016 40.962L 53.3416 40.962L 53.3416 39.62L 56.8176 39.62C 57.4189 39.62 57.9322 39.4 58.3576 38.96C 58.7829 38.52 58.9956 37.9993 58.9956 37.398C 58.9956 36.782 58.7829 36.2613 58.3576 35.836C 57.9322 35.4107 57.4336 35.198 56.8616 35.198L 50.8116 35.198C 50.0782 35.198 49.4696 35.44 48.9856 35.924ZM 61.0251 36.144C 60.7464 36.5693 60.6071 37.0533 60.6071 37.596L 60.6071 48.42C 60.6071 49.168 60.8564 49.8207 61.3551 50.378C 61.8537 50.9353 62.4697 51.214 63.2031 51.214C 63.8777 51.214 64.4571 50.972 64.9411 50.488C 65.4397 49.9893 65.6891 49.3807 65.6891 48.662L 65.6891 43.294L 71.4531 50.29C 71.6144 50.4807 71.8271 50.664 72.0911 50.84C 72.2964 50.972 72.5091 51.0673 72.7291 51.126C 72.9637 51.1847 73.1911 51.214 73.4111 51.214C 74.0271 51.214 74.5697 51.0307 75.0391 50.664C 75.5084 50.2827 75.8017 49.7913 75.9191 49.19L 75.9631 48.684L 75.9631 37.596C 75.9631 36.892 75.7137 36.2907 75.2151 35.792C 74.7164 35.2933 74.1224 35.044 73.4331 35.044C 72.7731 35.044 72.1791 35.2933 71.6511 35.792C 71.4017 36.0413 71.2111 36.32 71.0791 36.628C 70.9471 36.936 70.8811 37.2587 70.8811 37.596L 70.8811 42.766L 65.2931 36.21C 64.6184 35.4033 63.8997 35 63.1371 35C 62.8144 35 62.4991 35.066 62.1911 35.198C 61.6924 35.4033 61.3037 35.7187 61.0251 36.144ZM 82.494 35.792C 81.834 36.276 81.328 36.958 80.976 37.838L 77.192 47.518C 77.0013 48.046 76.906 48.4933 76.906 48.86C 76.906 49.8867 77.4193 50.62 78.446 51.06C 78.7833 51.2067 79.128 51.28 79.4799 51.28C 80.008 51.28 80.4846 51.1187 80.91 50.796C 81.35 50.4733 81.6726 50.0333 81.878 49.476L 82.142 48.75L 87.488 48.75L 87.7299 49.476C 87.9353 50.048 88.2506 50.4953 88.676 50.818C 89.1013 51.126 89.578 51.28 90.106 51.28C 90.4726 51.28 90.8246 51.2067 91.162 51.06C 91.6606 50.8547 92.042 50.5613 92.306 50.18C 92.57 49.7987 92.702 49.3587 92.702 48.86C 92.702 48.4933 92.6066 48.046 92.416 47.518L 88.632 37.838C 88.28 36.9433 87.7666 36.2613 87.092 35.792C 86.432 35.308 85.6693 35.066 84.804 35.066C 83.9386 35.066 83.1686 35.308 82.494 35.792ZM 83.616 44.372L 84.804 40.148L 85.992 44.372L 83.616 44.372Z"></path>
    </g>
</svg>