<svg width="160" height="106" viewBox="0 0 160 106" fill="none" xmlns="http://www.w3.org/2000/svg">
    <g filter="url(#filter0_d)">
        <path d="M54.4791 77.2144L18.9462 26.8529C11.5345 16.3482 19.9078 1.99702 32.6998 3.28023L121.952 12.2334C135.456 13.5881 140.361 30.7527 129.612 39.0386L75.8931 80.447C69.1349 85.6564 59.3983 84.1866 54.4791 77.2144Z" transform="translate(0 5.5)" fill="#FF7405"/>
    </g>
    <path fill-rule="evenodd" clip-rule="evenodd" d="M43.7649 0.77002C43.2808 1.28339 43.0388 1.89203 43.0388 2.59601V8.93201C43.0388 10.912 43.5815 12.5253 44.6667 13.772C45.7668 15.004 47.3655 15.7814 49.4629 16.104C49.6975 16.148 49.9321 16.1774 50.1667 16.192C50.4016 16.2067 50.6289 16.2141 50.8489 16.2141C51.1421 16.2141 51.4136 16.1993 51.6628 16.17C51.9268 16.1553 52.1174 16.1334 52.2349 16.104C54.3323 15.7814 55.9309 14.9967 57.0308 13.75C58.1309 12.5034 58.6809 10.8973 58.6809 8.93201V2.59601C58.6809 1.87738 58.4316 1.26868 57.9329 0.77002C57.449 0.256714 56.8474 0 56.1289 0C55.4395 0 54.8455 0.249329 54.3469 0.748047C53.8481 1.2467 53.5989 1.84802 53.5989 2.552V9.086C53.5989 9.84869 53.4082 10.472 53.0269 10.9561C52.6455 11.4254 52.1028 11.7187 51.3989 11.836C51.2815 11.8654 51.1055 11.88 50.8708 11.88C50.6216 11.88 50.4382 11.8654 50.3208 11.836C49.6169 11.7187 49.0742 11.418 48.6929 10.934C48.3115 10.45 48.1208 9.83405 48.1208 9.086V2.552C48.1208 1.84802 47.8716 1.2467 47.3728 0.748047C46.8743 0.249329 46.2803 0 45.5908 0C44.8723 0 44.2634 0.256714 43.7649 0.77002ZM61.0251 1.14404C60.7463 1.56934 60.6072 2.05334 60.6072 2.59601V13.42C60.6072 14.168 60.8564 14.8207 61.355 15.3781C61.8538 15.9354 62.4697 16.2141 63.2031 16.2141C63.8777 16.2141 64.457 15.972 64.9412 15.488C65.4397 14.9894 65.689 14.3807 65.689 13.662V8.29401L71.4531 15.29C71.6145 15.4807 71.8271 15.664 72.0911 15.84C72.2964 15.972 72.509 16.0674 72.729 16.126C72.9636 16.1847 73.1912 16.2141 73.4111 16.2141C74.0271 16.2141 74.5698 16.0307 75.0391 15.664C75.5083 15.2827 75.8018 14.7914 75.9189 14.19L75.9631 13.684V2.59601C75.9631 1.89203 75.7136 1.29071 75.2151 0.792053C74.7163 0.293335 74.1223 0.0440063 73.4331 0.0440063C72.7729 0.0440063 72.179 0.293335 71.6511 0.792053C71.4016 1.04138 71.2112 1.32001 71.0791 1.62805C70.947 1.93604 70.8811 2.25867 70.8811 2.59601V7.76605L65.293 1.21002C64.6184 0.403381 63.8997 0 63.137 0C62.8145 0 62.499 0.06604 62.1912 0.197998C61.6924 0.403381 61.3037 0.718689 61.0251 1.14404ZM82.4939 0.792053C81.834 1.276 81.3279 1.95801 80.9761 2.83801L77.1919 12.518C77.0012 13.046 76.906 13.4933 76.906 13.86C76.906 14.8867 77.4192 15.62 78.446 16.06C78.7832 16.2067 79.1279 16.28 79.48 16.28C80.0081 16.28 80.4846 16.1187 80.9099 15.796C81.3499 15.4734 81.6726 15.0334 81.8779 14.476L82.1418 13.75H87.488L87.73 14.476C87.9353 15.048 88.2507 15.4954 88.676 15.8181C89.1013 16.126 89.5779 16.28 90.106 16.28C90.4727 16.28 90.8247 16.2067 91.1619 16.06C91.6606 15.8547 92.042 15.5613 92.3059 15.1801C92.5701 14.7987 92.7019 14.3587 92.7019 13.86C92.7019 13.4933 92.6067 13.046 92.416 12.518L88.6321 2.83801C88.28 1.94336 87.7666 1.26135 87.092 0.792053C86.4319 0.308044 85.6692 0.06604 84.804 0.06604C83.9387 0.06604 83.1687 0.308044 82.4939 0.792053ZM83.616 9.37201L84.804 5.14801L85.9919 9.37201H83.616ZM16.5996 17.968C16.1011 18.4667 15.8516 19.0827 15.8516 19.816V30.244C15.8516 31.0947 16.0864 31.7767 16.5557 32.29C17.0396 32.7887 17.6558 33.038 18.4036 33.038H23.8816C24.6443 33.038 25.2971 32.9427 25.8396 32.752C26.397 32.5613 26.9177 32.268 27.4016 31.872C27.6658 31.6373 27.937 31.3367 28.2156 30.97C28.509 30.5887 28.729 30.1633 28.8757 29.694C29.0371 29.21 29.1177 28.726 29.1177 28.242C29.1177 26.9514 28.6484 25.9247 27.7097 25.162L27.5776 25.052L26.9617 24.656L26.9177 24.612C27.3723 24.0107 27.6436 23.2847 27.7317 22.434C27.7317 22.39 27.739 22.324 27.7537 22.236V21.928C27.7537 20.7401 27.3284 19.7134 26.4778 18.848C25.6416 17.9827 24.5049 17.4547 23.0676 17.264L22.0996 17.198H18.4478C17.729 17.198 17.113 17.4547 16.5996 17.968ZM22.9358 22.258C22.9358 22.4634 22.8623 22.6174 22.7156 22.72C22.5249 22.8813 22.3269 22.962 22.1216 22.962H20.9556V21.554H22.0776C22.3123 21.554 22.5103 21.6274 22.6716 21.774C22.8477 21.906 22.9358 22.0674 22.9358 22.258ZM23.8376 27.406C23.9697 27.5527 24.0356 27.736 24.0356 27.9561C24.0356 28.1614 23.9624 28.33 23.8157 28.462C23.6689 28.594 23.5076 28.66 23.3318 28.66H20.9336V27.186H23.3318C23.5371 27.186 23.7056 27.2593 23.8376 27.406ZM31.4172 17.77C30.9333 18.2834 30.6914 18.892 30.6914 19.596V25.932C30.6914 27.912 31.2341 29.5253 32.3193 30.772C33.4194 32.004 35.0181 32.7814 37.1152 33.104C37.3501 33.148 37.5847 33.1774 37.8193 33.192C37.8257 33.1924 37.8323 33.1928 37.8386 33.1932C34.5352 39.544 27.7874 43.895 20 43.895C8.95435 43.895 0 35.1414 0 24.3432C0 13.5451 8.95435 4.7915 20 4.7915C31.0457 4.7915 40 13.5451 40 24.3432C40 25.8524 39.825 27.3216 39.4939 28.7325C39.3542 28.7756 39.2068 28.8101 39.0513 28.836C38.9341 28.8654 38.7581 28.88 38.5234 28.88C38.2739 28.88 38.0906 28.8654 37.9734 28.836C37.2693 28.7187 36.7268 28.418 36.3455 27.934C35.9641 27.45 35.7734 26.834 35.7734 26.086V19.552C35.7734 18.848 35.5239 18.2467 35.0254 17.748C34.5266 17.2493 33.9326 17 33.2434 17C32.5247 17 31.916 17.2567 31.4172 17.77ZM39.4939 28.7325C39.9871 28.5806 40.3823 28.3217 40.6794 27.9561C41.0608 27.472 41.2515 26.8487 41.2515 26.086V19.552C41.2515 18.848 41.5007 18.2467 41.9993 17.748C42.498 17.2493 43.092 17 43.7812 17C44.5 17 45.1013 17.2567 45.5854 17.77C46.084 18.2687 46.3333 18.8774 46.3333 19.596V25.932C46.3333 27.8973 45.7834 29.5034 44.6833 30.75C43.5833 31.9967 41.9846 32.7814 39.8875 33.104C39.77 33.1334 39.5793 33.1553 39.3154 33.17C39.0659 33.1993 38.7947 33.2141 38.5015 33.2141C38.2874 33.2141 38.0664 33.207 37.8386 33.1932C38.5659 31.7949 39.1262 30.2996 39.4939 28.7325ZM48.9856 17.924C48.5015 18.408 48.2595 19.0167 48.2595 19.75V30.442C48.2595 30.7794 48.3254 31.1021 48.4575 31.41C48.6775 31.9087 49.0002 32.3047 49.4255 32.598C49.8508 32.8914 50.3057 33.038 50.7896 33.038H56.7075C57.3381 33.038 57.8809 32.8254 58.3354 32.4C58.8049 31.96 59.0396 31.4467 59.0396 30.86C59.0396 30.244 58.8049 29.7234 58.3354 29.298C57.8662 28.858 57.3015 28.638 56.6416 28.638H53.3416V27.274H56.2236C56.825 27.274 57.375 27.0613 57.8735 26.636C58.3281 26.2107 58.5557 25.7047 58.5557 25.118C58.5557 24.5314 58.3354 24.04 57.8955 23.644C57.4116 23.1893 56.8469 22.962 56.2017 22.962H53.3416V21.62H56.8176C57.4189 21.62 57.9321 21.4 58.3577 20.96C58.783 20.52 58.9956 19.9993 58.9956 19.398C58.9956 18.782 58.783 18.2614 58.3577 17.836C57.9321 17.4107 57.4336 17.198 56.8616 17.198H50.8115C50.0781 17.198 49.4695 17.44 48.9856 17.924ZM61.0251 18.144C60.7463 18.5693 60.6072 19.0533 60.6072 19.596V30.42C60.6072 31.168 60.8564 31.8207 61.355 32.3781C61.8538 32.9354 62.4697 33.2141 63.2031 33.2141C63.8777 33.2141 64.457 32.972 64.9412 32.488C65.4397 31.9894 65.689 31.3807 65.689 30.662V25.294L71.4531 32.29C71.6145 32.4807 71.8271 32.664 72.0911 32.84C72.2964 32.972 72.509 33.0674 72.729 33.126C72.9636 33.1847 73.1912 33.2141 73.4111 33.2141C74.0271 33.2141 74.5698 33.0307 75.0391 32.664C75.5083 32.2827 75.8018 31.7914 75.9189 31.19L75.9631 30.684V19.596C75.9631 18.892 75.7136 18.2907 75.2151 17.7921C74.7163 17.2933 74.1223 17.044 73.4331 17.044C72.7729 17.044 72.179 17.2933 71.6511 17.7921C71.4016 18.0414 71.2109 18.32 71.0791 18.6281C70.947 18.936 70.8811 19.2587 70.8811 19.596V24.7661L65.293 18.21C64.6184 17.4034 63.8997 17 63.137 17C62.8145 17 62.499 17.066 62.1912 17.198C61.6924 17.4034 61.3037 17.7187 61.0251 18.144ZM82.4939 17.7921C81.834 18.276 81.3279 18.958 80.9761 19.838L77.1919 29.518C77.0012 30.046 76.906 30.4933 76.906 30.86C76.906 31.8867 77.4192 32.62 78.446 33.06C78.7832 33.2067 79.1279 33.28 79.48 33.28C80.0081 33.28 80.4846 33.1187 80.9099 32.796C81.3499 32.4734 81.6726 32.0334 81.8779 31.476L82.1418 30.75H87.488L87.73 31.476C87.9353 32.048 88.2507 32.4954 88.676 32.8181C89.1013 33.126 89.5779 33.28 90.106 33.28C90.4727 33.28 90.8247 33.2067 91.1619 33.06C91.6606 32.8547 92.042 32.5613 92.3059 32.1801C92.5701 31.7987 92.7019 31.3587 92.7019 30.86C92.7019 30.4933 92.6067 30.046 92.416 29.518L88.6321 19.838C88.28 18.9434 87.7666 18.2614 87.092 17.7921C86.4319 17.308 85.6692 17.066 84.804 17.066C83.9387 17.066 83.1687 17.308 82.4939 17.7921ZM83.616 26.372L84.804 22.148L85.9919 26.372H83.616ZM39.9014 35.1541C37.6865 35.462 35.8972 36.4447 34.5332 38.1021C33.9319 38.8353 33.47 39.6347 33.1472 40.5C32.8247 41.3654 32.6633 42.2087 32.6633 43.03C32.6633 44.79 33.2646 46.4547 34.4673 48.024C34.8779 48.5227 35.2959 48.948 35.7212 49.3C36.8506 50.224 38.178 50.8107 39.7034 51.06C40.2754 51.148 40.8179 51.192 41.3313 51.192C42.3726 51.192 43.2673 51.0453 44.0154 50.752C44.5725 50.5467 45.02 50.3267 45.3572 50.092C45.6946 49.8427 45.9585 49.5787 46.1492 49.3C46.4573 48.8307 46.6113 48.376 46.6113 47.936C46.6113 47.4374 46.428 46.9827 46.0613 46.572C45.6506 46.1174 45.0933 45.89 44.3894 45.89C44.0959 45.89 43.8247 45.9194 43.5752 45.978L43.3552 46.044C42.3726 46.3813 41.5293 46.55 40.8252 46.55C39.0947 46.55 38.0532 45.6187 37.7012 43.756C37.6572 43.5067 37.6353 43.272 37.6353 43.052C37.6353 42.832 37.6572 42.5974 37.7012 42.348C37.8918 41.4387 38.2952 40.742 38.9114 40.258C39.5273 39.7593 40.2532 39.51 41.0894 39.51C41.3826 39.51 41.6172 39.5247 41.7932 39.554C41.9839 39.5687 42.1672 39.6127 42.3433 39.686C42.5193 39.7447 42.7612 39.8327 43.0693 39.95C43.2012 39.994 43.3992 40.038 43.6633 40.082C43.9419 40.126 44.228 40.148 44.5212 40.148C44.8733 40.148 45.1738 40.082 45.4233 39.95C45.6873 39.8181 45.9292 39.6127 46.1492 39.334C46.4426 38.9673 46.5894 38.5347 46.5894 38.036C46.5894 37.244 46.1787 36.562 45.3572 35.9901C44.4333 35.3447 43.1938 35.022 41.6394 35.022C41.0967 35.022 40.5173 35.066 39.9014 35.1541ZM48.9856 35.924C48.5015 36.408 48.2595 37.0167 48.2595 37.75V48.442C48.2595 48.7794 48.3257 49.1021 48.4575 49.41C48.6775 49.9087 49.0002 50.3047 49.4255 50.598C49.8508 50.8914 50.3057 51.038 50.7896 51.038H56.7075C57.3381 51.038 57.8809 50.8254 58.3354 50.4C58.8049 49.96 59.0396 49.4467 59.0396 48.86C59.0396 48.244 58.8049 47.7234 58.3354 47.298C57.8662 46.858 57.3015 46.638 56.6416 46.638H53.3416V45.274H56.2236C56.825 45.274 57.375 45.0613 57.8735 44.636C58.3281 44.2107 58.5557 43.7047 58.5557 43.118C58.5557 42.5314 58.3354 42.04 57.8955 41.644C57.4116 41.1893 56.8469 40.962 56.2017 40.962H53.3416V39.62H56.8176C57.4189 39.62 57.9321 39.4 58.3577 38.96C58.783 38.52 58.9956 37.9993 58.9956 37.398C58.9956 36.782 58.783 36.2614 58.3577 35.836C57.9321 35.4107 57.4336 35.198 56.8616 35.198H50.8115C50.0781 35.198 49.4695 35.44 48.9856 35.924ZM61.0251 36.144C60.7463 36.5693 60.6072 37.0533 60.6072 37.596V48.42C60.6072 49.168 60.8564 49.8207 61.355 50.3781C61.8538 50.9354 62.4697 51.2141 63.2031 51.2141C63.8777 51.2141 64.457 50.972 64.9412 50.488C65.4397 49.9894 65.689 49.3807 65.689 48.662V43.294L71.4531 50.29C71.6145 50.4807 71.8271 50.664 72.0911 50.84C72.2964 50.972 72.509 51.0674 72.729 51.126C72.9636 51.1847 73.1912 51.2141 73.4111 51.2141C74.0271 51.2141 74.5698 51.0307 75.0391 50.664C75.5083 50.2827 75.8018 49.7914 75.9189 49.19L75.9631 48.684V37.596C75.9631 36.892 75.7136 36.2907 75.2151 35.7921C74.7163 35.2933 74.1223 35.044 73.4331 35.044C72.7729 35.044 72.179 35.2933 71.6511 35.7921C71.4016 36.0414 71.2112 36.32 71.0791 36.6281C70.947 36.936 70.8811 37.2587 70.8811 37.596V42.7661L65.293 36.21C64.6184 35.4034 63.8997 35 63.137 35C62.8145 35 62.499 35.066 62.1912 35.198C61.6924 35.4034 61.3037 35.7187 61.0251 36.144ZM82.4939 35.7921C81.834 36.276 81.3279 36.958 80.9761 37.838L77.1919 47.518C77.0012 48.046 76.906 48.4933 76.906 48.86C76.906 49.8867 77.4192 50.62 78.446 51.06C78.7832 51.2067 79.1279 51.28 79.48 51.28C80.0081 51.28 80.4846 51.1187 80.9099 50.796C81.3499 50.4734 81.6726 50.0334 81.8779 49.476L82.1418 48.75H87.488L87.73 49.476C87.9353 50.048 88.2507 50.4954 88.676 50.8181C89.1013 51.126 89.5779 51.28 90.106 51.28C90.4727 51.28 90.8247 51.2067 91.1619 51.06C91.6606 50.8547 92.042 50.5613 92.3059 50.1801C92.5701 49.7987 92.7019 49.3587 92.7019 48.86C92.7019 48.4933 92.6067 48.046 92.416 47.518L88.6321 37.838C88.28 36.9434 87.7666 36.2614 87.092 35.7921C86.4319 35.308 85.6692 35.066 84.804 35.066C83.9387 35.066 83.1687 35.308 82.4939 35.7921ZM83.616 44.372L84.804 40.148L85.9919 44.372H83.616Z" transform="translate(18 21.1613)" fill="white"/>
    <defs>
        <filter id="filter0_d" x="4.1665" y="0.699829" width="143.306" height="104.368" filterUnits="userSpaceOnUse" color-interpolation-filters="sRGB">
            <feFlood flood-opacity="0" result="BackgroundImageFix"/>
            <feColorMatrix in="SourceAlpha" type="matrix" values="0 0 0 0 0 0 0 0 0 0 0 0 0 0 0 0 0 0 255 0"/>
            <feOffset dy="4"/>
            <feGaussianBlur stdDeviation="6"/>
            <feColorMatrix type="matrix" values="0 0 0 0 0 0 0 0 0 0 0 0 0 0 0 0 0 0 0.13 0"/>
            <feBlend mode="normal" in2="BackgroundImageFix" result="effect1_dropShadow"/>
            <feBlend mode="normal" in="SourceGraphic" in2="effect1_dropShadow" result="shape"/>
        </filter>
    </defs>
</svg>
