<svg width="2006" height="2950" version="1" xmlns="http://www.w3.org/2000/svg" xmlns:xlink="http://www.w3.org/1999/xlink"><use xlink:href="#path0_fill" fill="#FFCB99"/><g transform="translate(15308 3645)"><mask id="a"><use xlink:href="#path1_fill" fill="#fff" transform="translate(-14662 -941)"/></mask><g mask="url(#a)"><use xlink:href="#path2_stroke_2x" transform="translate(-14662 -941)" fill-opacity=".19"/></g></g><use xlink:href="#path3_fill" transform="translate(45.4 234.61)" fill="#FFF"/><use xlink:href="#path4_fill" transform="translate(591 105)" fill-opacity=".19"/><use xlink:href="#path5_fill" transform="translate(173 599)" fill="#E9731D"/><g transform="translate(15308 3645)"><use xlink:href="#path6_fill" transform="translate(-15206 -3046)" fill="#FFF"/><mask id="b"><use xlink:href="#path6_fill" transform="translate(-15206 -3046)" fill="#FFF"/></mask><g mask="url(#b)"><use xlink:href="#path7_fill" transform="translate(-15215.3 -3056)" fill="#E9731D"/></g></g><use xlink:href="#path8_fill" transform="translate(1294 849)" fill="#FFF"/><use xlink:href="#path8_fill" transform="rotate(-90 1092.5 -91.5)" fill="#FFF"/><use xlink:href="#path9_fill" transform="translate(282 1495)" fill="#E9731D"/><g transform="translate(15308 3645)"><use xlink:href="#path10_fill" transform="translate(-15197 -2150)" fill="#FFF"/><mask id="c"><use xlink:href="#path10_fill" transform="translate(-15197 -2150)" fill="#FFF"/></mask><g mask="url(#c)"><use xlink:href="#path11_fill" transform="translate(-15206.2 -2160)" fill="#E9731D"/></g></g><use xlink:href="#path8_fill" transform="translate(1294 1750)" fill="#FFF"/><use xlink:href="#path8_fill" transform="rotate(-90 1543 359)" fill="#FFF"/><g><use xlink:href="#path12_fill" transform="translate(208 899.62)" fill="#C4C4C4"/><use xlink:href="#path13_fill" transform="translate(189 878.9)" fill="#F8F8F8"/><use xlink:href="#path14_fill" transform="translate(288 814.28)" fill="#EFF88E"/><use xlink:href="#path15_fill" transform="translate(421.7 818.28)" fill="#D8E45A"/><use xlink:href="#path16_fill" transform="translate(538.2 840.42)" fill="#E3F05C"/><use xlink:href="#path17_fill" transform="translate(331.7 894.77)" fill="#EBF76D"/><use xlink:href="#path18_fill" transform="translate(328.6 910.57)" fill="#E3F05C"/><use xlink:href="#path19_fill" transform="matrix(-1 0 0 1 806.3 882.01)" fill="#EBF76D"/><use xlink:href="#path19_fill" transform="matrix(-1 0 0 1 806.3 896.36)" fill="#D5E154"/><use xlink:href="#path20_fill" transform="translate(354.2 936.75)" fill="#E3F05C"/><use xlink:href="#path21_fill" transform="translate(389.3 929.1)" fill="#BC2F2F"/><use xlink:href="#path22_fill" transform="translate(389.4 928.3)" fill="#ED4242"/><use xlink:href="#path23_fill" transform="matrix(-.72744 .68617 -.56794 -.82307 747.9 858.57)" fill="#BC2F2F"/><use xlink:href="#path24_fill" transform="matrix(-.72744 .68617 -.56794 -.82307 748.3 859.24)" fill="#ED4242"/><use xlink:href="#path25_fill" transform="translate(559.5 878.11)" fill="#B63535"/><use xlink:href="#path26_fill" transform="translate(559.3 877.31)" fill="#ED4242"/><use xlink:href="#path26_fill" transform="translate(559.3 877.31)" fill="#ED4242"/><use xlink:href="#path26_fill" transform="translate(559.3 877.31)" fill="#ED4242"/><use xlink:href="#path27_fill" transform="matrix(-.14138 .98996 -.98103 -.19384 706.4 1008.01)" fill="#B63535"/><use xlink:href="#path28_fill" transform="matrix(-.14138 .98996 -.98103 -.19384 707 1007.93)" fill="#ED4242"/><use xlink:href="#path28_fill" transform="matrix(-.14138 .98996 -.98103 -.19384 707 1007.93)" fill="#ED4242"/><use xlink:href="#path28_fill" transform="matrix(-.14138 .98996 -.98103 -.19384 707 1007.93)" fill="#ED4242"/><use xlink:href="#path29_fill" transform="matrix(-.14166 .98991 -.9811 -.19346 497.8 856.77)" fill="#B63535"/><use xlink:href="#path30_fill" transform="matrix(-.14166 .98991 -.9811 -.19346 498.4 856.67)" fill="#ED4242"/><use xlink:href="#path30_fill" transform="matrix(-.14166 .98991 -.9811 -.19346 498.4 856.67)" fill="#ED4242"/><use xlink:href="#path30_fill" transform="matrix(-.14166 .98991 -.9811 -.19346 498.4 856.67)" fill="#ED4242"/><use xlink:href="#path31_fill" transform="matrix(-.71169 .7025 -.59594 -.80303 810 1037.25)" fill="#BC2F2F"/><use xlink:href="#path32_fill" transform="translate(500.4 987.26)" fill="#785446"/><use xlink:href="#path33_fill" transform="translate(500.4 987.26)" fill="#AD7D6A"/><use xlink:href="#path34_fill" transform="matrix(.03763 .9993 -.99952 .03097 762.3 886.86)" fill="#785446"/><g><use xlink:href="#path35_fill" transform="matrix(.03763 .9993 -.99952 .03097 762.3 886.86)" fill="#AD7D6A"/></g><g><use xlink:href="#path36_fill" transform="matrix(-.88541 .4648 -.81635 -.57756 540.6 938.07)" fill="#785446"/></g><g><use xlink:href="#path37_fill" transform="matrix(-.88541 .4648 -.81635 -.57756 540.6 938.07)" fill="#AD7D6A"/></g><g><use xlink:href="#path38_fill" transform="matrix(-.79982 -.60024 -.02548 -.99967 667.8 916.89)" fill="#785446"/></g><g><use xlink:href="#path39_fill" transform="matrix(-.79982 -.60024 -.02548 -.99967 667.8 916.89)" fill="#AD7D6A"/></g><g><use xlink:href="#path40_fill" transform="matrix(-.71169 .7025 -.59594 -.80303 810.6 1038.05)" fill="#ED4242"/></g></g><g><use xlink:href="#path41_fill" transform="translate(202.5 1753.8)" fill="#C4C4C4"/><use xlink:href="#path42_fill" transform="translate(183 1732.01)" fill="#F8F8F8"/><use xlink:href="#path43_fill" transform="translate(265.6 1723.79)" fill="url(#paint54_linear)"/><use xlink:href="#path44_fill" transform="translate(353.7 1924.16)" fill="url(#paint55_linear)"/><use xlink:href="#path45_fill" transform="translate(561.9 1958.08)" fill="url(#paint56_linear)"/><use xlink:href="#path46_fill" transform="translate(757.6 1914.2)" fill="url(#paint57_linear)"/><use xlink:href="#path47_fill" transform="translate(736.4 1940.4)" fill="url(#paint58_linear)"/><use xlink:href="#path48_fill" transform="translate(749.8 1743.21)" fill="url(#paint59_linear)"/><use xlink:href="#path49_fill" transform="translate(800.4 1756.83)" fill="url(#paint60_linear)"/><use xlink:href="#path50_fill" transform="translate(530.6 1704.77)" fill="url(#paint61_linear)"/><use xlink:href="#path51_fill" transform="translate(282.6 1767.87)" fill="url(#paint62_linear)"/><use xlink:href="#path52_fill" transform="translate(327.3 1749.94)" fill="url(#paint63_linear)"/><use xlink:href="#path53_fill" transform="translate(359.2 1930.83)" fill="#FFF"/><use xlink:href="#path54_fill" transform="translate(567.2 1964.56)" fill="#FFF"/><use xlink:href="#path55_fill" transform="translate(763.4 1924.92)" fill="#FFF"/><use xlink:href="#path56_fill" transform="translate(741.1 1944.7)" fill="#FFF"/><use xlink:href="#path57_fill" transform="translate(290.1 1772.4)" fill="#FFF"/><use xlink:href="#path58_fill" transform="translate(327.4 1752.42)" fill="#FFF"/><use xlink:href="#path59_fill" transform="translate(536.4 1707.14)" fill="#FFF"/><use xlink:href="#path60_fill" transform="translate(753.1 1747.69)" fill="#FFF"/><use xlink:href="#path61_fill" transform="translate(810.1 1759.82)" fill="#FFF"/><g><use xlink:href="#path62_fill" transform="translate(272.6 1796.14)" fill="#85181F"/><use xlink:href="#path63_fill" transform="translate(273.1 1796.09)" fill="#B12029"/><use xlink:href="#path64_fill" transform="translate(659.9 1782.62)" fill="#85181F"/><use xlink:href="#path65_fill" transform="translate(660.5 1782.6)" fill="#B12029"/><use xlink:href="#path66_fill" transform="translate(420.6 1842.71)" fill="#85181F"/><use xlink:href="#path67_fill" transform="translate(420.6 1842.65)" fill="#B12029"/><use xlink:href="#path68_fill" transform="translate(575.3 1845.2)" fill="#85181F"/><use xlink:href="#path69_fill" transform="translate(577.8 1841.57)" fill="#B12029"/><use xlink:href="#path70_fill" transform="translate(361.2 1718.48)" fill="#85181F"/><use xlink:href="#path71_fill" transform="translate(364.9 1718.29)" fill="#B12029"/><use xlink:href="#path72_fill" transform="translate(575.4 1711.76)" fill="#85181F"/><use xlink:href="#path73_fill" transform="translate(575.4 1712.23)" fill="#B12029"/></g><g><use xlink:href="#path74_fill" transform="translate(375.9 1790.39)" fill="#85181F"/></g><g><use xlink:href="#path75_fill" transform="translate(454 1849.68)" fill="#85181F"/></g><g><use xlink:href="#path76_fill" transform="translate(580.7 1820.02)" fill="#85181F"/></g><g><use xlink:href="#path77_fill" transform="translate(579.9 1769.71)" fill="#85181F"/></g><g><use xlink:href="#path78_fill" transform="translate(505.3 1746.32)" fill="#85181F"/></g><g><use xlink:href="#path79_fill" transform="translate(507.5 1692.21)" fill="url(#paint90_linear)"/><use xlink:href="#path80_fill" transform="translate(537.1 1714.02)" fill="#59851F"/><use xlink:href="#path81_fill" transform="translate(523.2 1698.73)" fill="#59851F"/></g><g><use xlink:href="#path82_fill" transform="translate(409 1711.45)" fill="url(#paint93_linear)"/><use xlink:href="#path83_fill" transform="translate(456.3 1740.08)" fill="#779E39"/><use xlink:href="#path84_fill" transform="translate(438.1 1822.69)" fill="#59851F"/><use xlink:href="#path85_fill" transform="translate(460.5 1832.59)" fill="#59851F"/><use xlink:href="#path86_fill" transform="translate(462.7 1837.06)" fill="#59851F"/><use xlink:href="#path87_fill" transform="translate(500 1838.7)" fill="#59851F"/><use xlink:href="#path88_fill" transform="translate(535.1 1812.82)" fill="#59851F"/><use xlink:href="#path89_fill" transform="translate(495.4 1846.6)" fill="#59851F"/><use xlink:href="#path90_fill" transform="translate(479.1 1812.82)" fill="#59851F"/><use xlink:href="#path91_fill" transform="translate(470 1814.64)" fill="#59851F"/><use xlink:href="#path92_fill" transform="translate(414.9 1760.72)" fill="#59851F"/><use xlink:href="#path93_fill" transform="translate(409 1776.78)" fill="#59851F"/><use xlink:href="#path94_fill" transform="translate(419.4 1784.97)" fill="#59851F"/><use xlink:href="#path95_fill" transform="translate(431.4 1810.32)" fill="#59851F"/><use xlink:href="#path96_fill" transform="translate(441.1 1745.45)" fill="#59851F"/><use xlink:href="#path97_fill" transform="translate(445.1 1740.96)" fill="#59851F"/><use xlink:href="#path98_fill" transform="translate(460.5 1748.14)" fill="#59851F"/><use xlink:href="#path99_fill" transform="translate(462.6 1731.98)" fill="#7BB334"/><use xlink:href="#path100_fill" transform="translate(469.4 1728.09)" fill="#7BB334"/><use xlink:href="#path101_fill" transform="translate(494.1 1748.86)" fill="#7BB334"/><use xlink:href="#path102_fill" transform="translate(509.1 1762.52)" fill="#7BB334"/><use xlink:href="#path103_fill" transform="translate(494 1767.93)" fill="#7BB334"/><use xlink:href="#path104_fill" transform="translate(470.9 1767.03)" fill="#7BB334"/><use xlink:href="#path105_fill" transform="translate(481 1775.09)" fill="#7BB334"/><use xlink:href="#path106_fill" transform="translate(434.7 1747.24)" fill="#7BB334"/><use xlink:href="#path107_fill" transform="translate(414.2 1770.6)" fill="#7BB334"/><use xlink:href="#path108_fill" transform="translate(423.8 1801.15)" fill="#7BB334"/></g><g><use xlink:href="#path109_fill" transform="translate(542.7 1740.96)" fill="url(#paint120_linear)"/><use xlink:href="#path110_fill" transform="translate(544.8 1752.7)" fill="#779E39"/><use xlink:href="#path111_fill" transform="translate(632.2 1822.71)" fill="#59851F"/><use xlink:href="#path112_fill" transform="translate(657.5 1805.66)" fill="#59851F"/><use xlink:href="#path113_fill" transform="translate(662.8 1786.77)" fill="#59851F"/><use xlink:href="#path114_fill" transform="translate(627.6 1761.62)" fill="#59851F"/><use xlink:href="#path115_fill" transform="translate(573.2 1795.78)" fill="#59851F"/><use xlink:href="#path116_fill" transform="translate(643.3 1756.23)" fill="#7BB334"/><use xlink:href="#path117_fill" transform="translate(688.3 1782.3)" fill="#7BB334"/><use xlink:href="#path118_fill" transform="translate(684.4 1819.12)" fill="#7BB334"/><use xlink:href="#path119_fill" transform="translate(674 1834.23)" fill="#7BB334"/><use xlink:href="#path120_fill" transform="translate(656.8 1832.59)" fill="#7BB334"/><use xlink:href="#path121_fill" transform="translate(621 1829.87)" fill="#7BB334"/><use xlink:href="#path122_fill" transform="translate(574 1767.03)" fill="#7BB334"/></g><g><use xlink:href="#path123_fill" transform="translate(476 1608)" fill="#659425"/><use xlink:href="#path124_fill" transform="translate(562.7 1636.79)" fill="#659425"/><use xlink:href="#path125_fill" transform="translate(482.9 1637.6)" fill="#59851F"/></g><g><use xlink:href="#path126_fill" transform="translate(552.1 1682.77)" fill="#CC4B41"/></g><g><use xlink:href="#path127_fill" transform="translate(502.2 1737.96)" fill="url(#paint138_linear)"/><use xlink:href="#path128_fill" transform="translate(498.9 1792.77)" fill="url(#paint139_linear)"/><use xlink:href="#path129_fill" transform="translate(470.1 1764.15)" fill="url(#paint140_linear)"/><use xlink:href="#path130_fill" transform="translate(464.9 1784.88)" fill="url(#paint141_linear)"/><use xlink:href="#path131_fill" transform="translate(543.1 1787.88)" fill="url(#paint142_linear)"/><use xlink:href="#path132_fill" transform="translate(573.6 1745.09)" fill="url(#paint143_linear)"/><use xlink:href="#path133_fill" transform="translate(637.8 1784.87)" fill="url(#paint144_linear)"/><use xlink:href="#path134_fill" transform="translate(494.4 1746.12)" fill="url(#paint145_linear)"/><use xlink:href="#path135_fill" transform="translate(561.8 1773.1)" fill="url(#paint146_linear)"/><use xlink:href="#path136_fill" transform="translate(585.2 1783.11)" fill="url(#paint147_linear)"/><use xlink:href="#path137_fill" transform="translate(618.7 1810.09)" fill="url(#paint148_linear)"/><use xlink:href="#path138_fill" transform="translate(520.7 1742.76)" fill="#FC4C00"/><use xlink:href="#path139_fill" transform="translate(485.6 1768.77)" fill="#FC4C00"/><use xlink:href="#path140_fill" transform="translate(470.8 1788.51)" fill="#FC4C00"/><use xlink:href="#path141_fill" transform="translate(509.4 1798.3)" fill="#FC4C00"/><use xlink:href="#path142_fill" transform="translate(550 1789.84)" fill="#FC4C00"/><use xlink:href="#path143_fill" transform="translate(567.9 1776.59)" fill="#FC4C00"/><use xlink:href="#path144_fill" transform="translate(589.1 1761.47)" fill="#FC4C00"/><use xlink:href="#path145_fill" transform="translate(595.5 1789.25)" fill="#FC4C00"/><use xlink:href="#path146_fill" transform="translate(624.6 1815.38)" fill="#FC4C00"/><use xlink:href="#path147_fill" transform="translate(646.1 1791.94)" fill="#FC4C00"/></g><g><use xlink:href="#path148_fill" transform="translate(244.8 1791.29)" fill="#659425"/><use xlink:href="#path149_fill" transform="translate(321.5 1933.7)" fill="#659425"/><use xlink:href="#path150_fill" transform="translate(422.3 1966.47)" fill="#659425"/><use xlink:href="#path151_fill" transform="translate(619.4 1961.05)" fill="#659425"/><use xlink:href="#path152_fill" transform="translate(790.4 1905.4)" fill="#659425"/><use xlink:href="#path153_fill" transform="translate(871.8 1786.32)" fill="#659425"/><use xlink:href="#path154_fill" transform="translate(893.4 1815.97)" fill="#659425"/><use xlink:href="#path155_fill" transform="translate(797.1 1733.72)" fill="#659425"/><use xlink:href="#path156_fill" transform="translate(723.5 1703.55)" fill="#659425"/><use xlink:href="#path157_fill" transform="translate(346.3 1717.62)" fill="#659425"/><use xlink:href="#path158_fill" transform="translate(688.7 1696.04)" fill="#659425"/></g></g><g><use xlink:href="#path159_fill" transform="matrix(1.33333 0 0 -1.33333 1714.3 1364.91)" fill="#FFF"/><use xlink:href="#path160_fill" transform="matrix(1.33333 0 0 -1.33333 1446.6 1820.15)" fill="#FFF"/><use xlink:href="#path161_fill" transform="matrix(1.33333 0 0 -1.33333 1743.7 1814.59)" fill="#D1D3D4"/><use xlink:href="#path162_fill" transform="matrix(1.33333 0 0 -1.33333 1467.5 1718.09)" fill="#D1D3D4"/><use xlink:href="#path163_fill" transform="matrix(1.33333 0 0 -1.33333 1929 1606.48)" fill="#D1D3D4"/><use xlink:href="#path164_fill" transform="matrix(1.33333 0 0 -1.33333 1446.2 1473.18)" fill="#D1D3D4"/><use xlink:href="#path165_fill" transform="matrix(1.33333 0 0 -1.33333 1439 1458.13)" fill="#231F20"/><use xlink:href="#path166_fill" transform="matrix(1.33333 0 0 -1.33333 1661 1280.88)" fill="#231F20"/><use xlink:href="#path167_fill" transform="matrix(1.33333 0 0 -1.33333 1457.1 1830)" fill="#231F20"/><use xlink:href="#path168_fill" transform="matrix(1.33333 0 0 -1.33333 1919.1 1610.15)" fill="#231F20"/><use xlink:href="#path169_fill" transform="matrix(1.33333 0 0 -1.33333 1747.4 1761.93)" fill="#231F20"/><use xlink:href="#path170_fill" transform="matrix(1.33333 0 0 -1.33333 1676.6 1311.8)" fill="#D1D3D4"/><use xlink:href="#path171_fill" transform="matrix(1.33333 0 0 -1.33333 1781.9 1289.45)" fill="#D1D3D4"/><use xlink:href="#path172_fill" transform="matrix(1.33333 0 0 -1.33333 1803.2 1356.32)" fill="#D1D3D4"/><use xlink:href="#path173_fill" transform="matrix(1.33333 0 0 -1.33333 1876.3 1340.81)" fill="#D1D3D4"/></g><defs><linearGradient id="paint54_linear" x2="1" gradientUnits="userSpaceOnUse" gradientTransform="matrix(612.127 0 0 736.709 .024 -610.644)"><stop offset="0" stop-color="#E3AC3B"/><stop offset="1" stop-color="#C7A910"/></linearGradient><linearGradient id="paint55_linear" x2="1" gradientUnits="userSpaceOnUse" gradientTransform="matrix(43.2936 0 0 52.1049 .778 -32.151)"><stop offset="0" stop-color="#E3AC3B"/><stop offset="1" stop-color="#C7A910"/></linearGradient><linearGradient id="paint56_linear" x2="1" gradientUnits="userSpaceOnUse" gradientTransform="matrix(37.3221 0 0 44.918 .144 -28.827)"><stop offset="0" stop-color="#E3AC3B"/><stop offset="1" stop-color="#C7A910"/></linearGradient><linearGradient id="paint57_linear" x2="1" gradientUnits="userSpaceOnUse" gradientTransform="matrix(40.3079 0 0 48.5114 .015 -30.527)"><stop offset="0" stop-color="#E3AC3B"/><stop offset="1" stop-color="#C7A910"/></linearGradient><linearGradient id="paint58_linear" x2="1" gradientUnits="userSpaceOnUse" gradientTransform="matrix(19.7658 0 0 23.7886 .124 -15.218)"><stop offset="0" stop-color="#E3AC3B"/><stop offset="1" stop-color="#C7A910"/></linearGradient><linearGradient id="paint59_linear" x2="1" gradientUnits="userSpaceOnUse" gradientTransform="matrix(42.9353 0 0 51.6737 -.25 -35.613)"><stop offset="0" stop-color="#E3AC3B"/><stop offset="1" stop-color="#C7A910"/></linearGradient><linearGradient id="paint60_linear" x2="1" gradientUnits="userSpaceOnUse" gradientTransform="matrix(33.9631 0 0 40.8754 .603 -30.72)"><stop offset="0" stop-color="#E3AC3B"/><stop offset="1" stop-color="#C7A910"/></linearGradient><linearGradient id="paint61_linear" x2="1" gradientUnits="userSpaceOnUse" gradientTransform="matrix(33.2167 0 0 39.977 -.16 -29.01)"><stop offset="0" stop-color="#E3AC3B"/><stop offset="1" stop-color="#C7A910"/></linearGradient><linearGradient id="paint62_linear" x2="1" gradientUnits="userSpaceOnUse" gradientTransform="matrix(53.3781 0 0 64.2417 .386 -48.445)"><stop offset="0" stop-color="#E3AC3B"/><stop offset="1" stop-color="#C7A910"/></linearGradient><linearGradient id="paint63_linear" x2="1" gradientUnits="userSpaceOnUse" gradientTransform="matrix(13.8092 0 0 16.6197 .153 -10.261)"><stop offset="0" stop-color="#E3AC3B"/><stop offset="1" stop-color="#C7A910"/></linearGradient><linearGradient id="paint90_linear" x2="1" gradientUnits="userSpaceOnUse" gradientTransform="matrix(-114.947 -36.3873 30.234 -138.341 73.505 203.461)"><stop offset="0" stop-color="#669624"/><stop offset="1" stop-color="#648F29"/></linearGradient><linearGradient id="paint93_linear" x2="1" gradientUnits="userSpaceOnUse" gradientTransform="matrix(173.927 -81.3001 71.977 207.252 -60.636 -84.37)"><stop offset="0" stop-color="#669624"/><stop offset="1" stop-color="#648F29"/></linearGradient><linearGradient id="paint120_linear" x2="1" gradientUnits="userSpaceOnUse" gradientTransform="matrix(-154.127 -12.5857 12.22 -185.352 146.747 253.882)"><stop offset="0" stop-color="#669624"/><stop offset="1" stop-color="#648F29"/></linearGradient><linearGradient id="paint138_linear" x2="1" gradientUnits="userSpaceOnUse" gradientTransform="matrix(64.5672 0 0 77.7081 -.175 -43.912)"><stop offset="0" stop-color="#D13506"/><stop offset="1" stop-color="#942B04"/></linearGradient><linearGradient id="paint139_linear" x2="1" gradientUnits="userSpaceOnUse" gradientTransform="matrix(38.0685 0 0 45.8163 .01 -30.235)"><stop offset="0" stop-color="#D13506"/><stop offset="1" stop-color="#942B04"/></linearGradient><linearGradient id="paint140_linear" x2="1" gradientUnits="userSpaceOnUse" gradientTransform="matrix(46.2794 0 0 55.6983 .053 -38.633)"><stop offset="0" stop-color="#D13506"/><stop offset="1" stop-color="#942B04"/></linearGradient><linearGradient id="paint141_linear" x2="1" gradientUnits="userSpaceOnUse" gradientTransform="matrix(32.097 0 0 38.6295 .423 -20.94)"><stop offset="0" stop-color="#D13506"/><stop offset="1" stop-color="#942B04"/></linearGradient><linearGradient id="paint142_linear" x2="1" gradientUnits="userSpaceOnUse" gradientTransform="matrix(33.5899 0 0 40.4262 -.167 -27.375)"><stop offset="0" stop-color="#D13506"/><stop offset="1" stop-color="#942B04"/></linearGradient><linearGradient id="paint143_linear" x2="1" gradientUnits="userSpaceOnUse" gradientTransform="matrix(65.6869 0 0 79.0557 .298 -52.38)"><stop offset="0" stop-color="#D13506"/><stop offset="1" stop-color="#942B04"/></linearGradient><linearGradient id="paint144_linear" x2="1" gradientUnits="userSpaceOnUse" gradientTransform="matrix(27.2451 0 0 32.7901 .18 -21.358)"><stop offset="0" stop-color="#D13506"/><stop offset="1" stop-color="#942B04"/></linearGradient><linearGradient id="paint145_linear" x2="1" gradientUnits="userSpaceOnUse" gradientTransform="matrix(17.5414 0 0 21.1115 -.14 -15.567)"><stop offset="0" stop-color="#D13506"/><stop offset="1" stop-color="#942B04"/></linearGradient><linearGradient id="paint146_linear" x2="1" gradientUnits="userSpaceOnUse" gradientTransform="matrix(35.0828 0 0 42.2229 -.211 -30.381)"><stop offset="0" stop-color="#D13506"/><stop offset="1" stop-color="#942B04"/></linearGradient><linearGradient id="paint147_linear" x2="1" gradientUnits="userSpaceOnUse" gradientTransform="matrix(43.6668 0 0 52.554 .47 -31.657)"><stop offset="0" stop-color="#D13506"/><stop offset="1" stop-color="#942B04"/></linearGradient><linearGradient id="paint148_linear" x2="1" gradientUnits="userSpaceOnUse" gradientTransform="matrix(20.9004 0 0 25.1541 .034 -9.642)"><stop offset="0" stop-color="#D13506"/><stop offset="1" stop-color="#942B04"/></linearGradient><path id="path0_fill" d="M0 200C0 89.543 89.543 0 200 0h1286c110.46 0 200 89.543 200 200v2550c0 110.46-89.54 200-200 200H200c-110.457 0-200-89.54-200-200V200z"/><path id="path1_fill" d="M0 90.984C0 40.735 40.735 0 90.984 0h206.112c50.25 0 90.985 40.735 90.985 90.984 0 50.25-40.735 90.985-90.985 90.985H90.984C40.735 181.969 0 141.234 0 90.985z"/><path id="path2_stroke_2x" d="M90.984 20h206.112v-40H90.984v40zm206.112 141.969H90.984v40h206.112v-40zm-206.112 0C51.781 161.969 20 130.188 20 90.985h-40c0 61.295 49.69 110.984 110.984 110.984v-40zm277.097-70.984c0 39.203-31.781 70.984-70.985 70.984v40c61.295 0 110.985-49.689 110.985-110.984h-40zM297.096 20c39.204 0 70.985 31.78 70.985 70.984h40C408.081 29.69 358.391-20 297.096-20v40zM90.984-20C29.69-20-20 29.69-20 90.984h40C20 51.781 51.78 20 90.984 20v-40z"/><path id="path3_fill" d="M0 100C0 44.772 44.772 0 100 0h1394.33c55.22 0 100 44.772 100 100v2206.24c0 55.23-44.78 100-100 100H100c-55.228 0-100-44.77-100-100V100z"/><path id="path4_fill" d="M0 18.84C0 8.435 8.435 0 18.84 0h447.421c10.405 0 18.84 8.435 18.84 18.84s-8.435 18.84-18.84 18.84H18.841C8.434 37.68 0 29.245 0 18.84z"/><path id="path5_fill" d="M1406 622V120c0-66.274-48.77-120-108.92-120H108.922C48.766 0 0 53.726 0 120v502c0 66.274 48.766 120 108.922 120H1297.08c60.15 0 108.92-53.726 108.92-120z"/><path id="path6_fill" d="M0 120C0 53.726 49.866 0 111.378 0h720.244C893.134 0 943 53.726 943 120v502c0 66.274-49.866 120-111.378 120H111.378C49.866 742 0 688.274 0 622V120z"/><path id="path7_fill" d="M120.659 20h720.245V0H120.659v20zM943 130v502h18.563V130H943zM840.904 742H120.659v20h720.245v-20zM18.563 632V130H0v502h18.563zm102.096 110c-56.386 0-102.096-49.249-102.096-110H0c0 71.797 54.021 130 120.659 130v-20zM943 632c0 60.751-45.71 110-102.096 110v20c66.638 0 120.659-58.203 120.659-130H943zM840.904 20C897.29 20 943 69.249 943 130h18.563c0-71.797-54.021-130-120.659-130v20zM120.659 0C54.021 0 0 58.203 0 130h18.563c0-60.751 45.71-110 102.096-110V0z"/><path id="path8_fill" d="M0 21C0 9.402 9.402 0 21 0s21 9.402 21 21v220c0 11.598-9.402 21-21 21s-21-9.402-21-21V21z"/><path id="path9_fill" d="M1297 622V120c0-66.274-44.99-120-100.48-120H100.478C44.985 0 0 53.726 0 120v502c0 66.274 44.985 120 100.478 120H1196.52c55.49 0 100.48-53.726 100.48-120z"/><path id="path10_fill" d="M0 120C0 53.726 49.39 0 110.315 0h713.37C884.61 0 934 53.726 934 120v502c0 66.274-49.39 120-110.315 120h-713.37C49.39 742 0 688.274 0 622V120z"/><path id="path11_fill" d="M119.508 20h713.37V0h-713.37v20zM934 130v502h18.386V130H934zM832.878 742h-713.37v20h713.37v-20zM18.386 632V130H0v502h18.386zm101.122 110C63.66 742 18.386 692.751 18.386 632H0c0 71.797 53.505 130 119.508 130v-20zM934 632c0 60.751-45.274 110-101.122 110v20c66.002 0 119.508-58.203 119.508-130H934zM832.878 20C888.726 20 934 69.249 934 130h18.386c0-71.797-53.506-130-119.508-130v20zM119.508 0C53.506 0 0 58.203 0 130h18.386c0-60.751 45.274-110 101.122-110V0z"/><path id="path12_fill" d="M733.288 152.19c0 84.052-164.152 152.189-366.644 152.189C164.152 304.379 0 236.242 0 152.19 0 68.138 164.152 0 366.644 0c202.492 0 366.644 68.138 366.644 152.19z"/><path id="path13_fill" d="M766 139.441c0 77.011-171.475 139.44-383 139.44S0 216.452 0 139.441 171.475 0 383 0s383 62.43 383 139.441z"/><path id="path14_fill" d="M167.453 28.762c8.858-23.109 36.346-7.968 45.66 0C313.294-12.671 392.346.076 442.776 9.637c40.345 7.65 34.075 33.467 25.897 45.42 53.974 11.474 43.843 58.962 32.03 81.273 27.714 10.092 74.828 44.143 41.571 99.599 38.846 61.355-108.358 40.638-166.284 57.371-46.342 13.386-164.695-5.578-218.079-16.733C15.615 288.04-5.874 227.696 1.168 196.09c-2.045-13.811 2.861-37.45 38.845-21.514-4.77-16.998-3.544-47.011 39.526-31.076-13.857-14.076-33.257-44.143 0-51.792 5.452 9.562-4.77-50.197 41.572-36.652-2.044-39.84 37.483-3.186 46.342-26.294z"/><path id="path15_fill" d="M108.808 65.112l1.523-4.564-1.523 4.564zm40.891-47.808l.666 4.8-.666-4.8zM12.308 62.356c-2.582-4.066-3.612-7.61-3.322-9.892.11-1.303.243-1.668 1.257-2.535.848-.825 2.403-1.773 5.173-2.422 5.63-1.321 15.13-1.15 30.21 2.15 15.093 3.298 35.087 9.554 61.66 20.019l3.045-9.128c-26.856-10.57-47.49-17.024-62.939-20.409-15.46-3.383-26.414-3.87-33.863-2.122-3.77.884-6.91 2.402-9.253 4.685-2.178 2.242-3.731 5.63-4.144 8.435-.754 5.934 1.834 12.032 4.818 16.731l7.358-5.512zm94.978 7.32c33.253 13.089 54.24 23.125 66.095 30.523 5.982 3.728 9.015 6.421 10.178 8.053.585.822.193.675.261-.189.09-1.159.803-1.605.652-1.508-.701.453-3.048 1.1-7.805 1.106-4.556.012-10.255-.533-17.081-1.634-13.741-2.209-31.029-6.554-49.431-12.875l-2.693 9.258c18.739 6.429 36.719 10.947 50.813 13.221 7.091 1.14 13.452 1.741 18.402 1.739 4.75-.006 9.355-.53 12.359-2.467 1.703-1.098 3.457-3.044 3.689-6.017.21-2.676-.939-4.949-2.096-6.574-2.322-3.26-6.716-6.743-12.799-10.534-12.273-7.642-33.965-18.024-67.499-31.23l-3.045 9.128zm2.869 23.476C91.803 86.853 79.671 79.914 73.05 73.178c-3.276-3.333-4.978-6.386-5.622-9.043-.785-2.885-.535-4.914.957-7.846 2.822-5.86 10.528-12.472 24.57-18.686 13.975-6.196 32.986-11.504 57.41-15.499l-1.333-9.6c-24.873 4.082-44.907 9.685-59.449 16.108-14.474 6.405-24.756 14.122-29.118 23.176-2.1 4.524-2.74 10.098-1.68 14.82 1.2 4.952 4.08 9.511 8.155 13.656 8.08 8.22 21.733 15.696 40.522 22.146l2.693-9.258zm40.21-71.048c53.585-8.78 118.202-16.014 154.169-10.452 8.988 1.39 15.68 3.513 19.895 6.248 4.022 2.61 5.179 5.277 4.92 8.245-.323 3.686-2.91 9.256-9.919 17.008-6.985 7.739-17.479 16.73-32.484 27.468l4.918 8.106c15.32-10.974 26.55-20.609 33.943-28.772 7.369-8.15 11.815-15.758 12.44-22.89.688-7.852-3.292-13.644-9.235-17.5-5.749-3.73-13.848-6.076-23.217-7.525-37.464-5.793-103.353 1.713-156.763 10.464l1.333 9.6z"/><path id="path16_fill" d="M21.526 16.174l-1.162-4.687 1.162 4.687zm89.868 24.67c-26.684-3.865-62.661-7.2-85.01-11.563-5.546-1.08-10.048-2.17-13.44-3.362-1.647-.572-2.758-1.05-3.674-1.598-.911-.537-.877-.734-.67-.365.45.803.435 1.944.048 2.673-.16.301-.104.005 1.004-.704 2.118-1.356 6.215-3.07 13.035-5.063l-2.323-9.375c-6.937 2.027-12.029 4.01-15.252 6.075-1.563 1-3.215 2.346-4.211 4.225-1.222 2.308-1.202 4.963.068 7.224 1.025 1.827 2.66 3.031 4.042 3.845 1.377.802 3.253 1.623 5.194 2.305 3.784 1.318 8.868 2.557 14.6 3.676 22.757 4.431 58.933 7.793 85.406 11.63l1.183-9.623zM22.687 20.862C50.308 12.775 73.76 9.815 92.255 9.712c18.5-.11 31.157 2.698 37.065 5.764 1.426.726 2.074 1.177 2.586 1.778.36.398-.098.099-.055-.83.044-.962.557-1.226.162-.886-.402.347-1.308.911-3.004 1.512-6.925 2.453-21.996 3.843-47.123 1.46l-.777 9.672c25.302 2.4 41.92 1.199 50.671-1.901 2.222-.787 4.234-1.796 5.791-3.14 1.565-1.349 3.078-3.419 3.207-6.234.128-2.783-1.16-4.983-2.503-6.465-1.193-1.279-3.121-2.685-5.103-3.727C125.451 2.709 111.187-.11 92.206.003 73.218.124 48.626 3.24 20.365 11.487l2.322 9.375z"/><path id="path17_fill" d="M60.772 146.017l.866-4.763-.32-.068-.324-.018-.222 4.849zm153.334-14.343l-2.062-4.307 2.062 4.307zM338.82 32.87l2.159 4.25-2.159-4.25zm70.875 138.644l1.218-4.67-1.218 4.67zM232.4 78.204c-18.951-22.546-51.933-52.42-88.174-67.863C107.652-5.176 66.573-6.496 32.446 29.38l6.216 6.977C69.414 4.03 106.365 4.701 140.975 19.384c34.941 14.755 66.292 43.287 84.823 65.363l6.602-6.544zM32.446 29.381C-.65 64.177-5.706 94.228 5.146 116.495c10.468 21.477 34.738 33.253 55.403 34.369l.445-9.696c-18.634-1.008-39.412-11.702-47.948-29.215-8.15-16.724-6.164-42.184 25.616-75.595l-6.216-6.976zm27.46 121.397c18.496 3.969 49.094 4.98 79.034 2.73 29.797-2.241 59.982-7.783 77.229-17.529l-4.125-8.613c-15.465 8.74-44.003 14.222-73.721 16.456-29.577 2.224-59.29 1.165-76.685-2.569l-1.733 9.525zm156.263-14.799c20.794-11.774 45.685-32.767 68.457-52.61 22.998-20.042 43.505-38.546 56.353-46.25l-4.32-8.5c-13.729 8.232-35.134 27.576-57.626 47.176-22.718 19.798-46.895 40.238-66.989 51.571l4.125 8.613zm124.81-98.86c10.906-6.54 35.34-21.114 63.055-24.76 27.277-3.671 57.321 3.168 80.362 39.215l7.342-5.537c-25.345-39.65-59.01-47.323-88.803-43.312-29.354 4.038-55.35 19.344-66.276 25.894l4.32 8.5zm143.417 14.455c23.622 36.955 25.833 72.413 12.837 94.844-12.834 22.15-42.02 34.056-86.32 20.425l-2.436 9.34c46.339 14.258 80.532 2.658 96.321-24.595 15.626-26.97 11.703-66.81-13.06-105.551l-7.342 5.537zm-73.483 115.269c-71.163-21.896-92.22-67.574-94.234-85.943l-8.876 1.148c2.53 23.065 26.815 71.41 100.674 94.135l2.436-9.34z"/><path id="path18_fill" d="M60.772 146.017l.866-4.763-.32-.068-.324-.018-.222 4.849zm153.334-14.343l-2.062-4.307 2.062 4.307zM338.82 32.87l2.159 4.25-2.159-4.25zm70.875 138.644l1.218-4.67-1.218 4.67zM232.4 78.204c-18.951-22.546-51.933-52.42-88.174-67.863C107.652-5.176 66.573-6.496 32.446 29.38l6.216 6.977C69.414 4.03 106.365 4.701 140.975 19.384c34.941 14.755 66.292 43.287 84.823 65.363l6.602-6.544zM32.446 29.381C-.65 64.177-5.706 94.228 5.146 116.495c10.468 21.477 34.738 33.253 55.403 34.369l.445-9.696c-18.634-1.008-39.412-11.702-47.948-29.216-8.15-16.723-6.164-42.183 25.616-75.594l-6.216-6.976zm27.46 121.397c18.496 3.969 49.094 4.98 79.034 2.73 29.797-2.241 59.982-7.783 77.229-17.529l-4.125-8.613c-15.466 8.74-44.003 14.222-73.721 16.456-29.577 2.224-59.29 1.164-76.685-2.569l-1.733 9.525zm156.263-14.799c20.794-11.774 45.685-32.768 68.457-52.61 22.998-20.042 43.505-38.546 56.353-46.25l-4.32-8.5c-13.729 8.232-35.134 27.576-57.626 47.176-22.718 19.798-46.895 40.238-66.989 51.571l4.125 8.613zm124.81-98.86c10.906-6.54 35.34-21.114 63.055-24.76 27.277-3.671 57.321 3.168 80.362 39.215l7.342-5.537c-25.345-39.65-59.01-47.323-88.803-43.312-29.354 4.038-55.35 19.344-66.276 25.894l4.32 8.5zm143.417 14.455c23.622 36.955 25.834 72.413 12.837 94.844-12.834 22.15-42.02 34.055-86.32 20.425l-2.436 9.34c46.339 14.258 80.532 2.658 96.321-24.595 15.626-26.97 11.703-66.81-13.06-105.551l-7.342 5.537zm-73.483 115.269c-71.164-21.896-92.22-67.574-94.234-85.943l-8.876 1.148c2.53 23.065 26.815 71.41 100.674 94.135l2.436-9.34z"/><path id="path19_fill" d="M60.772 146.017l.866-4.763-.32-.068-.324-.018-.222 4.849zm153.334-14.343l-2.062-4.307 2.062 4.307zM338.82 32.87l2.159 4.25-2.159-4.25zm70.875 138.644l1.218-4.67-1.218 4.67zM232.4 78.204c-18.951-22.546-51.933-52.42-88.174-67.863C107.652-5.176 66.573-6.496 32.446 29.38l6.216 6.977C69.414 4.03 106.365 4.701 140.975 19.384c34.941 14.755 66.292 43.287 84.823 65.363l6.602-6.544zM32.446 29.381C-.65 64.177-5.706 94.228 5.146 116.495c10.468 21.477 34.738 33.253 55.403 34.369l.445-9.696c-18.634-1.008-39.412-11.702-47.948-29.215-8.15-16.724-6.164-42.184 25.616-75.595l-6.216-6.976zm27.46 121.397c18.496 3.969 49.094 4.98 79.034 2.73 29.797-2.241 59.982-7.783 77.229-17.529l-4.125-8.613c-15.466 8.74-44.003 14.222-73.721 16.456-29.577 2.224-59.29 1.165-76.685-2.569l-1.733 9.525zm156.263-14.799c20.794-11.774 45.685-32.767 68.457-52.61 22.998-20.042 43.505-38.546 56.353-46.25l-4.32-8.5c-13.729 8.232-35.134 27.576-57.626 47.176-22.718 19.798-46.895 40.238-66.989 51.571l4.125 8.613zm124.81-98.86c10.906-6.54 35.34-21.114 63.055-24.76 27.277-3.671 57.321 3.168 80.362 39.215l7.342-5.537c-25.345-39.65-59.01-47.323-88.803-43.312-29.354 4.038-55.35 19.344-66.276 25.894l4.32 8.5zm143.417 14.455c23.622 36.955 25.834 72.413 12.837 94.844-12.834 22.15-42.02 34.056-86.32 20.425l-2.436 9.34c46.339 14.258 80.532 2.658 96.321-24.595 15.626-26.97 11.703-66.81-13.06-105.551l-7.342 5.537zm-73.483 115.269c-71.164-21.896-92.22-67.574-94.234-85.943l-8.876 1.148c2.53 23.065 26.815 71.41 100.674 94.135l2.436-9.34z"/><path id="path20_fill" d="M5.885 83.99l4.425-.68-4.425.68zm89.276-73.307l1.102-4.704-1.102 4.704zm243.296 9.562l.982 4.735-.982-4.735zm73.601 0L409.91 24.5l2.148-4.256zm-16.356 101.991l-1.276-4.652 1.276 4.652zm-181.497-18.775c-1.74 2.623-5.788 5.542-12.613 8.248-6.764 2.692-15.253 4.816-25.239 6.444-20.062 3.288-44.836 4.278-69.429 2.745-24.588-1.521-48.36-5.498-66.568-12.258-9.032-3.334-16.211-7.1-21.552-11.67C13.63 92.576 10.92 88 10.31 83.31l-8.85 1.36c1.042 8.006 5.556 14.614 11.838 19.948 6.116 5.159 14.625 9.667 24.175 13.212 18.958 6.999 43.925 11.202 68.942 12.761 25.011 1.547 50.707.516 71.268-2.837 10.327-1.692 19.688-4.045 26.974-6.924 7.225-2.865 13.428-6.613 16.799-11.693l-7.251-5.676zM10.31 83.311c-4.668-35.876 2.861-55.837 16.778-65.54 14.436-10.065 37.523-10.529 66.97-2.384l2.205-9.408C66.32-2.304 40-2.768 22.26 9.6 4.002 22.33-3.41 47.237 1.46 84.669l8.85-1.359zm83.748-67.924c30.825 8.42 51.717 26.246 71.602 42.41 19.736 16.043 38.912 31.047 65.121 31.047v-9.709c-22.859 0-39.803-12.884-59.766-29.111-19.813-16.106-42.197-34.934-74.752-44.045l-2.205 9.408zm136.723 73.457c26.178 0 46.819-15.12 64.06-30.263 8.649-7.6 16.542-15.298 24.036-21.488 7.524-6.221 14.215-10.56 20.562-12.113l-1.964-9.47c-8.305 2.031-16.266 7.454-24.012 13.857-7.776 6.434-15.77 14.224-24.243 21.665-17.004 14.936-35.549 28.103-58.439 28.103v9.709zm108.658-63.863c6.716-1.665 12.214-4.195 16.987-6.484 4.777-2.291 8.775-4.31 13.274-5.377 8.402-2.042 19.322-1.06 40.21 11.381l4.297-8.513c-21.827-13-35.062-15.112-46.459-12.342-5.399 1.34-10.212 3.705-14.933 5.97-4.723 2.266-9.41 4.463-15.34 5.893l1.964 9.471zm70.471-.48c16.565 9.867 25.813 28.957 24.493 47.496-1.296 18.199-12.896 36.823-39.977 45.587l2.552 9.305c30.075-9.733 44.713-31.348 46.336-54.143 1.599-22.454-9.553-45.11-29.107-56.757L409.91 24.5zm-15.484 93.083c-75.876 24.554-175.671 30.453-243.475-23.177l-5.262 7.848c71.217 56.329 174.511 49.479 251.289 24.634l-2.552-9.305z"/><path id="path21_fill" d="M14.385 70.119C-5.242 52.908-.608 16.202 4.163 0c0 34.263 20.898 53.12 33.392 56.573L14.385 70.12z"/><path id="path22_fill" d="M14.385 70.119C-5.242 52.908-.608 16.202 4.163 0c0 34.263 14.765 57.104 27.259 60.557L14.385 70.12z"/><path id="path23_fill" d="M15.39 66.304C-5.607 50.029-.65 15.32 4.455 0c0 32.398 22.36 50.23 35.727 53.495L15.39 66.304z"/><path id="path24_fill" d="M15.39 66.304C-5.607 50.029-.65 15.32 4.455 0c0 32.398 15.797 53.997 29.165 57.262L15.39 66.304z"/><path id="path25_fill" d="M31.578 67.728s-21.808-43.027 0-57.37L13.855 0C.905 15.936-8.826 55.974 12.492 79.68 25.11 66.52 31.578 67.728 31.578 67.728z"/><path id="path26_fill" d="M24.976 68.525S5.893 26.295 27.7 11.952L14.07 0C1.12 15.936-8.96 57.978 12.359 81.685l12.618-13.16z"/><path id="path27_fill" d="M25.726 40.488s-17.767-25.722 0-34.296L11.288 0C.738 9.527-7.191 33.46 10.177 47.633c10.28-7.867 15.549-7.145 15.549-7.145z"/><path id="path28_fill" d="M20.348 40.964s-15.547-25.245 2.22-33.82L11.462 0C.913 9.527-7.299 34.66 10.068 48.83l10.28-7.866z"/><path id="path29_fill" d="M30.405 47.942s-20.998-30.457 0-40.61L13.34 0C.872 11.28-8.499 39.622 12.028 56.403c12.15-9.316 18.377-8.46 18.377-8.46z"/><path id="path30_fill" d="M24.049 48.506S5.674 18.613 26.672 8.46L13.548 0C1.08 11.28-8.627 41.04 11.9 57.822l12.15-9.316z"/><path id="path31_fill" d="M18.799 80.105C-6.851 60.443-.794 18.509 5.44 0c0 39.142 27.31 60.686 43.638 64.63l-30.28 15.475z"/><path id="path32_fill" d="M1.442 71.712C-9.462 55.776 44.149 17.264 72.317 0c0 12.483 17.992 38.565 27.26 49.402 9.267 10.836-28.623 34.528-40.89 39.043-14.538 4.516-46.341-.797-57.245-16.733z"/><path id="path33_fill" d="M1.442 71.712C-9.462 55.776 44.149 17.264 72.317 0c0 12.483-3.135 34.581 6.133 45.418 9.268 10.836-7.496 28.154-19.763 32.669-14.538 4.515-46.341 9.561-57.245-6.375z"/><path id="path34_fill" d="M1.242 58.242C-8.152 45.299 38.04 14.022 62.31 0c0 10.138 15.501 31.321 23.487 40.122 7.985 8.801-24.662 28.042-35.231 31.71-12.526 3.666-39.928-.648-49.323-13.59z"/><path id="path35_fill" d="M1.242 58.242C-8.152 45.299 38.04 14.022 62.31 0c0 10.138-2.701 28.085 5.284 36.886 7.985 8.801-6.459 22.866-17.028 26.533-12.526 3.667-39.928 7.765-49.323-5.177z"/><path id="path36_fill" d="M1.168 59.646C-7.666 46.391 35.77 14.359 58.592 0c0 10.383 14.577 32.076 22.086 41.09 7.51 9.013-23.19 28.718-33.129 32.473-11.78 3.756-37.546-.662-46.38-13.917z"/><path id="path37_fill" d="M1.168 59.646C-7.666 46.391 35.77 14.359 58.593 0c0 10.383-2.54 28.763 4.968 37.776 7.51 9.013-6.073 23.416-16.012 27.172-11.78 3.755-37.546 7.953-46.38-5.302z"/><path id="path38_fill" d="M.792 44.19C-5.198 34.37 24.249 10.638 39.721 0c0 7.692 9.882 23.765 14.972 30.442 5.09 6.678-15.721 21.277-22.459 24.06C24.25 57.284 6.781 54.01.792 44.19z"/><path id="path39_fill" d="M.792 44.19C-5.198 34.37 24.249 10.638 39.721 0c0 7.692-1.722 21.31 3.368 27.987 5.09 6.678-4.117 17.35-10.855 20.131C24.25 50.901 6.781 54.01.792 44.19z"/><path id="path40_fill" d="M18.799 80.105C-6.851 60.443-.794 18.509 5.44 0c0 39.142 19.296 65.237 35.623 69.182L18.799 80.105z"/><path id="path41_fill" d="M747.648 160.099c0 88.421-167.367 160.1-373.824 160.1C167.367 320.199 0 248.52 0 160.099 0 71.679 167.367 0 373.824 0c206.457 0 373.824 71.679 373.824 160.099z"/><path id="path42_fill" d="M781 146.688c0 81.013-174.833 146.688-390.5 146.688S0 227.701 0 146.688C0 65.674 174.833 0 390.5 0S781 65.674 781 146.688z"/><path id="path43_fill" fill-rule="evenodd" d="M520.32 67.475c16.938 1.198 35.082 6.588 54.509 16.17 24.881 12.577 37.322 26.951 37.322 43.122-.497 31.742-22.891 50.907-67.18 57.495-14.45 2.395-30.872.898-49.284-4.492l-23.14-8.108 2.259 7.21c1.99 5.39 3.215 11.379 3.713 17.967 2.488 17.345-17.666 31.442-60.462 42.223-36.308 9.582-65.189 7.785-86.568-5.391-9.972-6.012-15.924-9.26-17.934-9.882-3.981-1.22-7.962.001-11.943 3.571-3.981 6.588-7.464 11.379-10.45 14.397-5.971 5.367-15.675 8.684-29.111 9.882-25.877 2.395-57.974-4.193-96.291-19.764-11.446-4.792-19.159-11.379-23.14-19.741-4.479-9.583-7.464-14.973-8.957-16.171-3.484-1.796-14.183-1.22-32.097 1.797-20.9 4.192-36.576 5.69-47.026 4.469-14.431-1.198-26.872-6.888-37.322-17.046C8.26 176.176 2.787 166.594.796 156.436c-1.99-7.21-.249-18.866 5.225-35.036 3.981-12.578 7.465-20.962 10.45-25.154 1.493-2.396 8.958-6.589 22.394-12.578 13.933-6.588 23.637-10.181 29.111-10.78 6.47-.599 12.69-1.797 18.661-3.593 6.47-2.396 8.709-4.492 6.718-6.289-7.464-5.989-11.694-10.78-12.69-14.374-.995-4.192.498-8.684 4.48-13.475 4.478-4.791 8.956-7.187 13.435-7.187l71.658-10.803c49.763-7.187 80.119-10.159 91.066-8.984 9.455 1.221 17.417 5.99 23.906 14.374 4.976 5.989 8.957 7.786 11.924 5.39 4-2.396 8.23-6.887 12.689-13.475 3.981-6.588 7.235-10.804 9.723-12.6 4.46-2.995 25.877-2.396 64.194 1.796 39.332 4.216 64.692 9.007 76.156 14.397 10.929 4.791 15.924 9.882 14.929 15.25-.498 3.593-4.995 9.006-13.455 16.17-5.474 4.79-8.957 9.905-10.431 15.272-1.015 2.395-1.244 4.492-.766 6.288l26.872-2.695c19.408-1.175 33.82-1.474 43.275-.875z"/><path id="path44_fill" fill-rule="evenodd" d="M30.635.087c7.962.576 12.192 3.893 12.69 9.882.995 5.989-1.742 12.876-8.211 20.64-11.446 13.774-22.642 12.277-33.59-4.493-3.483-5.989-.995-11.978 7.464-17.944C16.95 2.183 24.147-.535 30.635.087z"/><path id="path45_fill" fill-rule="evenodd" d="M21.79 1.178c14.432 8.984 18.91 16.77 13.437 23.357-2.986 4.193-8.23 6.588-15.676 7.21-7.962 1.198-13.685 0-17.168-3.593-3.98-3.594-2.966-9.882 2.986-18.866C11.34.902 16.814-1.816 21.79 1.178z"/><path id="path46_fill" fill-rule="evenodd" d="M21.647 4.635c10.948 2.395 17.168 6.887 18.66 13.475.996 6.588-1.99 11.978-8.956 16.17-5.972 3.594-12.939 1.198-20.9-7.21C3.482 19.286 0 12.122 0 5.51 0 1.295 1.742-.502 5.225.12c2.47.622 7.943 2.12 16.422 4.515z"/><path id="path47_fill" fill-rule="evenodd" d="M14.466 0c6.47 0 7.713 3.317 3.732 9.882-4.46 6.611-9.187 8.707-14.163 6.289-4.479-2.396-5.225-5.69-2.259-9.882C5.28 2.096 9.51 0 14.466 0z"/><path id="path48_fill" fill-rule="evenodd" d="M39.878 13.026c4.479 5.39 2.986 10.481-4.46 15.272-7.961 4.792-16.191 5.114-24.651.899-8.44-3.57-11.924-8.684-10.431-15.272C1.829 7.337 3.571 3.145 5.542 1.348c2.488-1.797 7.216-1.797 14.182 0 9.455 2.395 16.173 6.288 20.154 11.678z"/><path id="path49_fill" fill-rule="evenodd" d="M22.036 1.198c14.929 5.989 17.168 11.08 6.737 15.272-10.45 4.791-18.91 5.114-25.379.898-4.995-3.593-4.46-7.785 1.493-12.577C10.361 0 16.084-1.198 22.037 1.198z"/><path id="path50_fill" fill-rule="evenodd" d="M5.971 1.155c8.46-1.797 15.695-1.497 21.647.898 5.474 1.797 7.216 4.492 5.226 8.109-4.996 10.158-12.69 13.774-23.14 10.757C3.234 19.145 0 15.552 0 10.162c.02-4.815 2.01-7.81 5.971-9.007z"/><path id="path51_fill" fill-rule="evenodd" d="M47.971 6.33c9.953 6.588 7.714 12.9-6.718 18.865-12.44 4.791-23.388 6.888-32.843 6.266C1.94 30.885-.796 27.268.2 20.68 1.691 14.091 6.189 8.701 13.634 4.51c11.445-6.565 22.89-5.966 34.336 1.82z"/><path id="path52_fill" fill-rule="evenodd" d="M5.557 0c6.967.576 9.455 2.995 7.464 7.187-1.99 4.215-4.976 6.012-8.957 5.39C.581 12.001-.664 9.882.332 6.29.829 2.096 2.572 0 5.557 0z"/><path id="path53_fill" fill-rule="evenodd" d="M12.44.58c8.46-1.797 10.949.576 7.465 7.21-3.98 6.565-8.957 9.582-14.929 8.983-4.976-.599-6.22-3.317-3.732-8.085C3.732 4.473 7.464 1.778 12.441.58z"/><path id="path54_fill" fill-rule="evenodd" d="M9.704.09c5.99.621 7.483 3.892 4.478 9.904-3.483 5.39-7.215 7.463-11.196 6.266C0 15.062-.746 12.067.746 7.276 2.756 1.91 5.723-.51 9.704.09z"/><path id="path55_fill" fill-rule="evenodd" d="M20.294 8.265c0 2.396-1.723 4.492-5.206 6.311-2.488 1.198-5.455.3-8.957-2.718C3.145 8.887 1.135 5.87.14 2.875-.338.479.408-.42 2.399.18c1.473 0 4.459.599 8.938 1.796 5.99 1.244 8.957 3.317 8.957 6.289z"/><path id="path56_fill" fill-rule="evenodd" d="M3.732.18c3.484-.6 4.728.3 3.732 2.695C5.972 5.27 4.23 6.445 2.24 6.445.746 6.445 0 5.547 0 3.773.498 1.377 1.742.18 3.732.18z"/><path id="path57_fill" fill-rule="evenodd" d="M18.101 0c9.953 0 10.7 3.593 2.24 10.803-9.455 7.187-15.676 8.984-18.662 5.367-2.985-2.994-1.99-6.588 2.986-10.78C8.646 1.797 13.125 0 18.101 0z"/><path id="path58_fill" fill-rule="evenodd" d="M6.185 2.93c-.498 2.395-1.99 3.294-4.479 2.672-1.99-.576-2.24-1.797-.746-3.594C2.453.235 3.945-.387 5.438.235c1.493-.023 1.742.898.747 2.695z"/><path id="path59_fill" fill-rule="evenodd" d="M15.116 2.379c2.507 4.192.497 6.887-5.972 8.085-6.967 1.198-9.953 0-8.957-3.594C1.182 3.876 3.67 1.78 7.65.605c3.483-1.198 5.99-.622 7.465 1.774z"/><path id="path60_fill" fill-rule="evenodd" d="M21.647 11.23c-9.455 3.593-15.905 3.892-19.408.898-2.985-2.396-2.985-5.09 0-8.085C5.742.449 9.455-.75 13.436.449c13.455 4.193 16.173 7.786 8.21 10.78z"/><path id="path61_fill" fill-rule="evenodd" d="M8.678 0c3.98 0 4.727 1.497 2.22 4.492-2.469 2.994-5.206 3.893-8.21 2.695C-.3 6.588-.797 5.09 1.193 2.695 3.682.898 6.171 0 8.678 0z"/><path id="path62_fill" fill-rule="evenodd" d="M178.91 14.888c46.28 17.392 45.036 39.828-3.732 67.4-48.767 28.149-90.32 37.109-124.656 26.951-27.867-8.385-44.289-24.256-49.265-47.613-3.98-20.363 1.493-35.335 16.422-44.918C39.575 3.555 68.935-1.858 105.759.561c27.867 1.75 52.251 6.541 73.151 14.327z"/><path id="path63_fill" fill-rule="evenodd" d="M177.711 14.061c46.777 16.77 45.781 38.008-2.986 63.784-48.27 25.154-89.822 32.939-124.656 23.357C22.202 92.84 6.029 78.167 1.55 57.182c-4.478-19.74.747-33.838 15.676-42.223C39.12 2.981 68.48-1.81 105.306.61c27.867 1.75 52.002 6.242 72.405 13.452z"/><path id="path64_fill" fill-rule="evenodd" d="M162.562 108.358c-34.317 10.78-75.888 2.096-124.656-26.053-49.265-27.55-50.51-50.009-3.732-67.4C55.094 7.119 79.458 2.328 107.325.555c37.322-2.396 66.682 2.97 88.099 16.147 14.929 9.582 20.384 24.555 16.403 44.918-4.46 22.781-20.881 38.353-49.265 46.738z"/><path id="path65_fill" fill-rule="evenodd" d="M161.993 100.294c-34.317 10.181-75.888 2.396-124.655-23.357-48.768-25.753-49.763-46.715-2.986-62.863C54.755 6.864 78.89 2.373 106.757.6c37.322-2.396 66.682 2.396 88.099 14.35 14.929 8.385 20.384 22.16 16.403 41.348-4.958 21.538-21.398 36.211-49.266 43.997z"/><path id="path66_fill" fill-rule="evenodd" d="M103.314.653c19.905-2.395 32.843 1.797 38.796 12.577 5.473 9.007 6.488 24.556 2.985 46.715-3.981 23.956-9.187 38.906-15.656 44.918-10.45 8.984-31.6 12.577-63.447 10.78-51.256-2.395-72.654-17.667-64.194-45.816 2.985-8.983 18.412-22.758 46.28-41.325C74.45 11.733 92.863 2.45 103.313.653z"/><path id="path67_fill" fill-rule="evenodd" d="M103.314.719c19.905-2.396 32.843 1.197 38.796 10.803 5.473 8.362 6.488 22.735 2.985 43.098-3.981 22.183-9.187 36.234-15.656 42.246-10.45 8.362-31.6 11.656-63.447 9.882-51.256-2.396-72.654-16.493-64.194-42.223 2.985-8.385 18.412-20.962 46.28-37.754C74.45 11.199 92.863 2.515 103.313.719z"/><path id="path68_fill" fill-rule="evenodd" d="M21.047.864c18.91-2.995 46.529 1.797 82.855 14.374 21.896 7.21 37.571 16.47 47.026 27.849 11.446 13.176 10.699 26.052-2.239 38.63-20.403 19.164-54.49 26.651-102.263 22.481C30.483 103 19.038 95.514 12.09 81.716 8.588 73.93 4.874 59.856.893 39.493-2.59 15.537 4.11 2.661 21.047.863z"/><path id="path69_fill" fill-rule="evenodd" d="M20.791.898c18.393-2.994 45.533 1.498 81.343 13.476 21.417 7.21 36.844 16.17 46.299 26.95 10.928 13.177 10.182 25.754-2.24 37.755-19.426 19.165-53.016 26.352-100.77 21.56-14.928-1.197-25.895-8.684-32.862-22.459-4.46-7.786-8.21-21.284-11.196-40.426-4.46-22.16 2.01-34.46 19.426-36.856z"/><path id="path70_fill" fill-rule="evenodd" d="M144.09 88.05c-30.853-5.39-57.227-10.481-79.123-15.273C22.67 63.794 1.022 54.511.027 44.928-.968 27.56 25.655 14.085 79.897 4.502 129.16-4.505 160.013.01 172.454 17.977c19.407 30.545 29.877 48.489 31.37 53.902 4.957 22.16-14.948 27.55-59.735 16.17z"/><path id="path71_fill" fill-rule="evenodd" d="M141.139 81.055c-30.356-4.792-56.232-9.583-77.63-14.374C21.708 58.319.559 49.635.06 40.628c-1.493-16.17 24.384-28.425 77.63-36.832 49.265-7.786 79.62-3.594 91.066 12.577 19.407 28.148 29.877 44.618 31.37 49.41 4.957 20.362-14.7 25.453-58.988 15.272z"/><path id="path72_fill" fill-rule="evenodd" d="M91.793 94.771c-11.445 7.187-28.116 11.379-49.992 12.577-23.886 1.797-36.576-2.096-38.069-11.678C1.742 83.092.498 69.617 0 55.243c0-16.792 1.76-28.448 5.225-35.036C9.206 12.422 19.16 6.732 35.102 3.162c17.915-4.216 36.824-4.216 56.71 0 25.379 5.367 40.557 8.983 45.552 10.757 9.455 3.593 15.427 9.283 17.915 17.069 2.488 7.785-4.976 19.188-22.393 34.137-11.962 10.205-25.647 20.064-41.093 29.646z"/><path id="path73_fill" fill-rule="evenodd" d="M91.066 86.22C79.6 92.807 63.199 96.7 41.8 97.92 17.915 99.718 5.225 96.124 3.732 87.118 1.742 75.14.498 62.862 0 50.285c0-15.571 1.76-26.352 5.225-32.34 3.981-6.589 13.934-11.68 29.877-15.25C52.5-.898 71.18-.898 91.085 2.695c24.365 4.768 39.313 8.085 44.787 9.882 9.454 2.995 15.426 8.085 17.914 15.272 2.488 7.187-4.976 17.668-22.393 31.42-11.981 9.582-25.417 18.566-40.327 26.95z"/><path id="path74_fill" fill-rule="evenodd" d="M139.795 39.505c22.393-5.99 34.336-12.877 35.829-20.64 1.991 8.984-8.689 17.046-32.077 24.256-22.394 6.588-47.026 10.182-73.898 10.78-29.36.6-49.763-4.79-61.208-16.17C-2.01 27.573-2.756 15.272 6.2.898L6.948 0c-8.46 13.176-7.465 24.555 2.985 34.115 11.446 10.181 31.6 14.972 60.462 14.396 24.365 0 47.504-3.017 69.4-9.006z"/><path id="path75_fill" fill-rule="evenodd" d="M125.175 20.64L126.668 0c0 11.38-.479 20.063-1.493 26.052-1.493 16.17-5.971 25.753-13.436 28.748-5.971 1.797-23.637 2.096-52.997.898-20.9-.599-36.576-5.113-47.026-13.475C2.26 35.635-1.471 28.425.519 20.639c.996 7.21 5.972 13.798 14.93 19.764 10.947 6.588 25.378 10.159 43.293 10.78 29.857 1.198 47.504.6 52.997-1.796 7.465-2.995 11.924-12.577 13.436-28.748z"/><path id="path76_fill" fill-rule="evenodd" d="M150.016 3.617c1.493 1.796 1.99 3.293 1.493 4.468-3.982 12.6-12.422 24.279-25.379 35.036-15.925 13.775-32.844 20.962-50.758 21.56-27.37 0-51.486-18.266-72.386-54.799C.996 6.887 0 3.616 0 0l2.986 8.085c20.9 34.138 44.786 50.907 71.658 50.331 17.915-.598 34.815-7.21 50.739-19.763 12.441-10.182 20.9-20.663 25.379-31.42l-.746-3.616z"/><path id="path77_fill" fill-rule="evenodd" d="M135.125 0c1.991 2.995 2.967 6.588 2.967 10.803-.996 11.979-22.891 20.64-65.687 26.053-41.303 5.39-65.19 5.39-71.659 0-.995-.6-.995-2.396 0-5.39 6.967 5.39 30.853 5.69 71.659.898 41.801-5.367 63.199-13.475 64.194-24.256L135.125 0z"/><path id="path78_fill" fill-rule="evenodd" d="M12.69 18.889c4.976 4.79 12.191 11.379 21.646 19.74 11.446 9.583 18.91 14.697 22.394 15.273 4.46.599 10.928-4.47 19.407-15.273C88.577 23.059 100.77 10.482 112.713.9l.746-.899-.746 1.797C100.77 11.978 88.578 25.753 76.137 43.12c-8.46 11.38-14.929 16.77-19.407 16.17-6.47-.598-21.15-13.175-44.04-37.73-3.982-3.594-6.719-5.99-8.211-7.21C1.493 11.356 0 8.66 0 6.265c.995 3.041 5.225 7.233 12.69 12.624z"/><path id="path79_fill" fill-rule="evenodd" d="M86.587 22.718h7.465c2.507 0 3.98.575 4.478 1.773 2.986 3.594 4.728 6.588 5.206 8.984v8.108c-1.99 1.198-2.966 2.995-2.966 5.367.478 1.797 1.741 4.814 3.713 9.007-1.474 3.593-3.235 5.69-5.206 6.265-1.015.6-3.732 3.594-8.211 9.007-2.507 3.593-10.47 5.39-23.886 5.39-14.93-.599-24.384-.898-28.365-.898-9.953 0-15.924-.323-17.915-.899L0 72.127c5.972-4.192 8.46-8.384 7.464-12.577-.995-2.994-1.741-4.79-2.239-5.39-.498-1.797-.249-3.593.746-5.39 1.991-2.396 3.982-4.469 5.972-6.266 1.493-2.994 2.24-5.09 2.24-6.265l-4.48-8.108c-.995 0-1.492-.899-1.492-2.695l1.493-5.39-.747-4.47L6.7 11.086 5.952 8.39c0-3.57.747-5.99 2.24-7.187.995-1.22 2.986-1.497 5.971-.898 3.484 1.197 6.47 2.695 8.958 4.491 1.492 1.198 2.985 3.294 4.478 6.266.995 1.797 2.24 2.695 3.732 2.695l12.67-1.797c4.001 0 7.236 2.396 9.724 7.21 4.976 5.99 9.952 8.362 14.928 7.187l17.934-3.64z"/><path id="path80_fill" fill-rule="evenodd" d="M62.184 3.583c2.986 0 4.479 1.497 4.479 4.492-.995-2.995-3.483-2.396-7.464 1.797-1.493 1.198-1.991 2.395-1.493 3.57l3.732 6.289c.995 2.395.478 4.491-1.493 6.288-2.507 1.797-3.732 3.294-3.732 4.469 0 3.593-1.99 7.486-5.972 11.679-2.507 6.588-4.249 10.181-5.225 10.803l-15.675-3.593c-3.981-1.797-7.962-1.797-11.943 0-2.986 1.796-6.718 1.197-11.178-1.797C1.244 44.585-.746 42.19.25 40.37c3.98-9.56 7.713-15.848 11.196-18.843L44.29 9.85l.746-3.594c.996-2.395 2.489-4.192 4.46-5.367 2.507-1.774 6.737-.898 12.69 2.695z"/><path id="path81_fill" fill-rule="evenodd" d="M1.474 1.797L2.221 0l2.258 6.289c1.99 4.192 4.728 6.288 8.211 6.288 7.962 17.368 7.962 28.149 0 32.318-5.474 3.017-8.46 1.797-8.957-3.57-.498-1.221-.25-5.69.765-13.476.498-2.396-.268-5.114-2.258-8.108C.747 17.345 0 14.374 0 10.757c-.019-4.169.479-7.164 1.474-8.96z"/><path id="path82_fill" fill-rule="evenodd" d="M138.092 40.288c.995-.599 2.239 0 3.732 1.797.478.576 1.742-.323 3.713-2.695 1.493-.6 2.756-1.797 3.732-3.594 1.991 2.396 3.484 2.396 4.46 0 1.493-1.797 2.756-2.695 3.732-2.695l1.493.898c.497 0 1.493-.898 2.986-2.695l5.225-.875c1.473-.599 1.741-1.797.727-3.593l3.732 1.796c1.015.576 3.503.3 7.465-.921 1.493 0 3.981 3.317 7.483 9.905l11.197 17.967c.995 1.797.995 2.672 0 2.672h-2.24c-1.492 3.594-3.234 4.791-5.225 3.594l-2.966-.899-.747 9.905c0 1.198-1.741 2.096-5.225 2.672-4.459 2.396-7.962 3.916-10.45 4.492-.995.599-2.986 2.695-5.972 6.289l-.746 8.983c0 2.396-1.244 2.695-3.732.899l-1.493 6.288c0 2.396-1.742 1.774-5.225-1.797-.995-1.22-1.742-1.497-2.22-.898 0 .576-.268 1.774-.747 3.57-.497 1.221-1.493.899-2.986-.875l-6.717 1.774c-1.015.599-1.742 3.317-2.24 8.108-.497 4.791-1.742 8.385-3.732 10.78-.995.599-2.488 2.396-4.479 5.367l-2.985 9.905c-.996-2.395-1.991-3.593-2.986-3.593-1.991 0-4.23 3.593-6.718 10.78-2.986 6.588-6.469 11.08-10.431 13.476-2.488 1.796-3.981 3.317-4.479 4.492-.498 2.395-1.493 4.791-2.986 7.209-.995 3.571-1.99 5.368-2.986 5.368-.995-.599-1.99-.899-2.985-.899-1.493.599-1.99 0-1.493-1.796.498-1.774.746-3.294.746-4.469-.497-2.396-3.732-.599-9.703 5.367-2.986 2.395-4.728 5.689-5.225 9.905-.498 1.774-.747 4.192-.747 7.187-.498 2.395-.766 1.497-.766-2.695 0-4.792-1.224-8.385-3.732-10.781-4.478-5.39-7.215-5.09-8.21.899-.498 2.395-2.986 3.593-7.465 3.593-3.483-.599-6.22-1.497-8.21-2.695-.996-.599-1.742-2.096-2.24-4.492 0-2.994-.747-5.367-2.24-7.187-1.492-2.395-3.483-1.497-5.971 2.695-.498 1.198-.746 1.198-.746 0-.498-2.994-.996-5.113-1.493-6.288-.498-5.39-1.493-6.588-2.986-3.593v10.803c-.995 0-2.488-1.221-4.479-3.594-.995-1.22-2.737-1.497-5.225-.898-1.99 0-3.732-.599-5.225-1.797-.995-1.796-2.24-3.893-3.732-6.288-1.99-3.571.995-8.362 8.957-14.351 3.981-3.017 4.976-7.21 2.986-12.6-.498-1.198-1.99-1.797-4.479-1.797-1.493.599-2.737 0-3.732-1.796l-2.986-5.368c-.995-1.197-2.24-1.796-3.732-1.796-.995 0-1.493-.3-1.493-.899 1.99-2.395 2.488-5.39 1.493-8.983-.498-2.396-1.225-3.317-2.24-2.695-.995.599-1.492.599-1.492 0l2.24-14.374c-2.489-1.198-4.23-2.695-5.226-4.492-.995-2.395-.746-4.469.747-6.265 2.985 3.593 4.478 4.192 4.478 1.796l.747-11.678c-.498-1.221-2.488-1.497-5.972-.899-3.483 0-5.225-.322-5.225-.898 1.99-7.21 3.483-11.08 4.479-11.702.995-.576 1.99-2.096 2.985-4.468.498-2.396.747-3.893.747-4.492 1.493-4.791 3.483-6.888 5.99-6.289 2.489 0 4.46-1.198 5.972-3.57.498 0 1.742-2.396 3.732-7.21.498-1.198 1.225-1.474 2.24-.899.995.6 1.741.899 2.239.899.995 0 2.488-1.474 4.478-4.492 1.991-2.396 3.484-4.768 4.48-7.187.497-1.198.995-3.294 1.492-6.288.498-1.198.995-1.198 1.493 0 1.493 2.395 4.976 1.497 10.45-2.672 2.986-2.396 4.728-3.594 5.225-3.594 1.493 0 2.737-2.096 3.732-6.265l.747 1.796c.995 1.774 1.99 2.396 2.986 1.774.497 0 1.244-.898 2.239-2.695C66.204 1.474 66.95.576 67.946 0c3.483 0 5.722 4.192 6.717 12.577.498 1.774 1.742 5.367 3.733 10.78.497 1.797 2.239 2.995 5.225 3.594l5.225 6.265c1.493 1.797 3.483 2.695 5.971 2.695 3.981-1.197 6.221-2.395 6.718-3.593.498-1.198 3.235-1.774 8.211-1.774l5.225.876h5.972l7.464 4.491 5.225 6.289c.976 1.082 2.469.484 4.46-1.912z"/><path id="path83_fill" fill-rule="evenodd" d="M77.313 15.272c7.962 4.791 12.192 7.187 12.69 7.187 2.488 0 5.206-2.396 8.21-7.187 1.015-3.017 4.25-5.114 9.704-6.288L133.297 0l2.239 1.797c1.014.576 2.239 2.994 3.732 7.187l1.493 2.695 5.206 3.593c1.99 1.198 3.732 5.09 5.225 11.679h-.727c-2.488-2.396-4.23-3.594-5.225-3.594-1.991.576-4.728 2.695-8.211 6.266-1.991 1.796-3.235 3.916-3.732 6.288 0 2.396-.479 3.893-1.493 4.492-3.484 2.396-4.46 1.198-2.967-3.593.995-5.99-.268-7.786-3.732-5.39-.995.599-4.23 4.79-9.704 12.577-5.474 11.379-8.708 17.69-9.704 18.865-1.99 1.797-3.981 2.695-5.99 2.695H96.72l6.737-14.373c1.991-3.594 5.972-8.984 11.943-16.171l-11.943 6.288c-1.493 1.198-3.235 4.193-5.225 8.984-1.99 4.791-3.981 8.085-5.972 9.882-1.492 1.198-5.474 7.486-11.962 18.866-1.493 2.395-4.23 5.989-8.21 10.78-4.48 5.39-7.465 8.085-8.958 8.085-1.493.6-2.24-.576-2.24-3.57-.497-2.396-.248-4.492.747-6.289.498-1.198 7.216-9.582 20.154-25.154 2.488-2.395 3.732-3.893 3.732-4.492l-3.732.899c-4.479 5.39-8.957 9.006-13.436 10.803-2.986 1.198-5.971 3.893-8.957 8.085-2.488 5.39-4.728 9.583-6.718 12.577-2.488 3.594-4.976 5.091-7.465 4.492l-2.985-.898 14.182-24.256 17.168-15.272-14.929.898c-10.947 3.57-16.67 5.368-17.168 5.368-7.981 6.588-14.68 10.803-20.154 12.576L.43 81.774l6.718-3.594L22.823 67.4c3.483-2.396 7.713-6.887 12.69-13.475l-20.9 5.367H5.654l8.21-4.469c2.489-.599 8.71-3.916 18.662-9.905l-4.479-.898c-5.971.598-12.192.598-18.66 0-4.48-.576-7.465-2.097-8.958-4.47-.995-2.395-.268-4.191 2.24-5.39 1.99-.575 6.966.3 14.928 2.696l17.915 2.695c3.98.599 11.694-.323 23.14-2.695l-8.212-1.797-13.435 2.695c-.498-.599-.747-1.497-.747-2.695-.498-1.797-.249-2.994.747-3.593 6.966-3.57 12.938-3.893 17.914-.899 3.484 1.797 8.957 2.096 16.422.899 3.483-.576 5.971-2.097 7.464-4.47-1.493-3.017-3.98-5.39-7.464-7.21-6.47-2.994-9.455-4.79-8.957-5.39 2.488-3.04 7.464-2.74 14.928.876z"/><path id="path84_fill" fill-rule="evenodd" d="M20.135 4.538c0 1.774-.995 3.87-2.986 6.265.498.6 1.493 0 2.986-1.796.995-1.797 2.24-2.695 3.732-2.695 0 .598-.995 2.096-2.986 4.491 1.493 1.198 2.986.6 4.479-1.796 1.99-2.995 3.234-4.47 3.732-4.47 0 1.199-.746 2.995-2.24 5.368-1.492 1.198-1.492 2.695 0 4.492 0 1.198-.746 1.474-2.239.875-.995-.576-1.492-.3-1.492.921.995 1.797.746 3.294-.747 4.47-2.986 2.395-4.727 3.892-5.225 4.491l2.24-4.492c0-1.197-.25-1.474-.747-.898-.498 1.22-1.244 1.497-2.24.898 0-.576.25-1.474.747-2.672.498-.599.249-1.497-.746-2.718l-5.225 8.108c.497 2.396 2.239 3.893 5.225 4.492l-1.493 8.085-3.732-1.796c2.488-4.193 2.239-6.888-.747-8.085-.498-3.594.249-6.289 2.24-8.086 2.488-2.395 3.732-4.492 3.732-6.288-.996.576-3.235 3.893-6.718 9.882-2.489 4.79-5.225 6.588-8.211 5.39 1.493-5.39 3.483-8.108 5.99-8.108L4.48 8.086c0 1.197-.747 1.796-2.24 1.796l2.986 3.593c.498 1.774-.249 3.294-2.24 4.492.498-6.012-.497-8.385-2.985-7.21l.746-.898c.996 0 2.24-1.497 3.733-4.492.995-1.797 1.99-1.474 2.985.898C8.46 5.068 8.69 2.972 8.211 0c2.966.622 6.947 2.12 11.924 4.538zM9.685 15.295c.497.6.995.6 1.492 0 0-4.192-.746-6.265-2.239-6.265.995 2.994.498 4.79-1.493 5.39.498 0 1.244.276 2.24.875z"/><path id="path85_fill" fill-rule="evenodd" d="M9.704.898C10.2.3 10.699 0 11.197 0c.497 0 .746.599.746 1.797 0 .576-1.244 2.994-3.732 7.187-.498 1.22-1.244 2.994-2.24 5.39-.497 1.796-2.488 4.192-5.971 7.21v-5.39l3.732-4.492c.995-1.198 1.244-2.096.747-2.695L9.704.898z"/><path id="path86_fill" fill-rule="evenodd" d="M35.81 20.685l4.479-1.796c.497 0 2.488.599 5.99 1.796 1.99.6 4.728-.898 8.211-4.491-2.986 4.79-5.474 7.486-7.464 8.108-1.493.599-2.488 2.096-2.986 4.492-.995 4.79-1.99 7.463-2.986 8.085-1.493 4.192-2.239 5.69-2.239 4.492 0-2.396-2.986-.6-8.957 5.367-2.986 2.994-4.728 6.91-5.225 11.678-.498 4.792-.996 6.91-1.493 6.289v-1.797l-.747-8.983c.995 1.198 1.742.898 2.24-.899l.746-7.21c0-1.773.995-5.09 2.986-9.882.995-1.796-.995-5.69-5.972-11.678-1.493-1.797-2.488-2.096-2.986-.899-.995 2.396-2.239 4.492-3.732 6.266l-4.478 5.39 3.732-12.577c1.493-2.396-.249-3.593-5.225-3.593-.996 0-3.732 4.491-8.211 13.475C.498 34.714 0 31.742 0 23.334c0-2.395 1.225-5.09 3.732-8.085l2.24-4.492.746-4.491c.995-2.396 2.488-4.193 4.479-5.39.497-.3.995-.577 1.493-.876L8.957 7.187l-.746 5.39 1.493.898 3.732-6.288c.995-1.797 1.99-1.797 2.986 0l-1.493 6.288c0 .576 1.493.876 4.478.876.996 0 2.737 1.22 5.226 3.593l3.732 1.797 7.445.944z"/><path id="path87_fill" fill-rule="evenodd" d="M24.633 26.235l-5.226 4.469c-.995 0-2.488.898-4.478 2.695-1.493 1.797-2.488 3.317-2.986 4.492l-2.986 6.265c-.497 3.018-.995 4.492-1.493 4.492l-3.732-.898H0l1.493-2.696 2.24-2.672c2.487 1.198 3.731.3 3.731-2.695 1.493-4.79 2.489-7.486 2.986-8.108.995-.576 2.986-2.672 5.99-6.265.498 0 2.738-3.893 6.719-11.68l2.986-9.904c5.474-2.995 8.21-4.192 8.21-3.57l-9.722 26.075z"/><path id="path88_fill" fill-rule="evenodd" d="M10.47 3.593L11.961.898 12.71 0h3.713l-2.22 4.492-1.493 8.983c-1.99 5.39-3.484 8.109-4.479 8.109-1.99 1.198-2.986 2.395-2.986 3.57l-2.24 6.289-.746 4.491c0 1.198-.248 1.797-.765 1.797L0 33.24l2.24-7.187c.995-1.796 1.99-3.915 2.985-6.288l2.986-5.367 2.258-10.804z"/><path id="path89_fill" fill-rule="evenodd" d="M1.69.36C4.178-.839 6.17.957 7.662 5.75l-1.493-.922-3.732 1.797c-.498 0-1.244-.576-2.259-1.797C-.3 4.252.178 2.755 1.69.36z"/><path id="path90_fill" fill-rule="evenodd" d="M24.726 0L8.304 20.662l-2.986 2.695c-1.99 2.396-2.985 2.695-2.985.899 0-2.396-.498-2.995-1.493-1.797H.093c-.497-2.396.996-4.215 4.479-5.39.498 0 1.742-1.474 3.732-4.469l8.211-6.288C19.003 5.69 21.74 3.593 24.725 0z"/><path id="path91_fill" fill-rule="evenodd" d="M6.12 10.78L2.39 13.452c-1.99 0-2.737-.3-2.24-.875l4.479-4.492c.995-2.395 1.99-3.593 2.986-3.593l2.985-.899L18.81 0c-2.488 2.995-4.976 4.791-7.464 5.39-.995.6-2.737 2.373-5.225 5.39z"/><path id="path92_fill" fill-rule="evenodd" d="M2.258 0l2.986 2.695c2.986 0 4.479.3 4.479.898 0 2.995.249 4.492.746 4.492l4.479-.898c1.99 0 3.483.576 4.479 1.774 0 1.22.995 2.395 2.985 3.593l2.24 2.695 5.225 3.594 3.732.898c1.99 0 3.981.576 5.972 1.797-5.474 1.197-9.207 1.197-11.197 0l-5.972-3.594-2.985-3.593-8.211-2.695-3.732-1.797L5.99 8.085H3.005l-2.24-.898H0l1.493-3.594L2.258 0z"/><path id="path93_fill" fill-rule="evenodd" d="M12.69 6.424L8.21 4.627l-3.731.899L0 4.627C.995 1.034 2.986-.486 5.972.136c2.985.576 5.473 1.796 7.464 3.593.995.576 4.23 2.695 9.704 6.266l5.99 2.695-8.976-1.797-7.464-4.469z"/><path id="path94_fill" fill-rule="evenodd" d="M0 9.905L.746 0v2.695L4.48 5.39l4.478 4.492 5.225 2.672c1.493 0 3.484-.875 5.972-2.672 1.493-.599 5.723-.898 12.69-.898l12.689-2.695c0 1.197-1.493 2.096-4.479 2.695L33.59 10.78l-11.943 4.47-14.183.897L0 9.905z"/><path id="path95_fill" fill-rule="evenodd" d="M0 5.202c2.488-.575 5.225-1.796 8.21-3.57 1.991-1.797 3.484-2.12 4.48-.921l5.225 3.593 2.985-.898h5.972c-3.483 3.593-5.972 5.113-7.465 4.492L13.436 6.1c-.995-1.198-2.986-.899-5.972.898l-3.732.899h-2.24L0 5.202z"/><path id="path96_fill" fill-rule="evenodd" d="M0 .898L4.479 0l2.239 3.593 2.986.899 2.986 1.797 2.985-2.696v4.492l1.493 2.672 5.225-.875c.498 0 1.493.875 2.986 2.672 3.981 2.396 6.718 3.593 8.21 3.593l11.963 2.696-16.422 1.796-4.478-3.593c-2.986.599-5.723.898-8.211.898-1.493 0-2.737-.599-3.732-1.797-1.493-2.395-2.489-3.892-2.986-4.491L0 .898z"/><path id="path97_fill" fill-rule="evenodd" d="M7.962 6.289L2.737 3.593C1.742 3.018.995 2.396.497 1.797-.497.599 0 0 1.992 0h5.225c.995 1.198 1.244 3.294.746 6.289z"/><path id="path98_fill" fill-rule="evenodd" d="M0 0l5.972.898c.497.6.248 1.198-.747 1.797L.746 4.492 0 0z"/><path id="path99_fill" fill-rule="evenodd" d="M13.562 8.108c.497 1.198 1.741 1.198 3.732 0L20.28 0l8.21 12.577c1.493 1.797 3.733 3.317 6.719 4.492l-5.991 3.593-8.957-.898c-1.493-.599-2.986 0-4.48 1.797-.497.576-1.74-.323-3.731-2.695-2.488-3.594-3.981-5.69-4.479-6.289L.853 3.593C-1.137 1.198.355 0 5.332 0l1.493 2.695C7.82 4.492 9.064 5.39 10.557 5.39c1.512 0 2.507.899 3.005 2.718z"/><path id="path100_fill" fill-rule="evenodd" d="M.746.316h5.226l2.239.875-1.493 4.492c-.498.599-1.99.3-4.479-.898C.746 4.185 0 2.988 0 1.19 0-.007.249-.306.746.316z"/><path id="path101_fill" fill-rule="evenodd" d="M18.661 2.875c-1.493.576-1.99 2.096-1.493 4.469 0 1.22.249 2.119.747 2.695l-2.986 6.288c-.498 1.198-.995 1.797-1.493 1.797a55.255 55.255 0 0 0-5.225-1.797L0 13.632.746 9.14l10.45-2.672L20.155.18c1.99-.6 1.493.3-1.493 2.695z"/><path id="path102_fill" fill-rule="evenodd" d="M6.569 0c3.483 0 5.225 1.797 5.225 5.39-.498 1.198-.995 2.096-1.493 2.672H6.569c-1.493 0-3.484-.898-5.972-2.672-.995-.599-.746-1.797.747-3.593C3.334.622 5.057 0 6.569 0z"/><path id="path103_fill" fill-rule="evenodd" d="M8.268 0c1.99.576 3.235 1.474 3.732 2.672.498 1.22.25 1.797-.746 1.797l-5.971.898C2.794 2.971 1.053 1.474.057.898-.44.276 2.297 0 8.268 0z"/><path id="path104_fill" fill-rule="evenodd" d="M0 2.672L14.929 0c2.488 0 4.976 1.474 7.464 4.469.498 1.796-1.244 2.395-5.225 1.796-1.493-.598-4.478-.898-8.957-.898L0 2.672z"/><path id="path105_fill" fill-rule="evenodd" d="M4.852 0c2.488 0 4.23.599 5.225 1.797-3.483 1.796-6.47 2.395-8.957 1.796-1.493-.598-1.493-1.22 0-1.796C2.115.599 3.34 0 4.852 0z"/><path id="path106_fill" fill-rule="evenodd" d="M4.852 2.695c1.493 2.396 3.732 4.469 6.718 6.266 3.98 4.79 6.22 7.785 6.718 9.006 1.99 2.396 5.474 4.193 10.45 5.367-3.981-.576-6.967-.576-8.957 0-1.493.6-2.986-1.197-4.479-5.367-2.488-4.215-5.723-7.486-9.704-9.882C4.105 7.486 2.613 6.29 1.12 4.492-.373 2.096-.373.599 1.12 0c1.99 0 3.234.898 3.732 2.695z"/><path id="path107_fill" fill-rule="evenodd" d="M3.732 0l5.225 2.695c1.99 1.198 2.986 2.396 2.986 3.593l4.479.899 17.914 8.085-5.225.899c-.995.598-3.732-.3-8.21-2.696-3.982-2.395-6.47-3.57-7.465-3.57-.995.576-1.99.3-2.986-.898-.995-2.396-1.99-3.893-2.986-4.492L0 2.718 3.732 0z"/><path id="path108_fill" fill-rule="evenodd" d="M.124 3.593c.498-1.197 1.245-1.497 2.24-.898.497 0 .995.3 1.493.898l2.985.899L22.518 0l2.986.898 8.957.899c2.488-.576 3.732-.3 3.732.898l-4.479 1.797-5.225.898h-3.732l-4.479-2.695c-.497-.599-.765-.599-.765 0 0 .576-.498 1.198-1.493 1.797h-2.986L3.091 8.085C.622 5.69-.373 4.215.124 3.593z"/><path id="path109_fill" fill-rule="evenodd" d="M124.522 0l-.727 1.797c-1.015 2.994-.747 6.012.727 9.006 2.507 4.193 4.478 5.091 5.99 2.672 2.489-2.395 6.718 0 12.69 7.21.995 1.797.995 4.792 0 8.984.995 1.797 1.99 2.695 2.986 2.695l2.986-.898c.478 0 .248 1.796-.747 5.39 0 2.994.747 4.192 2.22 3.593 1.015-1.198 1.742-3.593 2.24-7.21l2.985 4.492c.479 1.797 1.742 2.995 3.733 3.594 1.492 1.197 2.488 2.395 2.966 3.57l1.493 5.39c.995 3.594-2.488 5.39-10.45 5.39-2.488-.599-3.981.3-4.46 2.672-.497 1.221-.746 2.396-.746 3.594l2.967 2.695c.497.576 1.76 3.593 3.732 8.983.995 2.396 1.99 3.594 2.986 3.594-.498 1.198-1.761 2.994-3.733 5.39 0 1.198.498 1.797 1.493 1.797.479.576.747 1.198.747 1.796l-5.225 7.187c0 1.198.995 2.995 2.985 5.368 0 2.395-.746 3.593-2.239 3.593l-1.493-2.672c-.478-1.221-.995-1.221-1.474 0l-2.985 7.187c5.971 3.57 8.459 5.689 7.464 6.288-1.493 3.571-3.483 5.367-5.972 5.367-2.507 1.797-4.229 2.995-5.225 3.594-.995 2.994-2.985 3.57-5.971 1.797-.498-.599-2.239-.899-5.225-.899-.479 0-1.991.899-4.46 2.672-1.014.599-1.493.599-1.493 0-.497-1.198-1.014-1.773-1.492-1.773-1.015-.599-2.757-.323-5.226.898-1.99 0-3.732.576-5.225 1.797-1.99 3.57-3.215 4.468-3.713 2.672 0-2.396-2.986-3.594-8.957-3.594h-4.479l-4.46 1.797c0-2.396-.497-3.57-1.492-3.57-1.99 1.197-3.732 1.474-5.225.898-1.99-1.221-2.488-4.791-1.493-10.803l-.747-8.984c0-.576-.995-2.096-2.985-4.492-.479-2.395-1.225-4.791-2.22-7.187-.498-1.796-1.761-2.994-3.733-3.593l-5.971-1.797c-1.493 1.221-3.732.323-6.737-2.695l-3.733-3.57c-2.966-1.221-4.708-2.097-5.206-2.695l-3.732-6.289c-.995-2.396-1.99-4.469-2.985-6.265 0-.6-1.225-.899-3.713-.899-1.493 0-2.24-1.198-2.24-3.593h-3.732c-1.99 1.198-3.235 1.474-3.713.898-1.493-1.797-2.756-2.695-3.732-2.695-1.493.599-2.488.599-2.986 0l-1.493-.898h-2.24l-4.459-1.797-1.493 1.797-2.24-2.695c-.478-1.774-2.487-2.672-5.97-2.672l-2.986-9.905c.478-.576.248-2.396-.747-5.367C2.24 35.611.995 31.695 0 26.926c0-1.796.249-2.395.746-1.796l2.24.898c1.493-1.796 2.986-1.796 4.478 0l2.24 2.672 2.22-6.265c.498-.599 2.24-.3 5.225.898 1.99 1.198 4.976 1.797 8.957 1.797 1.99.576 3.981.3 5.991-.898l2.967-5.39 2.985.898 2.24-2.695c.995-2.396 2.239-1.198 3.713 3.593.497 1.797 1.014 2.096 1.493.899.497 0 1.014-.576 1.493-1.797.497 0 1.244.599 2.239 1.797 1.014 1.796 2.737 2.695 5.225 2.695.995 0 2.22-1.221 3.713-3.594 2.488-3.593 4.479-5.39 5.99-5.39l4.46-.875c1.493-.6 2.986-2.396 4.479-5.39l1.493 3.593c1.493 1.198 3.98 0 7.464-3.593 3.484-2.995 7.484-4.216 11.943-3.594 2.488 0 5.225-1.198 8.211-3.593C104.196.599 105.459 0 105.937 0c.498.599 1.244 1.22 2.24 1.797 1.493.599.995 2.119-1.493 4.492 0 1.197 2.986 1.497 8.976.898 2.967 0 5.206-.898 6.718-2.695.402-1.198 1.149-2.695 2.144-4.492z"/><path id="path110_fill" fill-rule="evenodd" d="M108.253 1.726L93.324 4.421c-3.98 1.221-8.21 3.594-12.69 7.21-4.975 4.193-8.956 7.187-11.942 8.984l-17.915 9.007 10.45.898c1.99 0 6.22-1.497 12.69-4.492 6.469-3.593 12.938-6.012 19.407-7.21 6.967-1.198 12.939-1.474 17.915-.898 2.507 1.22 6.737 2.695 12.69 4.492 4.478 1.197 8.708 3.317 12.689 6.288 3.981 2.972 5.225 4.469 3.732 4.469-9.952-4.192-20.9-6.266-32.843-6.266-7.484-.598-13.953.6-19.408 3.594l-6.718 4.469L109 34.067c5.474.6 10.45 2.396 14.909 5.39 2.508 2.396 6.967 6.588 13.436 12.577 8.46 7.786 11.465 11.68 8.977 11.68-7.962-5.391-17.417-10.482-28.365-15.273-6.967-3.593-13.168-4.791-18.661-3.593l-6.737 2.695 19.426 9.905c5.972 4.192 10.699 12.876 14.164 26.052 1.225 3.916 2.354 6.91 3.368 8.984l-9.321-8.086c0-3.593-4.727-10.181-14.182-19.763-3.981-4.193-8.709-6.588-14.182-7.187h-7.465l.746 9.882c0 1.796 1.493 4.79 4.48 8.983 2.487 4.791 4.459 9.283 5.97 13.476 1.991 8.384.996 9.582-2.985 3.593-4.976-8.984-8.44-16.17-10.45-21.584-.996-2.994-3.713-6.564-8.211-10.78-4.976-3.57-8.211-6.265-9.704-8.085-1.493-1.82-8.708-6.888-21.647-15.272-2.986-1.797-5.722-2.396-8.23-1.797-2.966 1.198-5.722 1.497-8.21.898-3.982-.576-8.958-1.796-14.93-3.593l-7.464-3.57C1.742 28.378.498 26.58 0 24.209v-2.696l7.484 3.594c5.971 1.796 10.928 2.695 14.91 2.695 8.459.576 16.67-.3 24.632-2.695 7.962-2.396 18.68-9.283 32.097-20.663 6.986-4.814 16.69-5.712 29.13-2.718z"/><path id="path111_fill" fill-rule="evenodd" d="M10.412 7.187C9.914 4.79 8.65 2.396 6.68 0l2.985 2.695 14.93 10.78c1.99 2.396 3.234 5.091 3.712 8.086l5.991 12.577c2.488 5.989 2.488 8.684 0 8.108-1.99 1.198-3.732 1.474-5.225.898-.995-.599-2.24-.599-3.732 0l-1.493 1.797-.727-.921c0-2.396-.498-4.47-1.493-6.266l-3.733-3.593-8.957 6.288-.746 3.57H4.459v-4.468l-3.713-.898L0 19.787l.746 5.39c0 2.396 1.225 4.791 3.713 7.187 1.493 1.797 3.503 2.12 5.991.898 1.493-1.773 2.737-2.096 3.713-.898l-1.493-4.469 2.259-5.39c-1.493-2.396-2.507-4.192-2.986-5.39l-1.531-9.928z"/><path id="path112_fill" fill-rule="evenodd" d="M29.877 20.64c1.493 1.796 2.24 4.215 2.24 7.21l1.492 3.593c.995.576 1.474 1.796 1.474 3.593l-1.474 3.57c-.498 2.396-1.244 3.594-2.24 3.594-1.492.576-3.732-2.096-6.736-8.108-6.47-8.362-9.953-13.775-10.45-16.148 0-2.395-.48-4.492-1.493-6.288L7.484 5.367 0 0l8.23 1.797c5.474 1.796 9.455 4.192 11.943 7.187l9.704 11.655z"/><path id="path113_fill" fill-rule="evenodd" d="M29.13 17.069L20.9 10.78c-5.473-4.79-8.44-7.187-8.957-7.187L0 0l17.15 1.797C24.115 3.593 27.866 4.79 28.364 5.39c.478 1.198 2.488 1.797 5.971 1.797 5.991-2.396 8.958-3.893 8.958-4.492v-.898c1.99 2.994 1.99 5.113 0 6.288-6.47 2.995-9.953 4.469-10.45 4.469l-1.494 3.594c-.478 1.22-1.224 1.52-2.22.92z"/><path id="path114_fill" fill-rule="evenodd" d="M58.26.898V0l1.494 5.39c0 2.396 1.492 4.193 4.478 5.367l-5.99 4.492c0 .576-1.99.3-5.991-.898-1.99-1.198-4.708-2.695-8.21-4.492-3.484 0-6.949-.576-10.451-1.797L20.9 6.29c-2.966-.6-7.215-.323-12.67.898L0 8.96C4.976 5.966 7.713 3.87 8.23 2.695h10.431L29.858.898h9.703c1.493 0 5.225.899 11.216 2.695 5.99 1.198 8.46.3 7.484-2.695z"/><path id="path115_fill" fill-rule="evenodd" d="M13.417 5.367h-4.46L0 0l11.197.898c1.493 0 3.713 1.774 6.718 5.368.995 1.197 4.478 2.395 10.45 3.593 2.986 1.198 4.995 2.695 5.99 4.492 1.493 2.994 2.986 5.09 4.46 6.265 2.488 1.797 5.742 2.995 9.723 3.594 3.483 1.796 4.727 5.09 3.713 9.882l-2.22-4.47-6.737-2.694c-4.48 0-7.465-.6-8.958-1.797-1.99-1.22-4.249-2.096-6.737-2.695-1.99 0-3.234-.599-3.713-1.797-.497-1.796-1.014-3.294-1.493-4.468-1.493-3.594-2.986-6.289-4.478-8.109-1.512-2.395-3.005-3.27-4.498-2.695z"/><path id="path116_fill" fill-rule="evenodd" d="M33.59 0c3.483 1.22 5.474 2.995 5.971 5.39.498 1.198 0 1.497-1.492.899-2.967-1.198-4.977-1.797-5.972-1.797H0l8.957-2.695 12.69.898c2.986 0 6.967-.898 11.943-2.695z"/><path id="path117_fill" fill-rule="evenodd" d="M14.007 3.57c.478 1.797 0 3.018-1.493 3.594-2.986 2.395-5.99 2.395-8.957 0-4.48-1.797-4.728-2.695-.747-2.695C4.284 3.869 5.777 2.373 7.27 0l6.737 3.57z"/><path id="path118_fill" fill-rule="evenodd" d="M8.957 5.39c.498 0 1.015.6 1.493 1.797 1.015 1.22 1.244 2.12.747 2.695l-2.986 5.39c-.995 2.396-1.742.3-2.22-6.288L0 0l8.957 5.39z"/><path id="path119_fill" fill-rule="evenodd" d="M11.197 15.424l5.225 6.265c-3.503 0-5.991.599-7.484 1.797-1.99.599-3.483-.3-4.46-2.695l-1.492-8.086C2.986 9.112 1.99 4.92 0 .128c0-.599 1.244.899 3.732 4.492 3.981 6.634 6.47 10.205 7.465 10.803z"/><path id="path120_fill" fill-rule="evenodd" d="M15.675 22.459c3.981 2.994 4.976 4.215 2.986 3.593l-5.972.899c-2.985-2.995-4.727-5.69-5.225-8.108C7.464 16.447 4.976 10.18 0 0l7.464 9.882c.498.599 1.493 2.695 2.967 6.289 1.493 2.994 3.254 5.09 5.244 6.288z"/><path id="path121_fill" fill-rule="evenodd" d="M7.445 9.905c.498.599 1.742 4.791 3.732 12.6.479 2.396.25 4.192-.746 5.367-.995 1.221-1.99 1.497-2.986.898V18.89c0-2.995-1.244-5.99-3.732-9.007L0 0l2.24 4.492c1.454 1.82 3.215 3.616 5.205 5.413z"/><path id="path122_fill" fill-rule="evenodd" d="M18.642 0c6.967 1.198 8.957 2.396 5.99 3.57L14.91 7.164 0 8.96l5.206-4.492c2.986 0 5.723-1.474 8.23-4.469h5.206z"/><path id="path123_fill" fill-rule="evenodd" d="M.187 110.498c.497-13.775.497-24.854 0-33.239C-.81 61.111 2.177 35.359 9.144 0v5.39c.498 4.192 1.99 8.385 4.479 12.577 1.493 3.594 3.732 7.187 6.717 10.78l2.24 14.374c1.99 8.984 5.971 15.572 11.943 19.764l24.633 23.358c10.45 9.582 16.67 23.956 18.68 43.121 1.473 9.582 1.741 18.266.727 26.052-2.986 7.187-5.206 11.379-6.718 12.577-2.488 1.797-8.709 3.594-18.661 5.39-9.455 1.797-19.407-2.119-29.858-11.701-8.46-7.763-14.68-16.148-18.66-25.154-2.489-5.966-3.982-14.651-4.48-26.03z"/><path id="path124_fill" fill-rule="evenodd" d="M72.405 105.085c-2.967 4.791-7.216 9.882-12.69 15.249-5.474 5.39-10.45 8.684-14.91 9.905-13.435 4.193-25.13 5.091-35.082 2.672-5.99-1.198-8.957-2.096-8.957-2.672-.498-.599-.766-7.21-.766-19.764 14.929-22.758 32.116-37.431 51.504-44.02 1.015-.575 5.991-1.197 14.93-1.796 2.985 0 4.976-3.57 5.97-10.78.499-7.187 0-13.775-1.492-19.741-2.488-7.786-3.713-12.9-3.713-15.272C66.7 11.08 64.959 4.79 61.974 0c18.412 10.78 29.609 21.56 33.609 32.341 4.459 10.158 7.196 19.464 8.211 27.85l10.45-2.696-17.168 19.74c-14.45 14.375-22.661 23.635-24.671 27.85z"/><path id="path125_fill" fill-rule="evenodd" d="M148.542 90.803l-8.575 10.32c-2.775 1.451-6.373 4.584-10.833 9.421-7.942 9.583-13.684 15.848-17.149 18.866-5.474 4.192-12.938 5.091-22.393 2.672-13.436 1.221-22.89 2.119-28.365 2.695-8.957 0-16.172-7.463-21.646-22.459-2.986-5.39-4.977-9.007-5.972-10.803-1.99-2.972-4.976-5.091-8.957-6.266L.766 86.266l5.971-2.696c4.479-1.796 8.211-2.096 11.197-.898 14.43 5.99 17.168 5.09 8.21-2.695-3.483-2.994-7.464-5.39-11.962-7.187-3.483-1.22-5.971-3.017-7.464-5.39-1.99-3.593-3.732-7.786-5.225-12.577L0 47.613c16.422 15.595 21.647 17.69 15.675 6.289C8.211 38.952 4.48 28.472 4.48 22.459L5.225 0l14.183 44.02 5.225 11.678 2.985-8.983v-5.39l2.24 2.695c1.493 2.994 2.488 6.887 2.985 11.678l1.493 26.951c8.958 1.797 12.69-.898 11.197-8.108-.995-4.791-.995-8.661 0-11.679l2.24-3.57 4.478 26.95c0 13.153 6.47 22.16 19.407 26.951 13.953 5.367 24.384 2.097 31.37-9.905 8.957-17.368 16.671-27.25 23.14-29.623 5.971-1.796 11.445-2.395 16.402-1.796-2.488 1.198-5.206 2.672-8.211 4.469-4.976 3.593-6.966 7.21-5.99 10.803 1.493 4.192 4.479 5.367 8.976 3.593 3.981-1.796 7.943-5.39 11.943-10.803.479-.576 3.981-3.593 10.451-8.984 2.985-2.395 4.229-7.21 3.713-14.373-.479-12.002-2.737-23.058-6.718-33.24 6.469 10.182 9.971 21.262 10.45 33.24.497 7.785-1.225 14.373-5.225 19.74-5.455 6.105-9.934 10.896-13.417 14.49zm-8.575 10.32c3.407-1.82 5.513-1.083 6.336 2.234l-6.738-1.796.402-.438z"/><path id="path126_fill" fill-rule="evenodd" d="M.155 2.492C-.86-.503 3.12-.802 12.078 1.616c8.46 2.396 14.7 4.768 18.68 7.187 7.465 5.39 5.207 5.09-6.717-.898C18.05 5.509 13.093 4.31 9.11 4.31c-3.502.6-4.727 2.096-3.731 4.492 3.98 12.001 11.464 20.962 22.393 26.95 5.99 3.594 11.943 4.792 17.934 3.594 5.971-.599 7.943-2.096 5.971-4.492-6.469-7.785-14.182-13.475-23.14-17.068-7.464-2.995-9.952-1.797-7.464 3.593 1.99 3.594 5.723 5.09 11.197 4.492 1.895.737 3.12 1.198 3.713 1.359-1.665 2.626-5.168 3.087-10.45 1.359-7.465-2.994-11.197-8.385-11.197-16.17 0-3.018 2.986-3.318 8.957-.899 5.99 1.797 11.197 4.469 15.675 8.085 16.422 11.38 23.14 18.866 20.154 22.483-5.473 6.587-15.426 5.69-29.857-2.696C13.839 30.94 4.136 18.662.155 2.492z"/><path id="path127_fill" fill-rule="evenodd" d="M23.905 7.486C26.891 1.497 33.61-.898 44.06.3c8.46.576 13.436 5.091 14.929 13.476 1.474 12.577 2.488 19.165 2.967 19.74 2.985 5.39 3.732 9.583 2.239 12.578-.995 1.22-4.23 4.492-9.704 9.905a47.151 47.151 0 0 1-11.196 7.187c-5.972 2.395-9.206 3.593-9.704 3.593-2.986 1.797-7.465.599-13.436-3.593-5.972-3.594-10.45-7.786-13.436-12.577C2.239 44.618 0 36.833 0 27.25c0-1.22 3.732-4.215 11.197-9.006C18.68 13.475 22.91 9.882 23.905 7.486z"/><path id="path128_fill" fill-rule="evenodd" d="M27.972.291c5.971 2.396 9.455 5.368 10.45 8.984.498 2.396-1.244 6.288-5.225 11.679-4.46 5.39-10.45 8.684-17.915 9.905C7.32 32.056 2.344 29.96.354 24.57-1.14 19.78 2.095 14.09 10.057 7.501 18.02 1.49 23.991-.883 27.972.291z"/><path id="path129_fill" fill-rule="evenodd" d="M39.615 5.556c2.985 1.796 4.976 3.916 5.971 6.288 0 .6.25 3.294.766 8.085.498 3.018-1.493 5.69-5.99 8.109-5.972 2.395-10.7 4.192-14.183 5.367-4.479 1.797-10.202.322-17.168-4.469C2.54 24.744-.444 20.551.053 16.36c.498-3.018 3.484-5.39 8.958-7.21 6.966-2.994 11.196-5.09 12.69-6.265C24.187.488 26.427-.433 28.417.189c1.99.621 5.723 2.372 11.197 5.367z"/><path id="path130_fill" fill-rule="evenodd" d="M23.936.1c8.957 1.198 11.197 6.288 6.718 15.272-3.483 5.989-8.44 12.001-14.929 17.967-3.483 2.995-6.47 2.695-8.957-.898-.996-1.198-2.986-5.09-5.972-11.679-1.99-4.791-.249-9.582 5.225-14.374C11.495 1.598 17.448-.499 23.936.1z"/><path id="path131_fill" fill-rule="evenodd" d="M27.824 1.588c5.474 1.796 7.216 5.39 5.225 10.78-1.014 4.192-3.732 8.108-8.23 11.702-2.966 2.395-6.718 2.672-11.196.875-4.977-2.396-8.958-5.99-11.944-10.78C-1.306 9.373-.31 5.48 4.665 2.486c5.493-2.995 13.187-3.271 23.16-.898z"/><path id="path132_fill" fill-rule="evenodd" d="M62.252 19.225c3.962 3.593 4.958 8.085 2.967 13.475-.995 2.995-3.235 7.487-6.718 13.476-1.99 4.192-4.479 6.588-7.483 7.187-2.489 0-7.465-1.198-14.91-3.57-9.455-2.995-16.92-4.493-22.393-4.493-5.474 0-9.972-4.79-13.436-14.373-1.015-4.193.746-8.086 5.205-11.68 4.48-3.592 9.972-5.988 16.422-7.209l5.206-9.882c1.493-3.593 6.737-2.695 15.675 2.695 6.527 4.192 12.996 8.984 19.465 14.374z"/><path id="path133_fill" fill-rule="evenodd" d="M12.316.112C30.25 1.91 32.72 8.82 19.781 20.775c-2.488 2.395-5.723 2.695-9.704.898-3.981-3.593-6.718-5.99-8.21-7.21-2.489-1.797-2.489-4.791 0-8.984C4.353 1.31 7.836-.487 12.316.112z"/><path id="path134_fill" fill-rule="evenodd" d="M13.116.225c5.972 1.197 6.967 3.593 2.986 7.21-4.479 4.192-8.709 4.79-12.69 1.796-3.98-3.017-4.478-5.39-1.493-7.21C4.408.225 8.14-.374 13.116.225z"/><path id="path135_fill" fill-rule="evenodd" d="M27.015 1.095c5.474 1.221 8.23 6.588 8.23 16.171 0 5.989-7.962 7.786-23.886 5.39C2.899 22.057-.852 16.368.162 5.587c.995-5.39 9.953-6.864 26.853-4.492z"/><path id="path136_fill" fill-rule="evenodd" d="M20.818.096c14.431 1.198 22.125 6.266 23.14 15.25.995 7.21-1.493 14.373-7.465 21.583-3.98 4.192-6.967 5.69-8.976 4.469-5.972-4.193-9.187-6.266-9.704-6.266-3.981-1.198-6.718-3.593-8.21-7.21-2.489-4.192-4.728-7.187-6.738-8.983-4.46-2.396-3.713-6.266 2.24-11.679C10.616 1.87 15.841-.526 20.817.096z"/><path id="path137_fill" fill-rule="evenodd" d="M17.915 3.636c3.502 1.221 4.478 5.114 2.985 11.702-.995 6.565-3.234 11.356-6.718 14.35-2.488 3.018-5.474.922-8.976-6.265C1.723 16.835 0 10.846 0 5.456c.02-6.611 5.972-7.21 17.915-1.82z"/><path id="path138_fill" fill-rule="evenodd" d="M15.142 0c3.981 0 6.22 1.22 6.718 3.593l-.746 9.007c-.498 3.57-1.99 5.667-4.479 6.266h-8.21c-2.987.599-5.226 0-6.719-1.797-1.99-1.797-2.24-2.995-.746-3.594.995-1.197 3.483-3.57 7.464-7.186 1.99-3.594 4.23-5.69 6.718-6.289z"/><path id="path139_fill" fill-rule="evenodd" d="M12.903.064c6.469-.599 7.713 2.995 3.732 10.78-1.493 1.797-4.23 2.396-8.21 1.797-3.982 0-6.47-1.198-7.465-3.593-2.986-4.814.995-7.81 11.943-8.984z"/><path id="path140_fill" fill-rule="evenodd" d="M10.616.064c5.474-.599 5.474 2.995 0 10.78-4.976 7.21-8.46 7.21-10.45 0-.995-5.39 2.488-8.983 10.45-10.78z"/><path id="path141_fill" fill-rule="evenodd" d="M13.082.15c2.986.599 4.23 1.797 3.732 3.593-.497 1.198-1.493 2.695-2.986 4.492-.995 1.797-3.234 3.294-6.718 4.469-3.98.599-6.24 0-6.737-1.774-.995-1.797 0-4.215 2.986-7.21C6.364.75 9.599-.45 13.082.15z"/><path id="path142_fill" fill-rule="evenodd" d="M7.484 1.427c2.985 2.396 3.234 5.091.746 8.086-2.488 3.017-4.727 3.593-6.737 1.796-1.99-1.796-1.99-4.468 0-8.085 1.493-3.593 3.502-4.17 5.99-1.797z"/><path id="path143_fill" fill-rule="evenodd" d="M9.704.3c4.478.575 4.727 2.994.746 7.186-1.99 2.396-4.23 3.594-6.718 3.594C1.244 11.679 0 10.504 0 7.486.02 1.497 3.254-.898 9.704.3z"/><path id="path144_fill" fill-rule="evenodd" d="M11.645.15c4.976-.6 8.46.599 10.45 3.593 1.493 2.396 1.244 4.791-.728 7.187-1.014 1.797-3.98 1.797-8.976 0C7.415 9.732 3.7 7.636 1.194 4.665-.796 2.269-.299.772 2.687.173 4.697.15 7.663.15 11.645.15z"/><path id="path145_fill" fill-rule="evenodd" d="M12.796.215c5.474 1.797 7.465 4.215 5.972 7.21-.479 1.774-2.24 4.768-5.206 8.983-.995 2.396-3.503 2.695-7.484.899C2.098 14.91.107 12.193.107 9.199-.391 6.803.853 4.43 3.82 2.012 6.825.215 9.81-.361 12.796.215z"/><path id="path146_fill" fill-rule="evenodd" d="M3.11.142c2.986 0 4.479 2.395 4.479 7.21-.498 5.367-1.99 6.887-4.479 4.492C.622 10.046-.373 7.352.124 3.735.622.741 1.617-.435 3.11.142z"/><path id="path147_fill" fill-rule="evenodd" d="M3.99.225C9.466.8 10.729 2.92 7.724 6.49c-2.488 2.995-4.727 2.995-6.718 0C-.009 5.292-.239 3.818.24 2.021.756.225 2-.374 3.99.225z"/><path id="path148_fill" fill-rule="evenodd" d="M26.125 7.164c2.986 1.797 1.493 6.289-4.478 13.499-3.484 3.57-10.7.575-21.647-9.007.498-1.797 1.244-3.594 2.24-5.39C3.731 2.073 5.971 0 8.956 0c3.484-.023 9.206 2.396 17.168 7.164z"/><path id="path149_fill" fill-rule="evenodd" d="M17.275 2.218c5.474 2.395 8.46 3.893 8.957 4.468 0 .6-.995 2.097-2.986 4.492-2.488 3.594-7.215 6.266-14.182 8.108C4.088 15.694 1.102 11.777.107 7.585-.87-.201 4.853-1.998 17.275 2.218z"/><path id="path150_fill" fill-rule="evenodd" d="M15.816 0c4.48 0 7.963 1.198 10.45 3.57 2.987 2.396 3.235 4.792.747 7.21-3.483 2.995-6.22 4.193-8.21 3.57-8.46-1.197-14.183-3.293-17.169-6.265C-2.845 2.672 1.883 0 15.816 0z"/><path id="path151_fill" fill-rule="evenodd" d="M26.94 13.475c-5.474 9.007-12.192 13.476-20.154 13.476-4.976 0-7.216-2.995-6.718-8.984l2.24-9.905L3.8 4.492C5.79 1.474 7.762 0 9.772 0c3.483 0 9.206 4.515 17.168 13.475z"/><path id="path152_fill" fill-rule="evenodd" d="M32.843 7.141c2.508 1.797 3.503 4.492 2.986 8.109-.478 3.593-3.483 6.265-8.976 8.085-5.455 1.797-8.69 2.096-9.685.898l-.746-2.695L0 .9 19.407.001c3.503-.046 7.982 2.35 13.436 7.14z"/><path id="path153_fill" fill-rule="evenodd" d="M28.365 4.043c-.498 10.78-4.25 15.848-11.197 15.272L0 16.62 9.723 4.043c4.46-5.39 10.66-5.39 18.642 0z"/><path id="path154_fill" fill-rule="evenodd" d="M17.149.45c9.972 2.994 8.728 8.683-3.713 17.068-2.967 1.797-6.201.3-9.704-4.492L0 4.941l2.24-.898C8.708.449 13.665-.75 17.148.449z"/><path id="path155_fill" fill-rule="evenodd" d="M11.197.052c8.44 1.797 10.699 6.588 6.718 14.374-2.489 4.791-8.44 5.69-17.915 2.695l.727-4.492C2.24 3.646 5.723-.523 11.197.052z"/><path id="path156_fill" fill-rule="evenodd" d="M12.45.578C32.353 7.788 28.372 14.053.505 19.443-.508 17.047.008 13.154 2 7.764 3.473 1.176 6.975-1.219 12.449.578z"/><path id="path157_fill" fill-rule="evenodd" d="M17.168 1.78c9.455 4.79 11.694 9.582 6.718 14.373-2.986 2.995-6.967 3.893-11.943 2.695-2.986-.599-5.971-2.994-8.957-7.21L0 5.373l3.732-3.594c3.484-2.372 7.962-2.372 13.436 0z"/><path id="path158_fill" fill-rule="evenodd" d="M12.173 0l5.971 1.797c.498 0 .498.576 0 1.796-.478 1.774-6.22 5.667-17.149 11.68-.497-.6-.746-1.498-.746-2.696C-.25 9.583 0 6.887.995 4.47 2.488 2.073 4.708.576 7.713 0h4.46z"/><path id="path159_fill" d="M1.85 43.574l1.375 12.963C.602 49.781-.558 41.62.257 31.76 1.147 21.013 5.928 10.368 13.492 0L3.837 20.927 1.85 43.574z"/><path id="path160_fill" d="M412.177 134.546a45.8 45.8 0 0 1-1.692 6.619c-2.089 6.204-5.249 10.942-8.594 14.516l-2.414 4.072s-1.135.341-3.067.793c-.476.348-.94.671-1.4.979 2.671 2.399 2.712 5.104-7.061 4.938-.277.133-.564.244-.852.359.979 3.597 3.787 15.746 4.188 38.223l1.831 18.716-8.347 62.774-.839 2.593c-3.083 18.258-7.324 38.76-13.082 61.659-33.396 132.936-126.435 80.748-126.435 80.748l-1.149-1.421c-36.938 45.241-80.163 12.254-80.163 12.254s-14.701 25.913-39.56 58.095c-54.075 71.885-93.04 58.098-108.945 41.36-6.377-6.713-11.34-15.647-13.471-25.969a55.455 55.455 0 0 1-.99-15.027c.052-.29.09-.555.148-.854 2.387-12.804 5.567-20.187 11.928-30.034 3.001-4.649 8.929-12.257 15.142-20.292 6.953-8.987 14.268-18.504 18.257-25.006 4.655-7.584 13.986-18.344 20.469-25.489 16.963-25.148 29.11-48.03 37.689-66.93l7.371-17.348a362.312 362.312 0 0 0 1.588-4.082l9.014-31.163-.883-1.093-1.31-.439c-7.166 1.499-60.664 11.791-88.806-8.64l-3.025.587-10.335-12.803-.612-5.747-1.377-12.963 1.989-22.647 9.655-20.924 1.476-3.203 7.094-7.201a161.827 161.827 0 0 1 7.632-7.745l9.526-9.671 26.243-18.711 5.064-2.867c21.247-13.667 44.641-25.944 66.18-36.162l11.062-5.772 39.762-16.74 10.181-3.63c8.828-3.396 14.073-5.234 14.073-5.234s-.487-6.001-.922-14.346l-1.864-4.364 1.302-10.203c-.07-2.826-.109-5.69-.109-8.505 0-5.121 1.069-10.901 3.292-16.465l.286-2.247 1.291-1.258c6.11-12.19 18.168-22.322 37.276-20.4 29.425 2.95 147.116 72.862 147.116 123.083.094 4.115-.216 7.839-.821 11.227z"/><path id="path161_fill" d="M21.867 86.652s-21.075-45.3-1.99-59.572c19.087-14.282 72.365 22.157 107.357 52.191 69.182 65.972 22.263 79.756 5.164 73.849 16.703 10.836 44.532 2.461 44.532 2.461l13.123-22.155-2.387-17.23-5.563-16.743-26.641-30.032-49.303-40.37L54.869 0 21.867.981 4.77 17.721 0 55.141l10.735 25.111 11.132 6.4z"/><path id="path162_fill" d="M25.049 191.034s-14.314-8.861-14.314-25.111c0-16.247.797-31.508 43.338-59.084 73.955-49.725 165.009-74.833 165.009-74.833s10.733 9.97 40.852 14.766c-1.788-1.475-11.033-3.938-24.154-20.678C222.659 9.354 214.71 0 214.71 0l-29.029 10.34-39.762 16.74-40.554 21.17-41.75 23.632-26.24 18.71L13.12 115.21 1.987 139.336 0 161.984l1.987 18.71 10.34 12.803 12.722-2.463z"/><path id="path163_fill" d="M5.368 181.675s5.96-39.878 8.945-93.053C17.293 35.45 0 0 0 0l23.259 5.167 3.577 9.6 4.773 48.745-8.35 62.775-17.891 55.388z"/><path id="path164_fill" d="M105.037 12.771s19.085-.988 34.991-10.342c15.902-9.357 21.071 9.847 10.734 31.51-10.342 21.664-52.088 103.886-85.883 140.813-33.797 36.928-52.485 46.281-54.076 70.406-1.59 24.126 11.53 34.962 11.53 34.962s-10.735 0-15.904-13.296c-5.168-13.294-7.952-14.28-5.564-27.08 2.385-12.801 5.564-20.187 11.928-30.034 6.36-9.847 25.845-32.988 33.398-45.298 7.554-12.309 27.436-32.987 27.436-32.987l23.458-42.344 15.904-37.418 9.54-32.984-17.492-5.908z"/><path id="path165_fill" d="M122.933 5.594s-.002.018-.03.15c-.027.13-.076.341-.142.633-.133.588-.345 1.492-.653 2.697-.618 2.41-1.607 6.022-3.079 10.688-2.945 9.331-7.818 22.882-15.469 39.475-15.302 33.188-41.712 78.549-86.125 126.736l-.213.231-.207.272C5.228 201.994-.018 218.218 0 233.215c.004 17.561 7.053 32.586 16.707 42.715 7.586 7.999 19.553 15.164 35.067 15.164 21.873-.008 49.849-14.196 82.051-57.043 35.496-45.978 64.989-102.312 65.104-102.508 1.792-3.424 1.008-8.002-1.755-10.221-2.763-2.219-6.456-1.245-8.252 2.176 0 .003-.433.829-1.291 2.428a689.198 689.198 0 0 1-3.767 6.896 888.54 888.54 0 0 1-13.824 24.04c-11.627 19.531-27.608 44.682-44.888 67.052-30.956 41.104-55.863 52.412-73.378 52.407-12.492 0-21.71-5.732-27.343-11.644a45.67 45.67 0 0 1-12.503-31.462c.02-10.643 3.543-22.958 13.6-36.388C116.245 98.312 134.302 10.284 134.507 9.178c.799-3.955-1.143-7.966-4.341-8.957A4.892 4.892 0 0 0 128.716 0c-2.673 0-5.105 2.24-5.783 5.594z"/><path id="path166_fill" d="M90.13 3.175c-9.099 16.209-18.465 26.033-27.367 31.894-8.903 5.849-17.42 7.803-25.078 7.814-15.518.053-27.489-8.424-28.49-9.21l-.054-.04c-2.785-2.173-6.47-1.134-8.225 2.318-1.753 3.452-.915 8.012 1.874 10.183.526.36 14.668 11.456 34.895 11.519 9.315.01 19.925-2.458 30.677-9.542 10.756-7.069 21.574-18.685 31.566-36.513 1.876-3.347 1.209-7.95-1.496-10.276C97.391.43 96.207 0 95.031 0c-1.888.003-3.744 1.11-4.901 3.175z"/><path id="path167_fill" d="M220.781 16.339c-7.184 9.526-10.556 21.244-10.587 31.653.004 12.038.706 24.744 1.184 32.039-19.196 7.069-92.62 35.242-147.421 72.873-21.192 14.6-39.66 30.515-51.415 48.05-6.688 10.033-11.273 20.802-12.25 32.393A82.534 82.534 0 0 0 0 240.19c-.026 11.577 2.714 21.554 7.45 29.34 4.724 7.803 11.215 13.359 18.405 17.322 14.414 7.892 31.905 9.9 47.583 9.938 21.881-.01 40.205-4.178 40.421-4.217 3.239-.737 5.384-4.585 4.793-8.596-.598-4.013-3.703-6.67-6.944-5.935-.002 0-1.023.234-2.983.605-1.962.374-4.815.874-8.319 1.373-7.01.998-16.64 2-26.968 2-11.084.01-22.988-1.172-33.192-4.56-10.255-3.37-18.539-8.922-23.248-16.789-3.157-5.271-5.043-11.649-5.072-20.481 0-1.688.074-3.467.228-5.333.546-6.667 3.058-13.815 7.55-21.285 4.472-7.455 10.87-15.116 18.673-22.642 15.606-15.081 36.765-29.61 59.054-42.515 44.592-25.85 93.702-45.358 113.225-52.699 5.581-2.102 8.709-3.192 8.717-3.2l4.808-1.68-.495-6.161c0-.013-.388-4.8-.782-11.832-.392-7.033-.78-16.255-.78-24.851-.029-6.365 2.295-14.944 7.346-21.534 5.068-6.589 12.634-11.632 24.246-11.685 1.318 0 2.689.066 4.106.208 3.859.356 10.85 2.489 19.235 6.096 8.424 3.604 18.396 8.642 28.926 14.711 21.066 12.135 44.403 28.443 62.46 45.537 12.043 11.356 21.705 23.171 26.756 33.612 2.911 5.964 4.268 11.314 4.258 15.772V130.88c.008.472.012.91.012 1.311-.078 13.629-4.892 21.194-10.212 26.478-5.238 5.091-11.004 7.071-11.446 7.196v-.003l-6.833 1.993 2.687 8.014h-.002c.016.049.047.153.092.31.093.321.238.857.425 1.62.374 1.532.897 3.967 1.429 7.384 1.071 6.827 2.18 17.553 2.18 32.672 0 28.877-4.054 73.798-20.213 138.126-9.085 36.071-22.361 57.155-36.486 69.503-14.136 12.33-29.469 16.138-43.249 16.148-20.251.036-36.804-8.474-38.421-9.369l-.124-.069h.002c-3.001-1.687-6.537-.035-7.896 3.681-1.357 3.713-.027 8.088 2.974 9.773.444.219 19.053 10.714 43.465 10.757 15.518.01 33.542-4.369 50.12-18.848 16.589-14.452 31.379-38.792 41.006-77.189 16.46-65.515 20.752-111.923 20.752-142.513 0-19.641-1.776-32.759-3.223-40.181a44.773 44.773 0 0 0 3.828-2.3c5.259-3.531 11.752-9.453 16.2-19.15 2.958-6.444 4.887-14.527 4.875-24.033 0-.541-.008-1.052-.016-1.548-.089-12.165-5.116-23.519-12.448-34.43-7.408-10.94-17.441-21.591-28.825-31.735-22.766-20.26-50.965-38.414-74.132-50.264C280.446 6.327 267.527 1.207 258.786.259a51.119 51.119 0 0 0-5.07-.259h-.162c-14.473 0-25.629 6.86-32.773 16.339z"/><path id="path168_fill" d="M32.855.516C18.657 6.56 0 0 0 0s22.087 14.681 33.867 8.957c17.991.31 2.744-9.13-1.012-8.441z"/><path id="path169_fill" d="M4.052 1.547c3.845 48.178 48.032 79.09 48.032 79.09S20.704 66.99 1.921 36.358C.96 32.74 0 17.977 0 17.977s3.307-24.23 4.052-16.43z"/><path id="path170_fill" d="M0 58.392s9.742-19.445 10.934-45.295c.996-2.214 13.915-30.524 13.718 3.694C24.453 51.008 0 58.392 0 58.392z"/><path id="path171_fill" d="M2.014 29.763C3.85 17.699 0 8.73 0 8.73s11.725-19.125 11.616-.76c-.109 18.364-8.757 20.56-9.602 21.793z"/><path id="path172_fill" d="M.02 25.302c.343 6.334 13.983 6.756 19.098-5.066 5.117-11.825-7.5-24.917-9.204-18.583-1.708 6.334.68 6.334-2.732 12.668C3.774 20.655-.321 18.968.02 25.301z"/><path id="path173_fill" d="M.017 20.848c.28 5.22 11.521 5.567 15.735-4.176 4.216-9.74-6.18-20.53-7.584-15.31-1.406 5.221.56 5.221-2.248 10.44-2.814 5.22-6.187 3.825-5.903 9.046z"/></defs></svg>