<svg width="485" height="473" viewBox="0 0 485 473" fill="none" xmlns="http://www.w3.org/2000/svg">
<path fill-rule="evenodd" clip-rule="evenodd" d="M110.736 210.67C110.723 210.313 110.71 209.953 110.695 209.591C106.884 112.07 190.255 39.5791 275.918 39.5791C361.581 39.5791 443.328 107.09 443.328 209.591C443.328 257.02 421.302 301.578 392.265 330.114C358.548 363.249 314.919 376.613 278.144 376.613C209.699 376.613 162.281 328.238 162.281 328.238L131.814 356.882C131.814 356.882 162.591 384.221 187.898 395.93C213.205 407.639 220.615 414.727 275.918 415.962C323.416 417.022 367.752 395.799 396.579 376.613C477.734 322.601 484.035 245.47 484.035 210.126C484.035 174.783 476.992 105.407 409.416 48.0747C377.814 21.2637 336.708 8.79367e-07 272.023 0C211.695 -8.20139e-07 165.809 27.7763 135.881 53.8607C65.1006 115.551 67.9849 210.126 67.9849 210.126C67.9849 210.126 68.076 210.316 68.2498 210.67H0L91.943 305.569L186.856 210.67H110.736Z" fill="#FF9138"/>
<path fill-rule="evenodd" clip-rule="evenodd" d="M1.07422e-05 -7.93457e-07V110.858L98.524 170.698L115.281 147.379L32.442 97.19V-7.93457e-07H1.07422e-05Z" transform="translate(257.161 122.307)" fill="#FF9138"/>
</svg>
