<svg width="53" height="63" viewBox="0 0 53 63" fill="none" xmlns="http://www.w3.org/2000/svg">
<path fill-rule="evenodd" clip-rule="evenodd" d="M25.2079 0C33.8079 0 40.7079 6.90002 40.7079 15.5C40.7079 24 33.8079 30.9 25.2079 30.9C16.6079 30.9 9.70788 24 9.70788 15.5C9.70788 6.90002 16.6079 0 25.2079 0ZM25.2079 4C18.9079 4 13.7079 9.20001 13.7079 15.5C13.7079 21.8 18.9079 26.9 25.2079 26.9C31.5079 26.9 36.7079 21.8 36.7079 15.5C36.7079 9.20001 31.5079 4 25.2079 4ZM6.70788 62.2C1.9079 62.2 -1.29212 57.3 0.507932 52.9C5.10791 41.7 14.6079 34.1 25.6079 34.1C36.5079 34.1 46.0079 41.7 50.7079 52.9C52.5079 57.3 49.3079 62.2 44.5079 62.2H6.70788ZM47.0079 54.5C42.8079 44.4 34.6079 38.1 25.6079 38.1C16.6079 38.1 8.4079 44.4 4.20788 54.5C3.72772 55.6523 4.16974 56.528 4.38275 56.95L4.4079 57C4.70788 57.4 5.4079 58.2 6.70788 58.2H44.5079C45.8079 58.2 46.6079 57.4 46.8079 57C47.0079 56.7 47.5079 55.7 47.0079 54.5Z" transform="translate(0.792114)" fill="#FF9138"/>
</svg>
