<?xml version="1.0" encoding="utf-8"?>
<svg xmlns="http://www.w3.org/2000/svg" xmlns:xlink="http://www.w3.org/1999/xlink">
    <symbol id="copy" viewBox="0 0 16 20">
        <path d="M13.854,4.146l-4-4C9.76,0.053,9.633,0,9.5,0h-4C4.673,0,4,0.673,4,1.5V4H2.5C1.673,4,1,4.673,1,5.5v9  C1,15.327,1.673,16,2.5,16h7c0.827,0,1.5-0.673,1.5-1.5V12h1.5c0.827,0,1.5-0.673,1.5-1.5v-6C14,4.367,13.947,4.24,13.854,4.146z   M10,1.707L12.293,4H10V1.707z M10,14.5c0,0.275-0.225,0.5-0.5,0.5h-7C2.224,15,2,14.775,2,14.5v-9C2,5.224,2.224,5,2.5,5H6v3  c0,0.551,0.449,1,1,1h3V14.5z M7,8V5.707L9.293,8H7z M13,10.5c0,0.275-0.225,0.5-0.5,0.5H11V8.5c0-0.133-0.053-0.26-0.146-0.354  l-4-4C6.76,4.053,6.633,4,6.5,4H5V1.5C5,1.224,5.224,1,5.5,1H9v3c0,0.551,0.448,1,1,1h3V10.5z"/>
    </symbol>
    <symbol id="logoSmall" viewBox="0 0 93 52">
                <path id="path0_fill" fill="#FFFFFF" fill-rule="evenodd" d="M 43.7649 0.77C 43.2809 1.28333 43.0388 1.892 43.0388 2.596L 43.0388 8.932C 43.0388 10.912 43.5815 12.5253 44.6669 13.772C 45.7668 15.004 47.3655 15.7813 49.4629 16.104C 49.6975 16.148 49.9322 16.1773 50.1669 16.192C 50.4015 16.2067 50.6288 16.214 50.8488 16.214C 51.1422 16.214 51.4135 16.1993 51.6629 16.17C 51.9268 16.1553 52.1175 16.1333 52.2349 16.104C 54.3322 15.7813 55.9308 14.9967 57.0309 13.75C 58.1309 12.5033 58.6808 10.8973 58.6808 8.932L 58.6808 2.596C 58.6808 1.87733 58.4315 1.26867 57.9329 0.77C 57.4489 0.256667 56.8475 0 56.1288 0C 55.4395 0 54.8455 0.249333 54.3469 0.748C 53.8482 1.24667 53.5988 1.848 53.5988 2.552L 53.5988 9.086C 53.5988 9.84867 53.4082 10.472 53.0269 10.956C 52.6455 11.4253 52.1029 11.7187 51.3989 11.836C 51.2815 11.8653 51.1055 11.88 50.8708 11.88C 50.6215 11.88 50.4382 11.8653 50.3209 11.836C 49.6169 11.7187 49.0742 11.418 48.6929 10.934C 48.3115 10.45 48.1208 9.834 48.1208 9.086L 48.1208 2.552C 48.1208 1.848 47.8715 1.24667 47.3729 0.748C 46.8742 0.249333 46.2802 0 45.5909 0C 44.8722 0 44.2635 0.256667 43.7649 0.77ZM 61.0251 1.144C 60.7464 1.56933 60.6071 2.05333 60.6071 2.596L 60.6071 13.42C 60.6071 14.168 60.8564 14.8207 61.3551 15.378C 61.8537 15.9353 62.4697 16.214 63.2031 16.214C 63.8777 16.214 64.4571 15.972 64.9411 15.488C 65.4397 14.9893 65.6891 14.3807 65.6891 13.662L 65.6891 8.294L 71.4531 15.29C 71.6144 15.4807 71.8271 15.664 72.0911 15.84C 72.2964 15.972 72.5091 16.0673 72.7291 16.126C 72.9637 16.1847 73.1911 16.214 73.4111 16.214C 74.0271 16.214 74.5697 16.0307 75.0391 15.664C 75.5084 15.2827 75.8017 14.7913 75.9191 14.19L 75.9631 13.684L 75.9631 2.596C 75.9631 1.892 75.7137 1.29067 75.2151 0.792C 74.7164 0.293333 74.1224 0.0439997 73.4331 0.0439997C 72.7731 0.0439997 72.1791 0.293333 71.6511 0.792C 71.4017 1.04133 71.2111 1.32 71.0791 1.628C 70.9471 1.936 70.8811 2.25867 70.8811 2.596L 70.8811 7.766L 65.2931 1.21C 64.6184 0.403334 63.8997 0 63.1371 0C 62.8144 0 62.4991 0.066 62.1911 0.198C 61.6924 0.403334 61.3037 0.718667 61.0251 1.144ZM 82.494 0.792C 81.834 1.276 81.328 1.958 80.976 2.838L 77.192 12.518C 77.0013 13.046 76.906 13.4933 76.906 13.86C 76.906 14.8867 77.4193 15.62 78.446 16.06C 78.7833 16.2067 79.128 16.28 79.4799 16.28C 80.008 16.28 80.4846 16.1187 80.91 15.796C 81.35 15.4733 81.6726 15.0333 81.878 14.476L 82.142 13.75L 87.488 13.75L 87.7299 14.476C 87.9353 15.048 88.2506 15.4953 88.676 15.818C 89.1013 16.126 89.578 16.28 90.106 16.28C 90.4726 16.28 90.8246 16.2067 91.162 16.06C 91.6606 15.8547 92.042 15.5613 92.306 15.18C 92.57 14.7987 92.702 14.3587 92.702 13.86C 92.702 13.4933 92.6066 13.046 92.416 12.518L 88.632 2.838C 88.28 1.94333 87.7666 1.26133 87.092 0.792C 86.432 0.308001 85.6693 0.066 84.804 0.066C 83.9386 0.066 83.1686 0.308001 82.494 0.792ZM 83.616 9.372L 84.804 5.148L 85.992 9.372L 83.616 9.372ZM 16.5997 17.968C 16.101 18.4667 15.8517 19.0827 15.8517 19.816L 15.8517 30.244C 15.8517 31.0947 16.0864 31.7767 16.5557 32.29C 17.0397 32.7887 17.6556 33.038 18.4037 33.038L 23.8817 33.038C 24.6443 33.038 25.297 32.9427 25.8397 32.752C 26.397 32.5613 26.9177 32.268 27.4017 31.872C 27.6657 31.6373 27.937 31.3367 28.2157 30.97C 28.509 30.5887 28.729 30.1633 28.8757 29.694C 29.037 29.21 29.1177 28.726 29.1177 28.242C 29.1177 26.9513 28.6483 25.9247 27.7097 25.162L 27.5777 25.052L 27.2697 24.854L 26.9617 24.656L 26.9177 24.612C 27.3723 24.0107 27.6437 23.2847 27.7317 22.434C 27.7317 22.39 27.739 22.324 27.7537 22.236L 27.7537 21.928C 27.7537 20.74 27.3283 19.7133 26.4777 18.848C 25.6417 17.9827 24.505 17.4547 23.0677 17.264L 22.0997 17.198L 18.4477 17.198C 17.729 17.198 17.113 17.4547 16.5997 17.968ZM 22.9357 22.258C 22.9357 22.4633 22.8624 22.6173 22.7157 22.72C 22.525 22.8813 22.327 22.962 22.1216 22.962L 20.9557 22.962L 20.9557 21.554L 22.0777 21.554C 22.3123 21.554 22.5103 21.6273 22.6717 21.774C 22.8477 21.906 22.9357 22.0673 22.9357 22.258ZM 23.8376 27.406C 23.9697 27.5527 24.0356 27.736 24.0356 27.956C 24.0356 28.1613 23.9623 28.33 23.8157 28.462C 23.669 28.594 23.5077 28.66 23.3317 28.66L 20.9337 28.66L 20.9337 27.186L 23.3317 27.186C 23.537 27.186 23.7057 27.2593 23.8376 27.406ZM 31.4174 17.77C 30.9333 18.2833 30.6913 18.892 30.6913 19.596L 30.6913 25.932C 30.6913 27.912 31.234 29.5253 32.3194 30.772C 33.4193 32.004 35.018 32.7813 37.1154 33.104C 37.35 33.148 37.5847 33.1773 37.8194 33.192C 37.969 33.2013 38.1156 33.2077 38.2592 33.2111C 37.7622 34.3198 37.1671 35.375 36.4851 36.3657C 35.7589 36.8246 35.1083 37.4033 34.5333 38.102C 34.0789 38.6562 33.704 39.248 33.4088 39.8775C 29.8615 43.0848 25.1588 45.038 20 45.038C 8.95428 45.038 0 36.0837 0 25.038C 0 13.9923 8.95428 5.038 20 5.038C 31.0457 5.038 40 13.9923 40 25.038C 40 26.279 39.887 27.4935 39.6707 28.672C 39.4803 28.7442 39.2739 28.7989 39.0514 28.836C 38.934 28.8653 38.758 28.88 38.5233 28.88C 38.274 28.88 38.0907 28.8653 37.9734 28.836C 37.2693 28.7187 36.7267 28.418 36.3454 27.934C 35.964 27.45 35.7733 26.834 35.7733 26.086L 35.7733 19.552C 35.7733 18.848 35.524 18.2467 35.0254 17.748C 34.5267 17.2493 33.9327 17 33.2433 17C 32.5247 17 31.916 17.2567 31.4174 17.77ZM 33.4088 39.8775C 33.3133 40.0811 33.2261 40.2886 33.1473 40.5C 32.8246 41.3653 32.6633 42.2087 32.6633 43.03C 32.6633 44.79 33.2646 46.4547 34.4673 48.024C 34.878 48.5227 35.296 48.948 35.7213 49.3C 36.8506 50.224 38.1779 50.8107 39.7033 51.06C 40.2753 51.148 40.818 51.192 41.3313 51.192C 42.3726 51.192 43.2673 51.0453 44.0153 50.752C 44.5726 50.5467 45.02 50.3267 45.3573 50.092C 45.6946 49.8427 45.9586 49.5787 46.1493 49.3C 46.4573 48.8307 46.6113 48.376 46.6113 47.936C 46.6113 47.4373 46.4279 46.9827 46.0613 46.572C 45.6506 46.1173 45.0933 45.89 44.3893 45.89C 44.0959 45.89 43.8246 45.9193 43.5753 45.978L 43.3553 46.044C 42.3726 46.3813 41.5293 46.55 40.8253 46.55C 39.0946 46.55 38.0533 45.6187 37.7013 43.756C 37.6573 43.5067 37.6353 43.272 37.6353 43.052C 37.6353 42.832 37.6573 42.5973 37.7013 42.348C 37.8919 41.4387 38.2953 40.742 38.9113 40.258C 39.5273 39.7593 40.2533 39.51 41.0893 39.51C 41.3826 39.51 41.6173 39.5247 41.7933 39.554C 41.9839 39.5687 42.1673 39.6127 42.3433 39.686C 42.5193 39.7447 42.7613 39.8327 43.0693 39.95C 43.2013 39.994 43.3993 40.038 43.6633 40.082C 43.942 40.126 44.2279 40.148 44.5213 40.148C 44.8733 40.148 45.174 40.082 45.4233 39.95C 45.6873 39.818 45.9293 39.6127 46.1493 39.334C 46.4426 38.9673 46.5893 38.5347 46.5893 38.036C 46.5893 37.244 46.1786 36.562 45.3573 35.99C 44.4333 35.3447 43.1939 35.022 41.6393 35.022C 41.0966 35.022 40.5173 35.066 39.9013 35.154C 38.6202 35.3322 37.4815 35.7361 36.4851 36.3657C 35.5985 37.6534 34.565 38.8321 33.4088 39.8775ZM 39.6707 28.672C 40.0823 28.5156 40.4186 28.277 40.6794 27.956C 41.0607 27.472 41.2513 26.8487 41.2513 26.086L 41.2513 19.552C 41.2513 18.848 41.5007 18.2467 41.9994 17.748C 42.498 17.2493 43.092 17 43.7813 17C 44.5 17 45.1013 17.2567 45.5854 17.77C 46.084 18.2687 46.3333 18.8773 46.3333 19.596L 46.3333 25.932C 46.3333 27.8973 45.7834 29.5033 44.6833 30.75C 43.5833 31.9967 41.9847 32.7813 39.8874 33.104C 39.77 33.1333 39.5793 33.1553 39.3154 33.17C 39.066 33.1993 38.7947 33.214 38.5013 33.214C 38.4216 33.214 38.3409 33.213 38.2592 33.2111C 38.9011 31.7794 39.3795 30.2584 39.6707 28.672ZM 48.9856 17.924C 48.5016 18.408 48.2596 19.0167 48.2596 19.75L 48.2596 30.442C 48.2596 30.7793 48.3256 31.102 48.4576 31.41C 48.6776 31.9087 49.0002 32.3047 49.4256 32.598C 49.8509 32.8913 50.3056 33.038 50.7896 33.038L 56.7076 33.038C 57.3382 33.038 57.8809 32.8253 58.3356 32.4C 58.8049 31.96 59.0396 31.4467 59.0396 30.86C 59.0396 30.244 58.8049 29.7233 58.3356 29.298C 57.8662 28.858 57.3015 28.638 56.6416 28.638L 53.3416 28.638L 53.3416 27.274L 56.2236 27.274C 56.8249 27.274 57.3749 27.0613 57.8736 26.636C 58.3282 26.2107 58.5556 25.7047 58.5556 25.118C 58.5556 24.5313 58.3356 24.04 57.8956 23.644C 57.4116 23.1893 56.8469 22.962 56.2016 22.962L 53.3416 22.962L 53.3416 21.62L 56.8176 21.62C 57.4189 21.62 57.9322 21.4 58.3575 20.96C 58.7829 20.52 58.9955 19.9993 58.9955 19.398C 58.9955 18.782 58.7829 18.2613 58.3575 17.836C 57.9322 17.4107 57.4336 17.198 56.8616 17.198L 50.8116 17.198C 50.0782 17.198 49.4696 17.44 48.9856 17.924ZM 61.0251 18.144C 60.7464 18.5693 60.6071 19.0533 60.6071 19.596L 60.6071 30.42C 60.6071 31.168 60.8564 31.8207 61.3551 32.378C 61.8537 32.9353 62.4697 33.214 63.2031 33.214C 63.8777 33.214 64.4571 32.972 64.9411 32.488C 65.4397 31.9893 65.6891 31.3807 65.6891 30.662L 65.6891 25.294L 71.4531 32.29C 71.6144 32.4807 71.8271 32.664 72.0911 32.84C 72.2964 32.972 72.5091 33.0673 72.7291 33.126C 72.9637 33.1847 73.1911 33.214 73.4111 33.214C 74.0271 33.214 74.5697 33.0307 75.0391 32.664C 75.5084 32.2827 75.8017 31.7913 75.9191 31.19L 75.9631 30.684L 75.9631 19.596C 75.9631 18.892 75.7137 18.2907 75.2151 17.792C 74.7164 17.2933 74.1224 17.044 73.433 17.044C 72.7731 17.044 72.179 17.2933 71.6511 17.792C 71.4017 18.0413 71.2111 18.32 71.0791 18.628C 70.9471 18.936 70.8811 19.2587 70.8811 19.596L 70.8811 24.766L 65.2931 18.21C 64.6184 17.4033 63.8997 17 63.1371 17C 62.8144 17 62.4991 17.066 62.1911 17.198C 61.6924 17.4033 61.3037 17.7187 61.0251 18.144ZM 82.494 17.792C 81.834 18.276 81.328 18.958 80.976 19.838L 77.192 29.518C 77.0013 30.046 76.906 30.4933 76.906 30.86C 76.906 31.8867 77.4193 32.62 78.446 33.06C 78.7833 33.2067 79.128 33.28 79.4799 33.28C 80.008 33.28 80.4846 33.1187 80.91 32.796C 81.35 32.4733 81.6726 32.0333 81.878 31.476L 82.142 30.75L 87.488 30.75L 87.7299 31.476C 87.9353 32.048 88.2506 32.4953 88.676 32.818C 89.1013 33.126 89.578 33.28 90.106 33.28C 90.4726 33.28 90.8246 33.2067 91.162 33.06C 91.6606 32.8547 92.042 32.5613 92.306 32.18C 92.57 31.7987 92.702 31.3587 92.702 30.86C 92.702 30.4933 92.6066 30.046 92.416 29.518L 88.632 19.838C 88.28 18.9433 87.7666 18.2613 87.092 17.792C 86.432 17.308 85.6693 17.066 84.804 17.066C 83.9386 17.066 83.1686 17.308 82.494 17.792ZM 83.616 26.372L 84.804 22.148L 85.992 26.372L 83.616 26.372ZM 48.9856 35.924C 48.5016 36.408 48.2596 37.0167 48.2596 37.75L 48.2596 48.442C 48.2596 48.7793 48.3256 49.102 48.4576 49.41C 48.6776 49.9087 49.0002 50.3047 49.4256 50.598C 49.8509 50.8913 50.3056 51.038 50.7896 51.038L 56.7076 51.038C 57.3382 51.038 57.8809 50.8253 58.3356 50.4C 58.8049 49.96 59.0396 49.4467 59.0396 48.86C 59.0396 48.244 58.8049 47.7233 58.3356 47.298C 57.8662 46.858 57.3016 46.638 56.6416 46.638L 53.3416 46.638L 53.3416 45.274L 56.2236 45.274C 56.8249 45.274 57.3749 45.0613 57.8736 44.636C 58.3282 44.2107 58.5556 43.7047 58.5556 43.118C 58.5556 42.5313 58.3356 42.04 57.8956 41.644C 57.4116 41.1893 56.8469 40.962 56.2016 40.962L 53.3416 40.962L 53.3416 39.62L 56.8176 39.62C 57.4189 39.62 57.9322 39.4 58.3576 38.96C 58.7829 38.52 58.9956 37.9993 58.9956 37.398C 58.9956 36.782 58.7829 36.2613 58.3576 35.836C 57.9322 35.4107 57.4336 35.198 56.8616 35.198L 50.8116 35.198C 50.0782 35.198 49.4696 35.44 48.9856 35.924ZM 61.0251 36.144C 60.7464 36.5693 60.6071 37.0533 60.6071 37.596L 60.6071 48.42C 60.6071 49.168 60.8564 49.8207 61.3551 50.378C 61.8537 50.9353 62.4697 51.214 63.2031 51.214C 63.8777 51.214 64.4571 50.972 64.9411 50.488C 65.4397 49.9893 65.6891 49.3807 65.6891 48.662L 65.6891 43.294L 71.4531 50.29C 71.6144 50.4807 71.8271 50.664 72.0911 50.84C 72.2964 50.972 72.5091 51.0673 72.7291 51.126C 72.9637 51.1847 73.1911 51.214 73.4111 51.214C 74.0271 51.214 74.5697 51.0307 75.0391 50.664C 75.5084 50.2827 75.8017 49.7913 75.9191 49.19L 75.9631 48.684L 75.9631 37.596C 75.9631 36.892 75.7137 36.2907 75.2151 35.792C 74.7164 35.2933 74.1224 35.044 73.4331 35.044C 72.7731 35.044 72.1791 35.2933 71.6511 35.792C 71.4017 36.0413 71.2111 36.32 71.0791 36.628C 70.9471 36.936 70.8811 37.2587 70.8811 37.596L 70.8811 42.766L 65.2931 36.21C 64.6184 35.4033 63.8997 35 63.1371 35C 62.8144 35 62.4991 35.066 62.1911 35.198C 61.6924 35.4033 61.3037 35.7187 61.0251 36.144ZM 82.494 35.792C 81.834 36.276 81.328 36.958 80.976 37.838L 77.192 47.518C 77.0013 48.046 76.906 48.4933 76.906 48.86C 76.906 49.8867 77.4193 50.62 78.446 51.06C 78.7833 51.2067 79.128 51.28 79.4799 51.28C 80.008 51.28 80.4846 51.1187 80.91 50.796C 81.35 50.4733 81.6726 50.0333 81.878 49.476L 82.142 48.75L 87.488 48.75L 87.7299 49.476C 87.9353 50.048 88.2506 50.4953 88.676 50.818C 89.1013 51.126 89.578 51.28 90.106 51.28C 90.4726 51.28 90.8246 51.2067 91.162 51.06C 91.6606 50.8547 92.042 50.5613 92.306 50.18C 92.57 49.7987 92.702 49.3587 92.702 48.86C 92.702 48.4933 92.6066 48.046 92.416 47.518L 88.632 37.838C 88.28 36.9433 87.7666 36.2613 87.092 35.792C 86.432 35.308 85.6693 35.066 84.804 35.066C 83.9386 35.066 83.1686 35.308 82.494 35.792ZM 83.616 44.372L 84.804 40.148L 85.992 44.372L 83.616 44.372Z"/>
    </symbol>
    <symbol id="logo" viewBox="0 0 120 85">
            <g transform="translate(61 23)">
                <path fill="#FF7405" transform="matrix(0.809227 -0.587496 0.550943 0.834543 -65.6846 -10.4797)" d="M 0.00254125 15.2952C -0.226513 2.28701 15.0807 -4.82489 24.8744 3.73951L 93.5842 63.8247C 103.742 72.7076 97.9207 89.4387 84.4428 90.0987L 16.8493 93.4047C 8.39137 93.8187 1.26786 87.1537 1.11877 78.6867L 0.00254125 15.2952Z"/>
                <path fill="#FFFFFF" fill-rule="evenodd" transform="translate(-58.3743 -9.35696)" d="M 43.7649 0.77C 43.2809 1.28333 43.0388 1.892 43.0388 2.596L 43.0388 8.932C 43.0388 10.912 43.5815 12.5253 44.6669 13.772C 45.7668 15.004 47.3655 15.7813 49.4629 16.104C 49.6975 16.148 49.9322 16.1773 50.1669 16.192C 50.4015 16.2067 50.6288 16.214 50.8488 16.214C 51.1422 16.214 51.4135 16.1993 51.6629 16.17C 51.9268 16.1553 52.1175 16.1333 52.2349 16.104C 54.3322 15.7813 55.9308 14.9967 57.0309 13.75C 58.1309 12.5033 58.6808 10.8973 58.6808 8.932L 58.6808 2.596C 58.6808 1.87733 58.4315 1.26867 57.9329 0.77C 57.4489 0.256667 56.8475 0 56.1288 0C 55.4395 0 54.8455 0.249333 54.3469 0.748C 53.8482 1.24667 53.5988 1.848 53.5988 2.552L 53.5988 9.086C 53.5988 9.84867 53.4082 10.472 53.0269 10.956C 52.6455 11.4253 52.1029 11.7187 51.3989 11.836C 51.2815 11.8653 51.1055 11.88 50.8708 11.88C 50.6215 11.88 50.4382 11.8653 50.3209 11.836C 49.6169 11.7187 49.0742 11.418 48.6929 10.934C 48.3115 10.45 48.1208 9.834 48.1208 9.086L 48.1208 2.552C 48.1208 1.848 47.8715 1.24667 47.3729 0.748C 46.8742 0.249333 46.2802 0 45.5909 0C 44.8722 0 44.2635 0.256667 43.7649 0.77ZM 61.0251 1.144C 60.7464 1.56933 60.6071 2.05333 60.6071 2.596L 60.6071 13.42C 60.6071 14.168 60.8564 14.8207 61.3551 15.378C 61.8537 15.9353 62.4697 16.214 63.2031 16.214C 63.8777 16.214 64.4571 15.972 64.9411 15.488C 65.4397 14.9893 65.6891 14.3807 65.6891 13.662L 65.6891 8.294L 71.4531 15.29C 71.6144 15.4807 71.8271 15.664 72.0911 15.84C 72.2964 15.972 72.5091 16.0673 72.7291 16.126C 72.9637 16.1847 73.1911 16.214 73.4111 16.214C 74.0271 16.214 74.5697 16.0307 75.0391 15.664C 75.5084 15.2827 75.8017 14.7913 75.9191 14.19L 75.9631 13.684L 75.9631 2.596C 75.9631 1.892 75.7137 1.29067 75.2151 0.792C 74.7164 0.293333 74.1224 0.0439997 73.4331 0.0439997C 72.7731 0.0439997 72.1791 0.293333 71.6511 0.792C 71.4017 1.04133 71.2111 1.32 71.0791 1.628C 70.9471 1.936 70.8811 2.25867 70.8811 2.596L 70.8811 7.766L 65.2931 1.21C 64.6184 0.403334 63.8997 0 63.1371 0C 62.8144 0 62.4991 0.066 62.1911 0.198C 61.6924 0.403334 61.3037 0.718667 61.0251 1.144ZM 82.494 0.792C 81.834 1.276 81.328 1.958 80.976 2.838L 77.192 12.518C 77.0013 13.046 76.906 13.4933 76.906 13.86C 76.906 14.8867 77.4193 15.62 78.446 16.06C 78.7833 16.2067 79.128 16.28 79.4799 16.28C 80.008 16.28 80.4846 16.1187 80.91 15.796C 81.35 15.4733 81.6726 15.0333 81.878 14.476L 82.142 13.75L 87.488 13.75L 87.7299 14.476C 87.9353 15.048 88.2506 15.4953 88.676 15.818C 89.1013 16.126 89.578 16.28 90.106 16.28C 90.4726 16.28 90.8246 16.2067 91.162 16.06C 91.6606 15.8547 92.042 15.5613 92.306 15.18C 92.57 14.7987 92.702 14.3587 92.702 13.86C 92.702 13.4933 92.6066 13.046 92.416 12.518L 88.632 2.838C 88.28 1.94333 87.7666 1.26133 87.092 0.792C 86.432 0.308001 85.6693 0.066 84.804 0.066C 83.9386 0.066 83.1686 0.308001 82.494 0.792ZM 83.616 9.372L 84.804 5.148L 85.992 9.372L 83.616 9.372ZM 16.5997 17.968C 16.101 18.4667 15.8517 19.0827 15.8517 19.816L 15.8517 30.244C 15.8517 31.0947 16.0864 31.7767 16.5557 32.29C 17.0397 32.7887 17.6556 33.038 18.4037 33.038L 23.8817 33.038C 24.6443 33.038 25.297 32.9427 25.8397 32.752C 26.397 32.5613 26.9177 32.268 27.4017 31.872C 27.6657 31.6373 27.937 31.3367 28.2157 30.97C 28.509 30.5887 28.729 30.1633 28.8757 29.694C 29.037 29.21 29.1177 28.726 29.1177 28.242C 29.1177 26.9513 28.6483 25.9247 27.7097 25.162L 27.5777 25.052L 27.2697 24.854L 26.9617 24.656L 26.9177 24.612C 27.3723 24.0107 27.6437 23.2847 27.7317 22.434C 27.7317 22.39 27.739 22.324 27.7537 22.236L 27.7537 21.928C 27.7537 20.74 27.3283 19.7133 26.4777 18.848C 25.6417 17.9827 24.505 17.4547 23.0677 17.264L 22.0997 17.198L 18.4477 17.198C 17.729 17.198 17.113 17.4547 16.5997 17.968ZM 22.9357 22.258C 22.9357 22.4633 22.8624 22.6173 22.7157 22.72C 22.525 22.8813 22.327 22.962 22.1216 22.962L 20.9557 22.962L 20.9557 21.554L 22.0777 21.554C 22.3123 21.554 22.5103 21.6273 22.6717 21.774C 22.8477 21.906 22.9357 22.0673 22.9357 22.258ZM 23.8376 27.406C 23.9697 27.5527 24.0356 27.736 24.0356 27.956C 24.0356 28.1613 23.9623 28.33 23.8157 28.462C 23.669 28.594 23.5077 28.66 23.3317 28.66L 20.9337 28.66L 20.9337 27.186L 23.3317 27.186C 23.537 27.186 23.7057 27.2593 23.8376 27.406ZM 31.4174 17.77C 30.9333 18.2833 30.6913 18.892 30.6913 19.596L 30.6913 25.932C 30.6913 27.912 31.234 29.5253 32.3194 30.772C 33.4193 32.004 35.018 32.7813 37.1154 33.104C 37.35 33.148 37.5847 33.1773 37.8194 33.192C 37.969 33.2013 38.1156 33.2077 38.2592 33.2111C 37.7622 34.3198 37.1671 35.375 36.4851 36.3657C 35.7589 36.8246 35.1083 37.4033 34.5333 38.102C 34.0789 38.6562 33.704 39.248 33.4088 39.8775C 29.8615 43.0848 25.1588 45.038 20 45.038C 8.95428 45.038 0 36.0837 0 25.038C 0 13.9923 8.95428 5.038 20 5.038C 31.0457 5.038 40 13.9923 40 25.038C 40 26.279 39.887 27.4935 39.6707 28.672C 39.4803 28.7442 39.2739 28.7989 39.0514 28.836C 38.934 28.8653 38.758 28.88 38.5233 28.88C 38.274 28.88 38.0907 28.8653 37.9734 28.836C 37.2693 28.7187 36.7267 28.418 36.3454 27.934C 35.964 27.45 35.7733 26.834 35.7733 26.086L 35.7733 19.552C 35.7733 18.848 35.524 18.2467 35.0254 17.748C 34.5267 17.2493 33.9327 17 33.2433 17C 32.5247 17 31.916 17.2567 31.4174 17.77ZM 33.4088 39.8775C 33.3133 40.0811 33.2261 40.2886 33.1473 40.5C 32.8246 41.3653 32.6633 42.2087 32.6633 43.03C 32.6633 44.79 33.2646 46.4547 34.4673 48.024C 34.878 48.5227 35.296 48.948 35.7213 49.3C 36.8506 50.224 38.1779 50.8107 39.7033 51.06C 40.2753 51.148 40.818 51.192 41.3313 51.192C 42.3726 51.192 43.2673 51.0453 44.0153 50.752C 44.5726 50.5467 45.02 50.3267 45.3573 50.092C 45.6946 49.8427 45.9586 49.5787 46.1493 49.3C 46.4573 48.8307 46.6113 48.376 46.6113 47.936C 46.6113 47.4373 46.4279 46.9827 46.0613 46.572C 45.6506 46.1173 45.0933 45.89 44.3893 45.89C 44.0959 45.89 43.8246 45.9193 43.5753 45.978L 43.3553 46.044C 42.3726 46.3813 41.5293 46.55 40.8253 46.55C 39.0946 46.55 38.0533 45.6187 37.7013 43.756C 37.6573 43.5067 37.6353 43.272 37.6353 43.052C 37.6353 42.832 37.6573 42.5973 37.7013 42.348C 37.8919 41.4387 38.2953 40.742 38.9113 40.258C 39.5273 39.7593 40.2533 39.51 41.0893 39.51C 41.3826 39.51 41.6173 39.5247 41.7933 39.554C 41.9839 39.5687 42.1673 39.6127 42.3433 39.686C 42.5193 39.7447 42.7613 39.8327 43.0693 39.95C 43.2013 39.994 43.3993 40.038 43.6633 40.082C 43.942 40.126 44.2279 40.148 44.5213 40.148C 44.8733 40.148 45.174 40.082 45.4233 39.95C 45.6873 39.818 45.9293 39.6127 46.1493 39.334C 46.4426 38.9673 46.5893 38.5347 46.5893 38.036C 46.5893 37.244 46.1786 36.562 45.3573 35.99C 44.4333 35.3447 43.1939 35.022 41.6393 35.022C 41.0966 35.022 40.5173 35.066 39.9013 35.154C 38.6202 35.3322 37.4815 35.7361 36.4851 36.3657C 35.5985 37.6534 34.565 38.8321 33.4088 39.8775ZM 39.6707 28.672C 40.0823 28.5156 40.4186 28.277 40.6794 27.956C 41.0607 27.472 41.2513 26.8487 41.2513 26.086L 41.2513 19.552C 41.2513 18.848 41.5007 18.2467 41.9994 17.748C 42.498 17.2493 43.092 17 43.7813 17C 44.5 17 45.1013 17.2567 45.5854 17.77C 46.084 18.2687 46.3333 18.8773 46.3333 19.596L 46.3333 25.932C 46.3333 27.8973 45.7834 29.5033 44.6833 30.75C 43.5833 31.9967 41.9847 32.7813 39.8874 33.104C 39.77 33.1333 39.5793 33.1553 39.3154 33.17C 39.066 33.1993 38.7947 33.214 38.5013 33.214C 38.4216 33.214 38.3409 33.213 38.2592 33.2111C 38.9011 31.7794 39.3795 30.2584 39.6707 28.672ZM 48.9856 17.924C 48.5016 18.408 48.2596 19.0167 48.2596 19.75L 48.2596 30.442C 48.2596 30.7793 48.3256 31.102 48.4576 31.41C 48.6776 31.9087 49.0002 32.3047 49.4256 32.598C 49.8509 32.8913 50.3056 33.038 50.7896 33.038L 56.7076 33.038C 57.3382 33.038 57.8809 32.8253 58.3356 32.4C 58.8049 31.96 59.0396 31.4467 59.0396 30.86C 59.0396 30.244 58.8049 29.7233 58.3356 29.298C 57.8662 28.858 57.3015 28.638 56.6416 28.638L 53.3416 28.638L 53.3416 27.274L 56.2236 27.274C 56.8249 27.274 57.3749 27.0613 57.8736 26.636C 58.3282 26.2107 58.5556 25.7047 58.5556 25.118C 58.5556 24.5313 58.3356 24.04 57.8956 23.644C 57.4116 23.1893 56.8469 22.962 56.2016 22.962L 53.3416 22.962L 53.3416 21.62L 56.8176 21.62C 57.4189 21.62 57.9322 21.4 58.3575 20.96C 58.7829 20.52 58.9955 19.9993 58.9955 19.398C 58.9955 18.782 58.7829 18.2613 58.3575 17.836C 57.9322 17.4107 57.4336 17.198 56.8616 17.198L 50.8116 17.198C 50.0782 17.198 49.4696 17.44 48.9856 17.924ZM 61.0251 18.144C 60.7464 18.5693 60.6071 19.0533 60.6071 19.596L 60.6071 30.42C 60.6071 31.168 60.8564 31.8207 61.3551 32.378C 61.8537 32.9353 62.4697 33.214 63.2031 33.214C 63.8777 33.214 64.4571 32.972 64.9411 32.488C 65.4397 31.9893 65.6891 31.3807 65.6891 30.662L 65.6891 25.294L 71.4531 32.29C 71.6144 32.4807 71.8271 32.664 72.0911 32.84C 72.2964 32.972 72.5091 33.0673 72.7291 33.126C 72.9637 33.1847 73.1911 33.214 73.4111 33.214C 74.0271 33.214 74.5697 33.0307 75.0391 32.664C 75.5084 32.2827 75.8017 31.7913 75.9191 31.19L 75.9631 30.684L 75.9631 19.596C 75.9631 18.892 75.7137 18.2907 75.2151 17.792C 74.7164 17.2933 74.1224 17.044 73.433 17.044C 72.7731 17.044 72.179 17.2933 71.6511 17.792C 71.4017 18.0413 71.2111 18.32 71.0791 18.628C 70.9471 18.936 70.8811 19.2587 70.8811 19.596L 70.8811 24.766L 65.2931 18.21C 64.6184 17.4033 63.8997 17 63.1371 17C 62.8144 17 62.4991 17.066 62.1911 17.198C 61.6924 17.4033 61.3037 17.7187 61.0251 18.144ZM 82.494 17.792C 81.834 18.276 81.328 18.958 80.976 19.838L 77.192 29.518C 77.0013 30.046 76.906 30.4933 76.906 30.86C 76.906 31.8867 77.4193 32.62 78.446 33.06C 78.7833 33.2067 79.128 33.28 79.4799 33.28C 80.008 33.28 80.4846 33.1187 80.91 32.796C 81.35 32.4733 81.6726 32.0333 81.878 31.476L 82.142 30.75L 87.488 30.75L 87.7299 31.476C 87.9353 32.048 88.2506 32.4953 88.676 32.818C 89.1013 33.126 89.578 33.28 90.106 33.28C 90.4726 33.28 90.8246 33.2067 91.162 33.06C 91.6606 32.8547 92.042 32.5613 92.306 32.18C 92.57 31.7987 92.702 31.3587 92.702 30.86C 92.702 30.4933 92.6066 30.046 92.416 29.518L 88.632 19.838C 88.28 18.9433 87.7666 18.2613 87.092 17.792C 86.432 17.308 85.6693 17.066 84.804 17.066C 83.9386 17.066 83.1686 17.308 82.494 17.792ZM 83.616 26.372L 84.804 22.148L 85.992 26.372L 83.616 26.372ZM 48.9856 35.924C 48.5016 36.408 48.2596 37.0167 48.2596 37.75L 48.2596 48.442C 48.2596 48.7793 48.3256 49.102 48.4576 49.41C 48.6776 49.9087 49.0002 50.3047 49.4256 50.598C 49.8509 50.8913 50.3056 51.038 50.7896 51.038L 56.7076 51.038C 57.3382 51.038 57.8809 50.8253 58.3356 50.4C 58.8049 49.96 59.0396 49.4467 59.0396 48.86C 59.0396 48.244 58.8049 47.7233 58.3356 47.298C 57.8662 46.858 57.3016 46.638 56.6416 46.638L 53.3416 46.638L 53.3416 45.274L 56.2236 45.274C 56.8249 45.274 57.3749 45.0613 57.8736 44.636C 58.3282 44.2107 58.5556 43.7047 58.5556 43.118C 58.5556 42.5313 58.3356 42.04 57.8956 41.644C 57.4116 41.1893 56.8469 40.962 56.2016 40.962L 53.3416 40.962L 53.3416 39.62L 56.8176 39.62C 57.4189 39.62 57.9322 39.4 58.3576 38.96C 58.7829 38.52 58.9956 37.9993 58.9956 37.398C 58.9956 36.782 58.7829 36.2613 58.3576 35.836C 57.9322 35.4107 57.4336 35.198 56.8616 35.198L 50.8116 35.198C 50.0782 35.198 49.4696 35.44 48.9856 35.924ZM 61.0251 36.144C 60.7464 36.5693 60.6071 37.0533 60.6071 37.596L 60.6071 48.42C 60.6071 49.168 60.8564 49.8207 61.3551 50.378C 61.8537 50.9353 62.4697 51.214 63.2031 51.214C 63.8777 51.214 64.4571 50.972 64.9411 50.488C 65.4397 49.9893 65.6891 49.3807 65.6891 48.662L 65.6891 43.294L 71.4531 50.29C 71.6144 50.4807 71.8271 50.664 72.0911 50.84C 72.2964 50.972 72.5091 51.0673 72.7291 51.126C 72.9637 51.1847 73.1911 51.214 73.4111 51.214C 74.0271 51.214 74.5697 51.0307 75.0391 50.664C 75.5084 50.2827 75.8017 49.7913 75.9191 49.19L 75.9631 48.684L 75.9631 37.596C 75.9631 36.892 75.7137 36.2907 75.2151 35.792C 74.7164 35.2933 74.1224 35.044 73.4331 35.044C 72.7731 35.044 72.1791 35.2933 71.6511 35.792C 71.4017 36.0413 71.2111 36.32 71.0791 36.628C 70.9471 36.936 70.8811 37.2587 70.8811 37.596L 70.8811 42.766L 65.2931 36.21C 64.6184 35.4033 63.8997 35 63.1371 35C 62.8144 35 62.4991 35.066 62.1911 35.198C 61.6924 35.4033 61.3037 35.7187 61.0251 36.144ZM 82.494 35.792C 81.834 36.276 81.328 36.958 80.976 37.838L 77.192 47.518C 77.0013 48.046 76.906 48.4933 76.906 48.86C 76.906 49.8867 77.4193 50.62 78.446 51.06C 78.7833 51.2067 79.128 51.28 79.4799 51.28C 80.008 51.28 80.4846 51.1187 80.91 50.796C 81.35 50.4733 81.6726 50.0333 81.878 49.476L 82.142 48.75L 87.488 48.75L 87.7299 49.476C 87.9353 50.048 88.2506 50.4953 88.676 50.818C 89.1013 51.126 89.578 51.28 90.106 51.28C 90.4726 51.28 90.8246 51.2067 91.162 51.06C 91.6606 50.8547 92.042 50.5613 92.306 50.18C 92.57 49.7987 92.702 49.3587 92.702 48.86C 92.702 48.4933 92.6066 48.046 92.416 47.518L 88.632 37.838C 88.28 36.9433 87.7666 36.2613 87.092 35.792C 86.432 35.308 85.6693 35.066 84.804 35.066C 83.9386 35.066 83.1686 35.308 82.494 35.792ZM 83.616 44.372L 84.804 40.148L 85.992 44.372L 83.616 44.372Z"/>
            </g>
    </symbol>
    <symbol id="basket" viewBox="0 0 32 30">
        <g transform="translate(26 25)">
            <path transform="translate(-7.11656 -24.5072)" d="M 6.7781 10.8804C 7.20887 11.4844 8.07041 11.6052 8.68579 11.1824C 9.30118 10.7596 9.42426 9.91406 8.99349 9.31008L 2.47041 0.552293C 2.03964 -0.0516927 1.1781 -0.17249 0.562716 0.2503C -0.0526684 0.67309 -0.175745 1.51867 0.255024 2.12265L 6.7781 10.8804Z"/>
            <path transform="translate(-22.1319 -24.5072)" d="M 0.562716 11.1824C 1.1781 11.6052 2.03964 11.4844 2.47041 10.8804L 8.93195 2.12265C 9.36272 1.51867 9.23964 0.67309 8.62425 0.2503C 8.00887 -0.17249 7.14733 -0.0516927 6.71656 0.552293L 0.255024 9.31008C -0.175745 9.91406 -0.0526684 10.7596 0.562716 11.1824L 0.562716 11.1824Z"/>
            <path transform="translate(-23.5385 -9.64046)" d="M 3.44615 12.7441C 3.69231 13.5897 4.43077 14.1333 5.29231 14.1333L 21.8462 14.1333C 22.7077 14.1333 23.4462 13.5897 23.6923 12.7441L 27.0769 0L 0 0L 3.44615 12.7441Z"/>
            <path transform="translate(-26 -15.3783)" d="M 29.6615 0L 29.0462 0C 29.2308 0.42279 29.2923 0.905978 29.2308 1.38917C 29.1077 2.05355 28.7385 2.59714 28.2462 3.01993C 27.1385 3.80511 25.5385 3.56351 24.7385 2.47634L 22.9538 0.0603985L 9.04615 0.0603985L 7.26154 2.47634C 6.46154 3.56351 4.92308 3.80511 3.75385 3.01993C 2.76923 2.35554 2.46154 1.08717 2.95385 0.0603985L 2.33846 0.0603985C 1.04615 0.0603985 0 1.08717 0 2.35554C 0 3.62391 1.04615 4.65069 2.33846 4.65069L 29.6615 4.65069C 30.9538 4.65069 32 3.62391 32 2.35554C 32 1.08717 30.9538 0 29.6615 0Z"/>
        </g>

    </symbol>
    <symbol id="menuButton" viewBox="0 0 30 26">
            <path fill-rule="evenodd"  fill="rgb(255, 255, 255)"
                  d="M28.000,15.000 L10.000,15.000 C8.895,15.000 8.000,14.105 8.000,13.000 C8.000,11.895 8.895,11.000 10.000,11.000 L28.000,11.000 C29.105,11.000 30.000,11.895 30.000,13.000 C30.000,14.105 29.105,15.000 28.000,15.000 ZM28.000,4.000 L2.000,4.000 C0.895,4.000 -0.000,3.105 -0.000,2.000 C-0.000,0.895 0.895,0.000 2.000,0.000 L28.000,0.000 C29.105,0.000 30.000,0.895 30.000,2.000 C30.000,3.105 29.105,4.000 28.000,4.000 ZM2.000,22.000 L28.000,22.000 C29.105,22.000 30.000,22.895 30.000,24.000 C30.000,25.105 29.105,26.000 28.000,26.000 L2.000,26.000 C0.895,26.000 -0.000,25.105 -0.000,24.000 C-0.000,22.895 0.895,22.000 2.000,22.000 Z"/>
    </symbol>
    <symbol id="menuButtonClose" viewBox="0 0 18 18">
        <path fill-rule="evenodd"  fill="rgb(255, 255, 255)" d="M11.266,9.003 L17.488,15.226 C18.113,15.850 18.113,16.864 17.488,17.488 C16.864,18.113 15.850,18.113 15.226,17.488 L9.003,11.266 L2.781,17.488 C2.156,18.113 1.143,18.113 0.518,17.488 C-0.107,16.864 -0.107,15.850 0.518,15.226 L6.740,9.003 L0.518,2.781 C-0.107,2.156 -0.107,1.143 0.518,0.518 C1.143,-0.107 2.156,-0.107 2.781,0.518 L9.003,6.740 L15.226,0.518 C15.850,-0.107 16.864,-0.107 17.488,0.518 C18.113,1.143 18.113,2.156 17.488,2.781 L11.266,9.003 Z"/>
    </symbol>
    <symbol id="home" viewBox="0 0 100 125">
        <path id="home" fill="#FFFFFF" d="M 89.5736 41.5825L 77.0426 29.7475C 76.8936 29.4705 76.6696 29.2425 76.3766 29.1215L 45.9347 0.3735C 45.4077 -0.1245 44.5867 -0.1245 44.0597 0.3735L 13.6226 29.1195C 13.3236 29.2435 13.0926 29.4755 12.9426 29.7615L 0.425648 41.5835C -0.120352 42.1005 -0.144352 42.9625 0.372648 43.5105C 0.886648 44.0565 1.75165 44.0835 2.30065 43.5655L 12.7786 33.6695L 12.7786 81.0955C 12.7786 81.8495 13.3886 82.4595 14.1426 82.4595L 34.1096 82.4595C 34.1126 82.4595 34.1156 82.4605 34.1176 82.4605L 55.8857 82.4605C 55.8887 82.4605 55.8916 82.4595 55.8916 82.4595L 75.8536 82.4595C 76.6076 82.4595 77.2167 81.8495 77.2167 81.0955L 77.2167 33.6655L 87.6996 43.5645C 87.9636 43.8135 88.3016 43.9375 88.6376 43.9375C 88.9996 43.9375 89.3626 43.7935 89.6276 43.5095C 90.1436 42.9625 90.1196 42.1005 89.5736 41.5825ZM 54.5206 79.7315L 35.4806 79.7315L 35.4806 52.9085L 54.5206 52.9085L 54.5206 79.7315ZM 74.4876 79.7315L 57.2486 79.7315L 57.2486 51.5445C 57.2486 50.7905 56.6386 50.1805 55.8846 50.1805L 34.1166 50.1805C 33.3636 50.1805 32.7537 50.7905 32.7537 51.5445L 32.7537 79.7325L 15.5056 79.7325L 15.5056 31.0925L 44.9967 3.2395L 74.4876 31.0905L 74.4876 79.7315Z"/>
    </symbol>
    <symbol id="question" viewBox="0 0 45 45">
        <path id="question" fill="#FFFFFF" d="M 22.733 33.547C 22.733 34.553 21.918 35.368 20.912 35.368C 19.906 35.368 19.091 34.553 19.091 33.547C 19.091 32.541 19.906 31.726 20.912 31.726C 21.918 31.726 22.733 32.541 22.733 33.547ZM 24.087 8.863C 20.64 8.375 18.072 8.98 16.453 10.663C 14.135 13.073 14.766 16.722 14.794 16.876C 14.893 17.418 15.412 17.779 15.953 17.68C 16.495 17.583 16.857 17.064 16.762 16.521C 16.757 16.493 16.291 13.705 17.902 12.041C 19.051 10.854 21.037 10.451 23.806 10.844C 26.205 11.184 27.325 13.427 27.37 15.498C 27.422 17.824 26.161 20.416 23.228 20.966C 20.097 21.552 19.598 23.318 19.708 26.811C 19.725 27.353 20.169 27.78 20.707 27.78C 20.718 27.78 20.728 27.78 20.739 27.78C 21.291 27.763 21.724 27.301 21.707 26.749C 21.599 23.306 22.143 23.205 23.596 22.933C 27.682 22.168 29.44 18.626 29.369 15.455C 29.307 12.536 27.648 9.368 24.087 8.863ZM 44.068 22.034C 44.068 34.183 34.184 44.068 22.034 44.068C 9.884 44.068 6.2561e-07 34.184 6.2561e-07 22.034C 6.2561e-07 9.884 9.885 1.52588e-07 22.034 1.52588e-07C 34.183 1.52588e-07 44.068 9.884 44.068 22.034ZM 42.068 22.034C 42.068 10.988 33.081 2 22.034 2C 10.987 2 2 10.987 2 22.034C 2 33.081 10.987 42.068 22.034 42.068C 33.081 42.068 42.068 33.08 42.068 22.034Z"/>
    </symbol>
    <symbol id="list" viewBox="0 0 89 69">
        <g transform="translate(265 723)">
            <path fill="#FFFFFF" transform="translate(-264.379 -722.659)" d="M 6.125 0C 2.76647 0 0 2.76647 0 6.125L 0 61.875C 0 65.2335 2.76647 68 6.125 68L 61.875 68C 65.2335 68 68 65.2335 68 61.875L 68 43.8438L 87.4062 24.4688C 87.7764 24.0943 87.984 23.589 87.984 23.0625C 87.984 22.536 87.7764 22.0307 87.4062 21.6562L 78.3438 12.5938C 78.1346 12.3795 77.88 12.2149 77.5988 12.1121C 77.3175 12.0093 77.0168 11.971 76.7188 12C 76.2669 12.0569 75.8479 12.2664 75.5312 12.5938L 68 20.1562L 68 6.125C 68 2.76647 65.2335 0 61.875 0L 6.125 0ZM 6.125 4L 61.875 4C 63.0917 4 64 4.90831 64 6.125L 64 24.1562L 46.5938 41.5938C 46.2177 41.9656 46.0042 42.4712 46 43L 46 52C 46.0001 52.5304 46.2108 53.0391 46.5858 53.4142C 46.9609 53.7892 47.4696 53.9999 48 54L 57 54C 57.5288 53.9958 58.0344 53.7823 58.4062 53.4062L 64 47.8125L 64 61.875C 64 63.0917 63.0917 64 61.875 64L 6.125 64C 4.90831 64 4 63.0917 4 61.875L 4 6.125C 4 4.90831 4.90831 4 6.125 4ZM 13.8125 14C 13.5498 14.0123 13.2921 14.0761 13.0541 14.188C 12.8162 14.2999 12.6025 14.4575 12.4255 14.6519C 12.2484 14.8464 12.1114 15.0738 12.0222 15.3212C 11.9331 15.5686 11.8935 15.8311 11.9058 16.0938C 11.9182 16.3564 11.9821 16.6141 12.094 16.8521C 12.2059 17.0901 12.3636 17.3036 12.5581 17.4807C 12.7525 17.6577 12.98 17.7946 13.2274 17.8838C 13.4748 17.9729 13.7373 18.0124 14 18L 54 18C 54.265 18.0037 54.5281 17.9548 54.7741 17.856C 55.02 17.7571 55.2439 17.6104 55.4326 17.4243C 55.6213 17.2382 55.7712 17.0165 55.8735 16.772C 55.9758 16.5275 56.0285 16.265 56.0285 16C 56.0285 15.735 55.9758 15.4725 55.8735 15.228C 55.7712 14.9835 55.6213 14.7618 55.4326 14.5757C 55.2439 14.3896 55.02 14.2429 54.7741 14.144C 54.5281 14.0452 54.265 13.9963 54 14L 14 14C 13.9375 13.9971 13.875 13.9971 13.8125 14L 13.8125 14ZM 76.9375 16.8125L 83.1875 23.0625L 79.5312 26.7188L 73.2812 20.4688L 76.9375 16.8125ZM 70.4688 23.2812L 76.7188 29.5312L 56.1875 50L 50 50L 50 43.8125L 70.4688 23.2812ZM 13.8125 26C 13.5498 26.0123 13.2921 26.0761 13.0541 26.188C 12.8162 26.2999 12.6025 26.4575 12.4255 26.6519C 12.2484 26.8464 12.1114 27.0738 12.0222 27.3212C 11.9331 27.5686 11.8935 27.8311 11.9058 28.0938C 11.9182 28.3564 11.9821 28.6141 12.094 28.8521C 12.2059 29.0901 12.3636 29.3036 12.5581 29.4807C 12.7525 29.6577 12.98 29.7946 13.2274 29.8838C 13.4748 29.9729 13.7373 30.0124 14 30L 54 30C 54.265 30.0037 54.5281 29.9548 54.7741 29.856C 55.02 29.7571 55.2439 29.6104 55.4326 29.4243C 55.6213 29.2382 55.7712 29.0165 55.8735 28.772C 55.9758 28.5275 56.0285 28.265 56.0285 28C 56.0285 27.735 55.9758 27.4725 55.8735 27.228C 55.7712 26.9835 55.6213 26.7618 55.4326 26.5757C 55.2439 26.3896 55.02 26.2429 54.7741 26.144C 54.5281 26.0452 54.265 25.9963 54 26L 14 26C 13.9375 25.9971 13.875 25.9971 13.8125 26ZM 13.8125 38C 13.5498 38.0123 13.2921 38.0761 13.0541 38.188C 12.8162 38.2999 12.6025 38.4575 12.4255 38.6519C 12.2484 38.8464 12.1114 39.0738 12.0222 39.3212C 11.9331 39.5686 11.8935 39.8311 11.9058 40.0938C 11.9182 40.3564 11.9821 40.6141 12.094 40.8521C 12.2059 41.0901 12.3636 41.3036 12.5581 41.4807C 12.7525 41.6577 12.98 41.7946 13.2274 41.8838C 13.4748 41.9729 13.7373 42.0124 14 42L 40.1562 42C 40.4213 42.0037 40.6844 41.9548 40.9303 41.856C 41.1763 41.7571 41.4001 41.6104 41.5888 41.4243C 41.7776 41.2382 41.9275 41.0165 42.0298 40.772C 42.132 40.5275 42.1847 40.265 42.1847 40C 42.1847 39.735 42.132 39.4725 42.0298 39.228C 41.9275 38.9835 41.7776 38.7618 41.5888 38.5757C 41.4001 38.3896 41.1763 38.2429 40.9303 38.144C 40.6844 38.0452 40.4213 37.9963 40.1562 38L 14 38C 13.9375 37.9971 13.875 37.9971 13.8125 38ZM 13.8125 50C 13.5498 50.0123 13.2921 50.0761 13.0541 50.188C 12.8162 50.2999 12.6025 50.4575 12.4255 50.6519C 12.2484 50.8464 12.1114 51.0738 12.0222 51.3212C 11.9331 51.5686 11.8935 51.8311 11.9058 52.0938C 11.9182 52.3564 11.9821 52.6141 12.094 52.8521C 12.2059 53.0901 12.3636 53.3036 12.5581 53.4807C 12.7525 53.6577 12.98 53.7946 13.2274 53.8838C 13.4748 53.9729 13.7373 54.0124 14 54L 40 54C 40.265 54.0037 40.5281 53.9548 40.7741 53.856C 41.02 53.7571 41.2439 53.6104 41.4326 53.4243C 41.6213 53.2382 41.7712 53.0165 41.8735 52.772C 41.9758 52.5275 42.0285 52.265 42.0285 52C 42.0285 51.735 41.9758 51.4725 41.8735 51.228C 41.7712 50.9835 41.6213 50.7618 41.4326 50.5757C 41.2439 50.3896 41.02 50.2429 40.7741 50.144C 40.5281 50.0452 40.265 49.9963 40 50L 14 50C 13.9375 49.9971 13.875 49.9971 13.8125 50L 13.8125 50Z"/>
        </g>
    </symbol>
    <symbol id="info" viewBox="0 0 71 70">
        <path fill="#ffffff" d="M 34.793 69.588C 53.979 69.588 69.588 53.979 69.588 34.794C 69.588 15.608 53.979 0 34.793 0C 15.608 0 0 15.608 0 34.794C -1.77636e-15 53.979 15.608 69.588 34.793 69.588ZM 34.793 3C 52.325 3 66.588 17.263 66.588 34.794C 66.588 52.326 52.325 66.588 34.793 66.588C 17.262 66.588 3 52.325 3 34.794C 3 17.263 17.262 3 34.793 3Z"/>
        <path fill="#ffffff" d="M 36.293 28.496L 33.293 28.496L 33.293 49.121L 36.293 49.121L 36.293 28.496Z"/>
        <path fill="#ffffff" d="M 34.793 22.923C 36.148 22.923 37.252 21.82 37.252 20.465C 37.252 19.11 36.148 18.007 34.793 18.007C 33.438 18.007 32.335 19.11 32.335 20.465C 32.335 21.82 33.438 22.923 34.793 22.923ZM 34.793 19.923C 35.092 19.923 35.335 20.166 35.335 20.465C 35.335 20.764 35.092 21.007 34.793 21.007C 34.495 21.007 34.252 20.764 34.252 20.465C 34.252 20.166 34.495 19.923 34.793 19.923Z"/>
    </symbol>
    <symbol id="user" viewBox="0 0 52 63">
        <g transform="translate(246 267)">
            <path id="path0_fill" transform="translate(-235.511 -266.473)" fill="#FFFFFF" d="M 31 15.5C 31 6.9 24.1 3.8147e-07 15.5 3.8147e-07C 6.9 3.8147e-07 0 6.9 0 15.5C 0 24 6.9 30.9 15.5 30.9C 24.1 30.9 31 24 31 15.5ZM 4 15.5C 4 9.2 9.2 4 15.5 4C 21.8 4 27 9.2 27 15.5C 27 21.8 21.8 26.9 15.5 26.9C 9.2 26.9 4 21.8 4 15.5Z"/>
            <path id="path1_fill" transform="translate(-245.219 -232.373)" fill="#FFFFFF" d="M 0.507909 18.8C -1.29209 23.2 1.90791 28.1 6.70791 28.1L 44.5079 28.1C 49.3079 28.1 52.5079 23.2 50.7079 18.8C 46.0079 7.6 36.5079 7.62939e-07 25.6079 7.62939e-07C 14.6079 7.62939e-07 5.10791 7.6 0.507909 18.8ZM 25.6079 4C 34.6079 4 42.8079 10.3 47.0079 20.4C 47.5079 21.6 47.0079 22.6 46.8079 22.9C 46.6079 23.3 45.8079 24.1 44.5079 24.1L 6.70791 24.1C 5.40791 24.1 4.70791 23.3 4.40791 22.9C 4.20791 22.5 3.70791 21.6 4.20791 20.4C 8.40791 10.3 16.6079 4 25.6079 4Z"/>
        </g>
    </symbol>
    <symbol id="backclock" viewBox="0 0 126 108">
        <g transform="translate(490 1400)">
            <path id="path0_fill" transform="translate(-489.039 -1399.74)" fill="#FFFFFF" d="M 28.4393 54.1046C 28.436 54.0129 28.4326 53.9205 28.429 53.8273C 27.4502 28.782 48.8616 10.1647 70.8616 10.1647C 92.8616 10.1647 113.856 27.503 113.856 53.8273C 113.856 66.0081 108.199 77.4517 100.742 84.7804C 92.0826 93.29 80.8779 96.7222 71.4334 96.7222C 53.8551 96.7222 41.6771 84.2984 41.6771 84.2984L 33.8526 91.6548C 33.8526 91.6548 41.7569 98.676 48.2562 101.683C 54.7555 104.69 56.6587 106.511 70.8616 106.828C 83.0601 107.1 94.4465 101.65 101.85 96.7222C 122.692 82.8509 124.311 63.0418 124.311 53.9648C 124.311 44.8879 122.502 27.0707 105.147 12.3466C 97.0307 5.46096 86.4738 2.2584e-07 69.8614 4.66436e-15C 54.3678 -2.10629e-07 42.5834 7.13355 34.8972 13.8326C 16.7192 29.6759 17.46 53.9648 17.46 53.9648C 17.46 53.9648 17.4834 54.0136 17.528 54.1046L 9.12872e-10 54.1046L 23.6129 78.4765L 47.9887 54.1046L 28.4393 54.1046L 28.4393 54.1046Z"/>
            <path id="path1_fill" transform="translate(-422.995 -1368.33)" fill="#FFFFFF" d="M 3.07207e-06 8.78638e-07L 3.07207e-06 28.4705L 25.303 43.8388L 29.6067 37.8499L 8.33173 24.9604L 8.33173 8.78638e-07L 3.07207e-06 8.78638e-07Z"/>
        </g>
    </symbol>
    <symbol id="exit" viewBox="0 0 33 33">
        <g transform="translate(385 1379)">
            <path id="path0_fill" transform="matrix(6.12323e-17 -1 1 6.12323e-17 -384.829 -1346.88)" fill="#FFFFFF" d="M 17 3.66637L 17 22.9958C 17 23.5494 16.5561 23.9982 16 23.9982C 15.4477 23.9982 15 23.5588 15 22.9958L 15 3.66637L 12.2433 6.72739C 11.8738 7.13763 11.2415 7.17089 10.831 6.80167C 10.4205 6.43245 10.3872 5.80057 10.7567 5.39033L 15.3359 0.305592C 15.7031 -0.102079 16.2973 -0.101649 16.6641 0.305592L 21.2433 5.39033C 21.6128 5.80057 21.5795 6.43245 21.169 6.80167C 20.7585 7.17089 20.1262 7.13763 19.7567 6.72739L 17 3.66637ZM 0 30.9973L 0 16.9991C 0 16.4428 0.447715 15.9982 1 15.9982C 1.55613 15.9982 2 16.449 2 17.0051L 2 29.9982L 30 29.9982L 30 17.0051C 30 16.4482 30.4477 15.9982 31 15.9982C 31.5561 15.9982 32 16.4463 32 16.9991L 32 30.9973C 32 31.5536 31.5555 31.9982 31.0072 31.9982L 0.992783 31.9982C 0.452359 31.9982 0 31.5501 0 30.9973Z"/>
        </g>
    </symbol>
    <symbol id="google" viewBox="0 0 61 61">
        <g transform="translate(1176 4081)">
            <path transform="translate(-1176 -4064.53)" fill="#FBBB00" d="M 13.5189 20.3897L 11.3956 28.3164L 3.63486 28.4806C 1.31555 24.1788 0 19.2569 0 14.0267C 0 8.96903 1.23001 4.19959 3.41028 6.39915e-07L 3.41195 6.39915e-07L 10.3212 1.2667L 13.3478 8.13445C 12.7143 9.98125 12.3691 11.9637 12.3691 14.0267C 12.3693 16.2656 12.7749 18.4107 13.5189 20.3897Z"/>
            <path transform="translate(-1144.83 -4056.2)" fill="#518EF8" d="M 29.2966 -6.10828e-07C 29.6468 1.84501 29.8295 3.75043 29.8295 5.69778C 29.8295 7.88139 29.5999 10.0114 29.1625 12.066C 27.6778 19.0575 23.7982 25.1625 18.4239 29.4828L 18.4222 29.4811L 9.71973 29.0371L 8.48806 21.3483C 12.0542 19.2569 14.8411 15.984 16.3092 12.066L -1.10531e-06 12.066L -1.10531e-06 -6.10828e-07L 16.5471 -6.10828e-07L 29.2966 -6.10828e-07Z"/>
            <path transform="translate(-1172.37 -4044.14)" fill="#28B446" d="M 45.9578 17.4201L 45.9594 17.4218C 40.7326 21.6231 34.0929 24.1368 26.8651 24.1368C 15.25 24.1368 5.15152 17.6447 9.2715e-08 8.09084L 9.88403 -4.07219e-07C 12.4597 6.87418 19.091 11.7676 26.8651 11.7676C 30.2067 11.7676 33.3372 10.8643 36.0235 9.28737L 45.9578 17.4201Z"/>
            <path transform="translate(-1172.59 -4081)" fill="#F14336" d="M 46.5578 7.02167L 36.6771 15.1108C 33.8969 13.3731 30.6106 12.3692 27.0897 12.3692C 19.1396 12.3692 12.3843 17.4871 9.93764 24.6078L 0.00166803 16.4733L 6.54459e-08 16.4733C 5.07611 6.68653 15.3019 0 27.0897 0C 34.4901 0 41.2756 2.63611 46.5578 7.02167Z"/>
        </g>
    </symbol>
    <symbol id="facebook" viewBox="0 0 61 61">
        <g transform="translate(1259 4081)">
            <path transform="translate(-1259 -4081)" fill="#FFFFFF" d="M 57.378 4.74975e-11L 3.352 4.74975e-11C 1.502 4.74975e-11 0 1.499 0 3.352L 0 57.378C 0 59.231 1.502 60.732 3.352 60.732L 32.438 60.732L 32.438 37.213L 24.524 37.213L 24.524 28.046L 32.438 28.046L 32.438 21.286C 32.438 13.443 37.227 9.17 44.225 9.17C 47.58 9.17 50.457 9.421 51.296 9.53L 51.296 17.728L 46.442 17.73C 42.637 17.73 41.903 19.539 41.903 22.192L 41.903 28.043L 50.981 28.043L 49.794 37.209L 41.902 37.209L 41.902 60.729L 57.377 60.729C 59.229 60.729 60.732 59.226 60.732 57.378L 60.732 3.35C 60.731 1.499 59.23 4.74975e-11 57.378 4.74975e-11Z"/>
        </g>
    </symbol>
    <symbol id="messenger" viewBox="0 0 24 24">
        <path fill="#ffffff" fill-rule="evenodd" d="M 12 3.55271e-15C 5.373 3.55271e-15 0 4.975 0 11.111C 0 14.608 1.745 17.727 4.472 19.763L 4.472 24L 8.558 21.758C 9.648 22.059 10.804 22.222 12 22.222C 18.627 22.222 24 17.248 24 11.111C 24 4.975 18.627 0 12 0L 12 3.55271e-15ZM 13.193 14.963L 10.137 11.704L 4.174 14.963L 10.733 8L 13.863 11.259L 19.752 8L 13.193 14.963Z"/>
    </symbol>
    <symbol id="amountMinus" viewBox="0 0 18 2">
        <path fill-rule="evenodd" fill="rgb(255, 255, 255)" d="M-0.000,-0.000 L18.000,-0.000 L18.000,2.000 L-0.000,2.000 L-0.000,-0.000 Z"/>
    </symbol>
    <symbol id="amountPlus" viewBox="0 0 18 18">
        <path fill-rule="evenodd" fill="rgb(255, 255, 255)" d="M18.000,10.000 L10.000,10.000 L10.000,18.000 L8.000,18.000 L8.000,10.000 L-0.000,10.000 L-0.000,8.000 L8.000,8.000 L8.000,-0.000 L10.000,-0.000 L10.000,8.000 L18.000,8.000 L18.000,10.000 Z"/>
    </symbol>
    <symbol id="arrowDouble" viewBox="0 0 14 17">
        <path fill="#a1a1a1" fillRule="evenodd" d="M 7.73438 8.18335L 8.05273 7.84204L 7.73438 7.50098L 0.732422 0L 0 0.682373L 6.68555 7.84229L 0.00390625 15.0012L 0.734375 15.6833L 7.73438 8.18335ZM 12.7344 8.18335L 13.0527 7.84204L 12.7344 7.50098L 5.73242 0L 5 0.682373L 11.6855 7.84229L 5.00391 15.0012L 5.73438 15.6833L 12.7344 8.18335Z"/>
    </symbol>
    <symbol id="addBasket" viewBox="0 0 20 20">
        <path fillRule="evenodd" fill="rgb(255, 255, 255)" d="M18.000,10.000 L10.000,10.000 L10.000,18.000 L8.000,18.000 L8.000,10.000 L-0.000,10.000 L-0.000,8.000 L8.000,8.000 L8.000,-0.000 L10.000,-0.000 L10.000,8.000 L18.000,8.000 L18.000,10.000 Z"/>
    </symbol>
    <symbol id="arrowDoubleDown" viewBox="0 0 60 32">
        <path fillRule="evenodd" opacity="0.51" fill="rgb(244, 244, 244)" d="M59.028,6.555 L30.085,31.178 L30.000,31.078 L29.915,31.178 L0.972,6.555 L6.156,0.461 L30.000,20.746 L53.844,0.461 L59.028,6.555 Z"/>
    </symbol>
    <symbol id="clearOrange" viewBox="0 0 8 8">
        <path fill-rule="evenodd"  fill="rgb(255, 116, 4)" d="M7.993,7.328 L7.328,7.993 L4.000,4.665 L0.672,7.993 L0.007,7.328 L3.334,4.000 L0.007,0.672 L0.672,0.007 L4.000,3.334 L7.328,0.007 L7.993,0.672 L4.666,4.000 L7.993,7.328 Z"/>
    </symbol>
    <symbol id="clock" viewBox="0 0 76 76">
        <g transform="translate(276 659)">
            <path transform="translate(-276 -659)" fill="#ff7404" d="M 38 -7.38281e-06C 17.0488 -7.38281e-06 0 17.0488 0 38C 0 58.9512 17.0488 76 38 76C 58.9512 76 76 58.9512 76 38C 76 17.0488 58.9512 -7.38281e-06 38 -7.38281e-06L 38 -7.38281e-06ZM 38 5.99999C 55.7085 5.99999 70 20.2914 70 38C 70 55.7085 55.7085 70 38 70C 20.2915 70 6 55.7085 6 38C 6 20.2914 20.2915 5.99999 38 5.99999L 38 5.99999ZM 38 11C 36.3432 11 35 12.3432 35 14L 35 38C 35 39.1095 35.6046 40.0747 36.5 40.5938L 55.5625 51.5937C 56.9973 52.4221 58.8279 51.9349 59.6562 50.5C 60.4848 49.0651 59.9974 47.2347 58.5625 46.4063L 41 36.2813L 41 14C 41 12.3432 39.6569 11 38 11Z"/>
        </g>
    </symbol>
    <symbol id="icoMan" viewBox="0 0 518 579">
        <g transform="translate(503 932)">
            <path transform="translate(-502.759 -931.233)" fill="#ff7404" d="M 343.588 -1.92383e-06C 326.682 0.0112771 310.471 6.73235 298.517 18.687C 286.563 30.6417 279.842 46.8524 279.831 63.7586C 279.842 80.6648 286.563 96.8755 298.517 108.83C 310.471 120.785 326.682 127.506 343.588 127.517C 360.495 127.507 376.706 120.786 388.661 108.831C 400.616 96.8765 407.337 80.6653 407.348 63.7586C 407.337 46.8519 400.616 30.6407 388.661 18.6859C 376.706 6.7312 360.495 0.0104824 343.588 -1.92383e-06L 343.588 -1.92383e-06ZM 292.68 134.063C 280.954 132.766 269.208 137.92 262.133 147.882L 136.312 171.76C 127.501 173.374 120.204 179.563 117.04 188.003L 85.2812 272.369C 80.2552 285.65 86.9101 300.433 100.191 305.46C 103.169 306.639 106.24 307.036 109.281 307.036C 119.647 307.036 129.314 300.732 133.161 290.429L 160.071 219.398L 231.467 205.822L 171.95 320.37C 169.156 325.831 168.125 331.692 168.434 337.34L 120.311 389.583L 47.9461 340.613C 33.8591 331.117 14.7751 334.767 5.27915 348.855C -4.21585 362.943 -0.565855 382.148 13.5211 391.644L 107.828 455.281C 113.041 458.819 119.081 460.615 125.04 460.615C 133.419 460.615 141.749 457.192 147.706 450.676L 211.102 381.825L 283.951 421.947L 224.799 532.132C 216.792 547.088 222.326 565.761 237.285 573.829C 241.94 576.312 246.927 577.465 251.83 577.465C 262.753 577.465 273.396 571.647 278.983 561.344L 352.56 424.372C 360.564 409.539 355.087 390.925 340.317 382.795L 283.345 351.401L 334.984 252.126L 405.895 306.067C 410.487 309.604 415.948 311.278 421.41 311.278C 427.305 311.278 433.114 309.252 437.895 305.218L 508.441 245.702C 519.24 236.764 520.595 220.559 511.472 209.822C 502.411 199.023 486.332 197.669 475.469 206.792L 420.562 253.095L 358.863 206.185L 360.075 204.004C 368.516 187.806 362.091 167.838 345.892 159.397L 304.196 137.578C 300.486 135.654 296.588 134.495 292.68 134.063L 292.68 134.063Z"/>
        </g>
    </symbol>
    <symbol id="weight" viewBox="0 0 55 58">
        <g transform="translate(225 649)">
            <path transform="translate(-224.303 -648.01)" fill="#ff7404" d="M 44.133 21.82L 39.483 21.82C 40.856 19.628 41.664 17.046 41.664 14.273C 41.664 6.402 35.261 4.42505e-07 27.39 4.42505e-07C 19.519 4.42505e-07 13.117 6.402 13.117 14.273C 13.117 17.045 13.925 19.627 15.298 21.82L 9.223 21.82L 6.10352e-07 56.892L 53.354 56.892L 44.133 21.82ZM 27.389 7.512C 31.118 7.512 34.152 10.545 34.152 14.274C 34.152 18.003 31.118 21.036 27.389 21.036C 23.66 21.036 20.627 18.003 20.627 14.274C 20.627 10.545 23.661 7.512 27.389 7.512Z"/>
        </g>
    </symbol>
    <symbol id="arrowToggle" viewBox="0 0 17 9">
        <path fill-rule="evenodd" d="M16.659,1.752 L8.658,8.752 L8.500,8.571 L8.341,8.752 L0.341,1.752 L1.659,0.247 L8.500,6.233 L15.341,0.247 L16.659,1.752 Z"/>
    </symbol>
    <symbol id="arrow" viewBox="0 0 40 19">
        <g transform="translate(20 10)">
            <path transform="translate(-19.144 -9.265)" fill="#FF7404" fill-rule="evenodd" d="M 38.288 1.53L 19.288 17.53L 19.144 17.359L 19 17.53L 6.19888e-09 1.53L 1.288 -5.96046e-10L 19.144 15.037L 37 -5.96046e-10L 38.288 1.53Z"/>
        </g>
    </symbol>
    <symbol id="card" viewBox="0 0 99 76">
        <path d="M 1.19041e-06 72.36L 1.19041e-06 37.05C -0.000394763 36.6283 0.0979908 36.2124 0.287274 35.8355C 0.476558 35.4587 0.751476 35.1315 1.09 34.88L 17.88 22.42C 20.3783 20.5651 23.4084 19.5656 26.52 19.57C 27.0177 19.5713 27.515 19.598 28.01 19.65L 28.01 40.65C 27.9761 42.0021 28.4346 43.3206 29.3 44.36C 30.0233 45.1983 30.9892 45.791 32.0642 46.0561C 33.1391 46.3213 34.2699 46.2457 35.3 45.84L 58.13 36.9C 58.8882 36.6024 59.6955 36.4498 60.51 36.45L 60.51 36.45C 61.8614 36.4512 63.1793 36.8711 64.2823 37.6518C 65.3854 38.4326 66.2195 39.5359 66.67 40.81C 67.1477 42.2398 67.127 43.7892 66.6112 45.2056C 66.0955 46.6221 65.1151 47.8221 63.83 48.61L 51.88 56.17L 65.65 56.17C 66.2335 56.17 66.7931 56.4018 67.2056 56.8144C 67.6182 57.2269 67.85 57.7865 67.85 58.37L 67.85 66.91C 67.7642 68.0846 67.3228 69.2053 66.5846 70.123C 65.8464 71.0406 64.8463 71.7118 63.7173 72.0472C 62.5883 72.3827 61.384 72.3665 60.2645 72.0008C 59.1449 71.6351 58.1633 70.9372 57.45 70C 57.059 71.1484 56.3185 72.1455 55.3321 72.8517C 54.3457 73.5578 53.1631 73.9375 51.95 73.9375C 50.7369 73.9375 49.5543 73.5578 48.5679 72.8517C 47.5815 72.1455 46.841 71.1484 46.45 70C 45.7814 70.8739 44.8784 71.5399 43.8461 71.9207C 42.8138 72.3014 41.6945 72.3812 40.6186 72.1507C 39.5427 71.9202 38.5544 71.389 37.7686 70.6188C 36.9829 69.8486 36.432 68.8711 36.18 67.8C 29.4891 72.3062 21.6068 74.7155 13.54 74.72L 2.36 74.72C 2.05008 74.72 1.7432 74.659 1.45687 74.5404C 1.17054 74.4218 0.910375 74.2479 0.691229 74.0288C 0.472083 73.8096 0.298247 73.5495 0.179646 73.2631C 0.0610444 72.9768 1.19041e-06 72.6699 1.19041e-06 72.36L 1.19041e-06 72.36ZM 94.22 3.43346e-07L 38.58 3.43346e-07C 37.5775 3.43346e-07 36.616 0.398249 35.9071 1.10714C 35.1982 1.81602 34.8 2.77748 34.8 3.78L 34.8 11.09L 98 11.09L 98 3.79C 98.0013 3.29276 97.9045 2.80015 97.7151 2.34039C 97.5258 1.88062 97.2475 1.46273 96.8964 1.11067C 96.5453 0.758604 96.1281 0.479277 95.6689 0.288689C 95.2096 0.0981012 94.7172 -1.39667e-06 94.22 3.43346e-07L 94.22 3.43346e-07ZM 34.8 39L 55.73 30.81C 57.2463 30.2144 58.861 29.9091 60.49 29.91C 63.1815 29.9202 65.8051 30.756 68.0065 32.3047C 70.2079 33.8533 71.881 36.0402 72.8 38.57C 73.4333 40.3731 73.6613 42.2937 73.4678 44.195C 73.2742 46.0963 72.6638 47.9315 71.68 49.57L 94.22 49.57C 95.2173 49.57 96.1743 49.1759 96.8823 48.4735C 97.5903 47.7711 97.9921 46.8173 98 45.82L 98 18.23L 34.8 18.23L 34.8 39Z"/>
    </symbol>
    <symbol id="cash" viewBox="0 0 88 78">
        <path d="M 72.6 27.1C 72.6 29.6 70.5 31.7 68 31.7C 65.5 31.7 63.4 29.6 63.4 27.1C 63.4 24.6 65.5 22.5 68 22.5C 70.5 22.5 72.6 24.6 72.6 27.1ZM 19.6 22.5C 17.1 22.5 15 24.6 15 27.1C 15 29.6 17.1 31.7 19.6 31.7C 22.1 31.7 24.2 29.6 24.2 27.1C 24.2 24.6 22.2 22.5 19.6 22.5ZM 87.6 7.6L 87.6 46.6C 87.6 50.8 84.2 54.2 80 54.2L 7.6 54.2C 3.4 54.2 -1.90735e-07 50.8 -1.90735e-07 46.6L -1.90735e-07 7.6C -1.90735e-07 3.4 3.4 -1.90735e-07 7.6 -1.90735e-07L 80 -1.90735e-07C 84.2 -1.90735e-07 87.6 3.4 87.6 7.6ZM 81.1 15.8C 80.5 16 79.9 16 79.2 16C 75 16 71.5 12.6 71.5 8.3C 71.5 7.7 71.6 7 71.7 6.4L 15.4 6.4C 15.5 6.9 15.5 7.3 15.5 7.8C 15.5 12 12.1 15.5 7.8 15.5C 7.3 15.5 6.9 15.5 6.5 15.4L 6.5 38.8C 6.9 38.7 7.4 38.7 7.8 38.7C 12 38.7 15.5 42.1 15.5 46.4C 15.5 46.9 15.5 47.4 15.4 47.8L 71.6 47.8C 71.6 47.5 71.5 47.2 71.5 46.8C 71.5 42.6 74.9 39.1 79.2 39.1C 79.9 39.1 80.5 39.2 81.1 39.3L 81.1 15.8L 81.1 15.8ZM 84.3 59.4L 3.3 59.4C 1.5 59.4 0.1 60.8 0.1 62.6C 0.1 64.4 1.6 65.8 3.4 65.8L 84.4 65.8C 86.2 65.8 87.6 64.4 87.6 62.6C 87.6 60.8 86.1 59.4 84.3 59.4ZM 84.3 71.1L 3.3 71.1C 1.5 71.1 0.1 72.5 0.1 74.3C 0.1 76.1 1.5 77.5 3.3 77.5L 84.3 77.5C 86.1 77.5 87.5 76.1 87.5 74.3C 87.5 72.5 86.1 71.1 84.3 71.1ZM 60.4 27.1C 60.4 36.3 53 43.7 43.8 43.7C 34.6 43.7 27.2 36.3 27.2 27.1C 27.2 17.9 34.7 10.5 43.8 10.5C 52.9 10.5 60.4 17.9 60.4 27.1ZM 50 34.5C 49.8 34 49.6 33.5 49.3 33C 49.1 32.5 48.8 32.4 48.3 32.5C 47.7 32.6 47.1 32.8 46.4 33C 45.2 33.3 44 33.3 42.8 32.9C 41.3 32.4 40.5 31.3 40 29.9L 44.1 29.9C 44.4 29.9 44.7 29.6 44.7 29.3L 44.7 28C 44.7 27.7 44.4 27.4 44.1 27.4L 39.6 27.4C 39.6 27 39.6 26.7 39.6 26.4L 44.1 26.4C 44.4 26.4 44.7 26.1 44.7 25.8L 44.7 24.5C 44.7 24.2 44.4 23.9 44.1 23.9L 40.2 23.9C 40.7 22.8 41.3 22 42.5 21.5C 43.8 21 45.1 21 46.5 21.3C 47.1 21.4 47.8 21.6 48.4 21.8C 48.9 21.9 49.1 21.8 49.3 21.3C 49.5 20.8 49.7 20.3 50 19.8C 50.2 19.3 50.1 19 49.6 18.7C 49.5 18.6 49.4 18.6 49.2 18.5C 47.3 17.8 45.4 17.5 43.4 17.8C 42 18 40.7 18.5 39.6 19.4C 38.2 20.5 37.2 22 36.7 23.7L 36.6 23.9L 34.6 23.9C 34.3 23.9 34 24.2 34 24.5L 34 25.8C 34 26.1 34.3 26.4 34.6 26.4L 36.2 26.4C 36.2 26.8 36.2 27.1 36.2 27.4L 34.6 27.4C 34.3 27.4 34 27.7 34 28L 34 29.3C 34 29.6 34.3 29.9 34.6 29.9L 36.5 29.9C 36.6 30.4 36.8 30.8 36.9 31.3C 37.9 33.6 39.5 35.3 41.9 36.1C 43.9 36.8 45.9 36.7 47.9 36.2C 48.4 36.1 48.9 35.9 49.4 35.6C 50.1 35.3 50.2 34.9 50 34.5Z"/>
    </symbol>
    <symbol id="mark-white" viewBox="0 0 48 34">
        <path fill="#ffffff" d="M 6.8093 11.3669C 5.2367 9.81534 2.7041 9.83242 1.15257 11.405C -0.398959 12.9776 -0.381889 15.5102 1.1907 17.0617L 6.8093 11.3669ZM 20 30L 17.1907 32.8474C 17.9623 33.6087 19.0098 34.0242 20.0934 33.9989C 21.1771 33.9736 22.204 33.5096 22.9392 32.7131L 20 30ZM 46.9392 6.71314C 48.4376 5.08986 48.3364 2.55922 46.7131 1.06081C 45.0898 -0.437611 42.5592 -0.336381 41.0608 1.2869L 46.9392 6.71314ZM 1.1907 17.0617L 17.1907 32.8474L 22.8093 27.1526L 6.8093 11.3669L 1.1907 17.0617ZM 22.9392 32.7131L 46.9392 6.71314L 41.0608 1.2869L 17.0608 27.2869L 22.9392 32.7131Z"/>
    </symbol>
</svg>


